<?xml version="1.0" encoding="utf-8"?>
<!-- Svg Vector Icons : http://www.onlinewebfonts.com/icon -->
<!DOCTYPE svg PUBLIC "-//W3C//DTD SVG 1.1//EN" "http://www.w3.org/Graphics/SVG/1.1/DTD/svg11.dtd">
<svg version="1.1" xmlns="http://www.w3.org/2000/svg" xmlns:xlink="http://www.w3.org/1999/xlink" x="0px" y="0px" viewBox="0 0 1000 1000" enable-background="new 0 0 1000 1000" xml:space="preserve">
<metadata> Svg Vector Icons : http://www.onlinewebfonts.com/icon </metadata>
<g><g transform="translate(0.000000,511.000000) scale(0.100000,-0.100000)"><path d="M470.4,4378.3c-112.9-32.5-241.2-135.9-302.5-247L108.6,4026l-5.7-3867.2c-5.7-4386-19.1-3997.4,155.1-4173.5c180-180-306.3-162.7,4742.1-162.7s4562.1-17.2,4742.1,162.7c174.2,176.1,160.8-212.5,155.1,4173.5l-5.7,3867.2l-59.3,105.3c-63.2,114.9-189.5,214.4-310.1,248.9C9430.1,4405.1,556.5,4403.1,470.4,4378.3z M2721.8,3269.8v-612.6h-1053H615.9v612.6v612.6h1052.9h1053V3269.8z M3837.9,3660.3c101.5-72.7,137.8-224,80.4-333.1c-47.9-93.8-116.8-134-231.7-134c-91.9,0-112.9,7.7-174.2,63.2c-59.3,55.5-70.8,78.5-76.6,168.5c-9.6,124.4,30.6,202.9,130.2,252.7C3646.5,3719.7,3769,3710.1,3837.9,3660.3z M4862.2,3671.8c239.3-145.5,145.5-478.6-137.8-478.6c-82.3,0-101.5,7.7-166.6,74.7c-67,65.1-74.7,84.2-74.7,166.6C4483.1,3650.8,4687.9,3777.1,4862.2,3671.8z M5913.2,3671.8c233.6-141.7,145.5-478.6-124.4-478.6c-153.2,0-258.5,105.3-258.5,258.5C5530.3,3646.9,5748.6,3773.3,5913.2,3671.8z M6941.3,3683.3c137.8-57.4,193.4-201,130.2-342.7c-46-101.5-118.7-147.4-233.6-147.4c-114.9,0-187.6,45.9-233.6,147.4c-44,99.5-36.4,185.7,26.8,264.2C6705.8,3700.5,6826.4,3731.2,6941.3,3683.3z M7994.2,3683.3c183.8-76.6,202.9-356.1,30.6-459.5c-30.6-17.2-91.9-30.6-137.9-30.6c-269.9,0-358,336.9-124.4,478.6C7835.3,3715.8,7906.1,3719.7,7994.2,3683.3z M9052.9,3677.6c91.9-42.1,139.7-126.3,139.7-243.1c0-82.3-7.7-101.5-74.7-166.6c-65.1-67-84.2-74.7-166.5-74.7c-283.4,0-377.1,333.1-137.8,478.6C8890.2,3717.8,8964.8,3719.7,9052.9,3677.6z M4483.1,1872.2v-612.6h-612.6h-612.6v612.6v612.6h612.6h612.6V1872.2z M6052.9,1872.2v-612.6h-612.6h-612.6v612.6v612.6h612.6h612.6V1872.2z M7622.8,1872.2v-612.6h-612.6h-612.6v612.6v612.6h612.6h612.6V1872.2z M9192.7,1872.2v-612.6H8580h-612.6v612.6v612.6H8580h612.6V1872.2z M2666.3,2257c76.6-78.5,76.6-174.2,0-252.7l-55.5-55.5h-920.9c-647.1,0-932.3,5.7-966.8,21.1c-93.8,42.1-126.4,183.8-63.2,268c55.5,70.8,78.5,72.7,1024.2,74.7h926.6L2666.3,2257z M1364.5,1575.5c172.3-90,172.3-369.5,0-459.5c-174.2-90-384.8,32.5-384.8,225.9C979.6,1541,1186.4,1667.4,1364.5,1575.5z M2243.2,1571.7c65.1-38.3,134-155.1,134-224c0-126.4-111-243.1-243.1-254.6c-158.9-13.4-279.5,95.7-279.5,252.7c0,45.9,13.4,105.3,32.5,134C1961.8,1594.6,2132.2,1638.7,2243.2,1571.7z M4483.1,302.4v-612.6h-612.6h-612.6v612.6V915h612.6h612.6V302.4z M6052.9,302.4v-612.6h-612.6h-612.6v612.6V915h612.6h612.6V302.4z M7622.8,302.4v-612.6h-612.6h-612.6v612.6V915h612.6h612.6V302.4z M9192.7,302.4v-612.6H8580h-612.6v612.6V915H8580h612.6V302.4z M1364.5,522.5c172.3-90,172.3-359.9-3.8-453.7c-227.8-122.5-471,120.6-352.3,350.4C1069.6,537.9,1240,585.7,1364.5,522.5z M2254.7,514.9c162.7-99.6,153.2-338.9-17.2-442.2c-268-164.6-526.5,210.6-291,419.3c55.5,47.9,84.2,59.4,158.9,59.4C2158.9,551.3,2218.3,535.9,2254.7,514.9z M1389.3-541.9c158.9-126.4,134-354.2-49.8-449.9c-109.1-57.4-254.6-11.5-323.5,101.5c-32.5,51.7-38.3,86.2-30.6,164.6c7.7,80.4,19.1,107.2,78.5,160.8c59.4,55.5,82.3,63.2,172.3,63.2C1310.8-501.7,1351-513.2,1389.3-541.9z M2254.7-538.1c61.3-38.3,122.5-141.7,122.5-210.6c0-176.1-185.7-306.3-352.3-250.8c-199.1,65.1-229.7,354.2-51.7,465.2C2042.2-492.1,2181.9-494,2254.7-538.1z M4483.1-1286.6v-612.6h-612.6h-612.6v612.6V-674h612.6h612.6V-1286.6z M6052.9-1286.6v-612.6h-612.6h-612.6v612.6V-674h612.6h612.6V-1286.6z M7622.8-1286.6v-612.6h-612.6h-612.6v612.6V-674h612.6h612.6V-1286.6z M9192.7-1286.6v-612.6H8580h-612.6v612.6V-674H8580h612.6V-1286.6z M1375.9-1583.4c139.8-91.9,160.8-292.9,38.3-403.9c-91.9-84.2-180-99.6-285.3-47.9c-101.5,47.9-149.3,124.4-149.3,237.4C979.6-1600.6,1209.4-1476.2,1375.9-1583.4z M2262.3-1591c72.7-51.7,118.7-151.3,107.2-239.3c-32.5-271.9-396.3-321.6-497.8-68.9C1778-1661.9,2053.7-1443.6,2262.3-1591z M4483.1-2856.5v-612.6h-612.6h-612.6v612.6v612.6h612.6h612.6V-2856.5z M6052.9-2856.5v-612.6h-612.6h-612.6v612.6v612.6h612.6h612.6V-2856.5z M7622.8-2856.5v-612.6h-612.6h-612.6v612.6v612.6h612.6h612.6V-2856.5z M9192.7-2856.5v-612.6H8580h-612.6v612.6v612.6H8580h612.6V-2856.5z M1375.9-2808.6c139.8-91.9,160.8-292.9,38.3-403.9c-91.9-84.2-180-99.6-285.3-47.9c-101.5,47.9-149.3,124.4-149.3,237.4C979.6-2825.9,1209.4-2701.4,1375.9-2808.6z M2275.7-2829.7c158.9-120.6,111-384.8-82.3-448c-302.5-101.5-482.4,346.5-193.4,480.5C2097.7-2753.1,2187.7-2762.7,2275.7-2829.7z"/></g></g>
</svg>