<?xml version="1.0" encoding="utf-8"?>
<!-- Generator: Adobe Illustrator 19.1.0, SVG Export Plug-In . SVG Version: 6.00 Build 0)  -->
<svg version="1.1" id="Layer_1" xmlns="http://www.w3.org/2000/svg" xmlns:xlink="http://www.w3.org/1999/xlink" x="0px" y="0px"
	 viewBox="0 0 1190.5 841.9" style="enable-background:new 0 0 1190.5 841.9;" xml:space="preserve">
<style type="text/css">
	.st0{fill:#F7B7D3;}
	.st1{fill:#EC008C;}
	.st2{fill:#FFFFFF;}
</style>
<g>
	<path class="st0" d="M480.3,503.1c0,0,43.4,20.2,58.2,43c6.5,10,12.9,36.7,12.9,36.7s-8.4,5.3-16.5,5.3c-8.1,0-12.5-4.3-12.5-4.3
		s-4.6-28.8-16.2-37.4c-13.5-9.9-38.3-14.5-38.3-14.5l-33.3-32.1L480.3,503.1z"/>
	<path d="M528.6,581.2c-1.5-4.8-7.1-30.7-17.9-38.6c-12.5-9.1-34.9-14-40.6-15.2l-22.7-21.9l31.5,2.3c5.9,3.1,46.4,21.1,59.2,40.8
		c4.2,6.5,7.9,27.3,9.7,32.2c-1.8,0.8-9.9,2.4-13,2.4C530.6,583.2,528.6,581.2,528.6,581.2 M553.8,585.4c0,0-6-30.5-12.8-40.9
		c-15.3-23.6-56.8-44.8-58.5-45.6l-0.9-0.4l-60.1-4.4l44,42.4l1.4,0.3c0.2,0,23.9,4.5,36.3,13.6c10.1,7.4,14.8,36,14.8,36
		s10.3,4.4,19.2,4C546.2,589.9,553.8,585.4,553.8,585.4"/>
	<path class="st0" d="M669.1,506.9c0,0,46,23.3,62.3,48.4c7.2,11,15.3,26.5,15.3,26.5s-9.6,5.8-18.5,5.8c-8.9,0-15.9-4.8-15.9-4.8
		s-5.1-19-17.8-28.4c-14.8-10.9-27.4-14-27.4-14l-40.8-1.8c0,0-23.1-1.7-65.9-1.3c-42.8,0.3-87.2-5.6-87.2-5.6l-26.9-28.4
		L669.1,506.9z"/>
	<path d="M700.7,550c-15.5-11.4-29.9-18.3-30.4-18.4l-44.1,1.9l-2.6-4c-14.4-4-32.4,1.2-76.8,2.6c-32.5,1-53.1-1.9-73.6-3.3
		l-15.7-20.5l210.3,4c7,3.7,50.8,23.3,64.8,44.8c4.6,7,9,17.2,11,22.6c-6.9,2-10.3,7.8-23.5,2.5C720,582.2,712.3,558.5,700.7,550
		 M729.9,590.4C741.4,590,750,585,750,585s-6.7-21-14.1-32.5c-16.9-26-62.4-49.2-64.4-50.2l-1.1-0.6l-235.3-3l35.8,37.8l1.8,0.2
		c0.4,0,45.1,4.3,87.7,4c40.6-0.3,61.6,3.8,66,3.4l39.9,1.7c2.3,0.6,12.8,3.9,25,13c11.1,8.1,16.4,27.4,16.4,27.4
		S718.5,590.8,729.9,590.4"/>
	<path class="st1" d="M1091.7,532c0,0-8.9,12.2-20.6,16.5c-7.2,2.6-124.4,6.9-213.9,6.1c-57.2-0.5-102.4-6.1-102.4-6.1
		s-27.8-3.8-38.1-7c-13-4-23.5-11.1-23.5-11.1c-7.2,2.4-18.5,4-28.5,19.8c-9.9,15.5-9.3,31.5-9.3,31.5s-17.8,6.1-26.4,6.1
		c-8.6,0-19.2-4.5-19.2-4.5s2.9-13.8,5.6-24c2.2-8.5,8.1-17.2,10.9-20.5l-34.9-27.6l-37.8,2.8l-72.7-7c0,0,1.8,14-6.8,40
		c-5.7,17.2-10.9,37.1-10.9,37.1s-5,4.3-12.8,4.3c-7.8,0-14.1-4.3-14.1-4.3s9.2-32.7,5.1-39.8c-7.9-13.7-25.6-12.3-25.6-12.3
		c-160.3,10.3-233-28.3-296.9-42.1c-51.4-19.3-7.5-10.9,4.6-10.6c29.1,0.7,66.4,7,78,6.4c4.5-0.2,13.3,4,22.2,2.2
		c7.2-1.4,11-6.5,18.4-7.9c13.5-2.7,18.6,9,26,8.4c10.8-0.9,13.7-9.6,24.6-12.1c9.7-2.3,22.3,6.8,30.3,5
		c21.5-4.8,83.3-30.2,144.8-43.5c9.5-2.1,16.1-15.6,34.2-20.5c21.7-5.9,27,5.1,49.2,1.4c13.1-2.2,19.1-15.4,31.8-17.4
		c29.1-4.7,9.6,3.4,26.1,2.2c19.8-1.3,17.9-5,38-16.2c24.3-13.6,67.1-1.7,85.6,4.7c9.1,3.2,6.8,19.6,6.8,19.6l309.6,70.4
		c0,0,31.7-34.4,69.6-9.6c22,14.4,17.7,50.6-3.5,59.9c-21.1,9.3-95.5-11-164-12.4c-72.9-1.5-186.7,7.6-201.5,4.5
		c-28.6-6-44.4-30.8-44.4-30.8"/>
	<path d="M442.4,581.8c3-7.7,8.2-35.5,4.2-42.6c-9.3-16.2-13-15-24.1-15c-11.1,0-114.4-2.1-155.1-4.6
		c-61.8-9.8-109.2-24.4-116.9-25.6c-29.1-7.4-67.3-18.8-26.7-9.5c3.8,0,43.1,9.5,60.1,7.6c8-0.9,12-2.7,15.7-2.9
		c0.9,0,9.1,1.2,11.1,1.7c4.7,1.1,7.3,2.8,14,1.5c4.4-0.9,7.7-2.8,10.6-4.5c2.6-1.5,4.9-2.9,7.9-3.5c6.7-1.3,10.7,4.5,14.8,6.2
		c3.2,1.3,4.2,2,8.3,1.7c7.2-0.6,10.7-2.7,14.6-5.7c3.1-2.3,10.1-5.5,14.2-6.4c4-0.9,10.5,0.5,15.6,1.6c5.6,1.3,13.9,1.1,18.8,0
		c8.2-1.8,16.2,1.2,33.1-5.3c28.6-11,61.8-27.6,100.4-36c5.3-1.1,15.4-3,19.8-6.8c5.3-4.5,11.2-9.6,20.5-12.1
		c10.3-2.8,16.3-1.4,23.2,0.2c6.6,1.5,14.1,3.2,25.6,1.3c7.9-1.3,13.5-5.9,18.4-9.9c4.5-3.6,8.3-6.8,13.3-7.6
		c16.1-2.6,23.1,2.9,31,2.4c14.8-1,13.5-3,22.1-8.6c3.1-2.1,7-4.6,12.7-7.8c23.7-13.2,68.2,0.5,81.2,5.1c3.5,1.2,3.8,9.6,3.2,13.9
		l-0.7,4.8c0,0,220,46.9,250.2,54.2c30.3,7.3,64.1,17.3,64.1,17.3l3,0.7l2.1-2.2c1.2-1.3,32.1-35.2,65.7-13.3
		c8.5,5.6,12,21.4,11.1,32.8c-0.9,10.9-15,18-23.2,21.6c-10.3,4.5-23.4-2.7-54.5-7c-28.1-3.9-56.6-13.4-99.8-12
		c-88.5,2.9-90.6,3.9-131,5.7c-33.4,1.4-63-4.4-69.3-5.7c-25.9-5.5-54.5-22.2-54.5-22.2s2.8,10.6,8,15.8c9.2,9.2,31.7,22,51.4,24.1
		c19.8,2.1,28.3-1.4,63.5-3.4c40.2-2.3,92.5,1.7,130.8,2.5c30.4,0.6,61.9,5.6,89.7,9.5c13.6,1.9,20.8,1.5,31.8,2.6
		c-2.5,2-6.2,5.3-9.2,6.4c-11.3,2.9-266.6,5.4-298.5,3c-31.9-2.4-37.2-6.6-46.4-9.4c-12.1-3.7-22-10.4-22.1-10.4l-4.8-2.5
		c0,0-12.6,6.5-26.3,17.7c-18.3,15-15.3,33.2-15.9,40.1c-2.1,1.1-8.2,4.6-16.3,4.2c-6.9-0.3-8.5-1.8-11.1-2.9
		c0.2-4.4,1.2-15.4,2.9-21.9c2-7.6,7.5-15.7,9.8-18.5l-4.9-4.2l-37.9-27.9c0,0-27.9-0.6-86.5-7.7c-16.6-2-24.9-2.2-31.2-3.9
		c0,0,7.4,22.5-0.7,46.8c-4.5,13.6-8.7,33.1-10,35.4c-1.2,0.8-8.4,2.8-13,2.8C447.3,583.5,444.4,582.6,442.4,581.8 M448.2,591.8
		c12.3-0.1,23.5-3.7,23.5-3.7s5.9-21.2,11.8-38.7c5.9-17.6,6.9-27.2,7-33.8c0,0,18.5,2.6,45.4,4.3c26.9,1.7,44.1-1.4,44.1-1.4
		l37.2,23.9c-3.2,4.8-5.2,8.9-7,15.6c-2.8,10.7-3,28-3,28s17,7.4,27.1,7.4c19.4,0,25.6-7.2,25.6-7.2s-3.2-22.3,12.5-36.1
		c7.6-6.7,14.2-10.9,21.3-14.9c0,0,17.3,12.5,27.5,15.6c10.5,3.2,24.2,7.3,43.9,10.2c14.7,2.2,41.3,0.9,41.3,0.9
		c84.6-9.8,254.4-3.9,266.5-8.3c8.4-3,24.3-6.5,28.3-10.9c10.8,0.4,16.2-2,21.9-4.5c11.8-5.2,13.9-18.8,15.1-33.6
		c1.3-15.4-2.3-30.4-14.1-38.1c-35.1-23-72.3-3.4-80.7,4.2c0,0-36.6-6.7-68.7-17c-32.1-10.3-150.4-47.3-150.4-47.3
		c0.1-6.5-67-27.3-76.8-28.5c-41.1-5-77.4-19.9-112.2,5.7c-11.5,8.5-22.2,6.7-27.7,6.4c-12.2-0.6-17.7-2.9-35.4,4.5
		c-6.1,2.6-9.4,6.3-14.2,10.3c-12.9,10.6-28.4,3-34.8,1.6c-7.5-1.7-14.9-2.4-27.5,1c-11.3,3.1-19.7,18.4-45.9,23.2
		c-38.2,6.9-52.8,21.8-92.7,33.4c-17,4.9-39.9,4.5-44.3,3.5c-5.9-1.4-14.1-2.9-20.3-1.4c-6.1,1.4-11.8,3.9-15.2,6.5
		c-3.4,2.6-10.8,4.6-18.2,3.4c-4.8-0.8-10.1-6.1-19.6-4.2c-4.5,0.9-11.3,5.9-15.9,6.2c-4.7,0.2-11.1-1.2-20.8-0.4
		c-3.9,0.4-10.6,3-18.7,3.9c-16.8,1.8-48.9-9.8-75.3-8.2c-12.3,0.8-58.8-9.9-56.7-4.5c0.6,1.5,83.2,31,93.5,32.9
		c67.1,18.4,111.7,41.9,262.7,34.9c0.2,0,14.9-1,21.1,9.9c1.7,3-6.9,39.1-6.9,39.1S435.9,591.9,448.2,591.8"/>
	<path class="st2" d="M941.4,512.5c0,0-9.6,52.3-1.8,49.5c30.1-10.5,45-46.7,45-46.7L941.4,512.5z"/>
	<path d="M964.1,517.4c6.4,0.7,17,3.5,17,3.5c-5.3,9.7-12.4,22.3-41,36.5c-0.3-7.1-1.1-24.1,1.4-38.6
		C941.4,518.8,957.7,516.7,964.1,517.4 M936.9,570.2c0.8,0,1.6-0.1,2.3-0.4c34.9-12.2,50.2-54.6,48.1-49.7l2.8-6.8l-55.3-3.6
		l-0.9,4.6c-5.6,30.5-6.4,48.5-2.3,53.4C933.1,569.4,934.9,570.2,936.9,570.2"/>
	<path class="st2" d="M806.5,439.3c0,27.8,22.6,50.4,50.4,50.4c27.8,0,50.4-22.6,50.4-50.4c0-27.8-22.6-50.4-50.4-50.4
		C829,388.9,806.5,411.4,806.5,439.3"/>
	<path d="M853.5,392.4c35.2-0.4,53.8,19.6,53.6,45.9c-0.3,24.9-18.7,42.8-43.5,43.5c-34.8,1-51.8-17.7-51.8-42.6
		C811.8,414.4,829.1,392.7,853.5,392.4 M856.8,494.9c30.7,0,56-25,55.7-55.7c-0.4-37.8-27.7-58-58.5-58c-45.1,0-52.9,27.3-52.9,58
		C801.1,470,805.5,494.8,856.8,494.9"/>
	<path d="M882.9,434c-0.1-3.7-0.8-7.2-1.9-10.5c-4.1,2.4-16.1,3.2-17.2,0c-0.8-2.5,6.1-10.9,10.6-11.9c-4.4-5.3-10-9.2-16-10.9
		c-15.6-4.3-31.2,7.4-34.2,23.3c-3,15.9,5,28.2,20.1,34C864.2,465.7,883.3,449.9,882.9,434"/>
	<path class="st2" d="M719.2,435.7c0,35.5,28.7,64.2,64.2,64.2c35.5,0,64.2-28.8,64.2-64.2c0-35.5-28.8-64.2-64.2-64.2
		C748,371.5,719.2,400.3,719.2,435.7"/>
	<path d="M786.5,375.7c32.1,1.6,57.4,15.9,60.5,60c2.7,37.7-30.2,56.5-62.6,56.5c-32.5,0-52.8-21.2-52.8-53.6
		C731.6,406.1,747.3,373.7,786.5,375.7 M783.4,505.2c44.5,0,71.1-31.2,69.5-69.5c-1.9-46.8-30.3-72.3-68.7-72.6
		c-51-0.4-80,38.1-80,76.5C704.3,477.9,752.6,504.9,783.4,505.2"/>
	<path d="M775.9,436.7c-3.3-4.1,10.1-23.7,18.5-25.5c0.2,0,0.4,0,0.6-0.1c-7.9-6.5-18.4-10.6-29.2-11.6c-20.7-1.9-44.8,19-44.8,43.4
		c0,24.5,21.2,46.9,45.6,46c32.6-1.2,40.1-26.8,42.5-44.9c0.5-4,0.3-7.7-0.4-11.3C801.9,438.2,780.2,442,775.9,436.7"/>
	<path d="M704.1,443.3c0,0-5.2-59.8,33-88.7c22.5-17,57.7-16.7,56.5-15.6l-3.6,31.3c2.2-1-19.1-1.9-37.7,6.8
		c-17.9,8.4-28.7,25.9-28.8,26.1L704.1,443.3z"/>
	<path d="M265.6,632.2c-3.5-0.8-10.9-8,2.1-14c5.8-2.7,106.4-38.2,363.7-31.5c115.9,3,238.5,7.8,325.1,8.8
		c104.1,1.2,173.1-4.5,179.8,10.9c6.6,15.5-6.1,23.7-17.1,25.9c-11,2.2-189.1-9.8-450.4-22.1c-234.1-11-238.5-2.2-326.8,6.6
		C294.9,621.5,275.4,634.4,265.6,632.2"/>
	<path d="M1091.4,486c0,1.2-0.2,2.4-0.7,3.5c-0.5,1.2-1.3,2.2-2.4,2.9c-1.6,1-3.1,1.5-4.5,1.5c-0.9,0-1.9-0.2-2.9-0.5
		c-1-0.3-2-1-2.8-1.8c-1.5-1.6-2.2-3.5-2.2-5.5c0-1.1,0.3-2.2,0.8-3.3c0.5-1.1,1.4-2.1,2.6-3c1.2-0.9,2.7-1.4,4.5-1.4
		c1.6,0,3.1,0.5,4.5,1.4h0.1C1090.4,481.4,1091.4,483.4,1091.4,486"/>
	<path d="M1116.5,481c0,1.2-0.3,2.3-0.7,3.5c-0.5,1.2-1.3,2.2-2.4,2.9c-1.5,1-3.1,1.5-4.5,1.5c-0.9,0-1.9-0.2-2.9-0.5
		c-1-0.4-1.9-1-2.8-1.8c-1.5-1.6-2.2-3.5-2.2-5.5c0-1.1,0.3-2.2,0.8-3.4c0.5-1.1,1.4-2.1,2.6-3c1.2-0.9,2.8-1.4,4.5-1.4
		c1.6,0,3.1,0.5,4.6,1.4h0.1C1115.5,476.4,1116.5,478.5,1116.5,481"/>
	<g>
		<path d="M376.5,735c0-12.6-0.2-19.7-0.6-26.1h21.4l0.8,15.3h0.6c4.1-12.3,14.6-17.1,22.7-17.1c2.2,0,3.3,0,5.4,0.5v23.1
			c-2-0.5-4.2-0.8-7.2-0.8c-10.2,0-16.2,5.2-17.6,12.6c-0.3,1.4-0.3,3-0.3,4.6v38.9h-25V735z"/>
		<path d="M483.8,787.7c-23.8,0-43.3-14.9-43.3-39.6c0-23.9,17-41.1,45-41.1c25.3,0,42.6,16.5,42.6,39.5c0,26.7-20.6,41.2-44.2,41.2
			H483.8z M484.6,770.1c10.2,0,17.5-8.2,17.5-22.8c0-11.6-5.2-22.7-17.5-22.7c-12.7,0-17.9,11.2-17.9,22.8
			c0,13.1,6.8,22.7,17.8,22.7H484.6z"/>
		<path d="M611.6,783.6c-5,2.4-14.2,4.1-24.2,4.1c-26.7,0-43.6-15.7-43.6-39.6c0-22,15.9-41.1,46.9-41.1c6.8,0,14.6,1.1,20.6,3.3
			l-4.1,18.4c-3.3-1.6-8-2.8-15.3-2.8c-13.5,0-22.5,8.8-22.3,21.1c0,14.3,10.7,21.4,23,21.4c6.6,0,11.6-1.1,15.7-2.8L611.6,783.6z"
			/>
		<path d="M356.9,783.6c-5,2.4-14.2,4.1-24.2,4.1c-26.7,0-43.6-15.7-43.6-39.6c0-22,15.9-41.1,46.9-41.1c6.8,0,14.6,1.1,20.6,3.3
			l-4.1,18.4c-3.3-1.6-8-2.8-15.3-2.8c-13.5,0-22.5,8.8-22.3,21.1c0,14.3,10.7,21.4,23,21.4c6.6,0,11.6-1.1,15.7-2.8L356.9,783.6z"
			/>
		<path d="M669.6,787.7c-23.8,0-43.3-14.9-43.3-39.6c0-23.9,17-41.1,45-41.1c25.3,0,42.6,16.5,42.6,39.5c0,26.7-20.6,41.2-44.2,41.2
			H669.6z M670.4,770.1c10.2,0,17.5-8.2,17.5-22.8c0-11.6-5.2-22.7-17.5-22.7c-12.7,0-17.9,11.2-17.9,22.8
			c0,13.1,6.8,22.7,17.8,22.7H670.4z"/>
		<path d="M815.3,673.2v89.5c0,9.3,0.3,18.6,0.6,23.1h-22.3l-1.1-12.1h-0.3c-5.5,9.6-15.9,14-26.7,14c-18.7,0-35.9-14.8-35.9-39.5
			c-0.2-25.5,17.6-41.2,37.7-41.2c10.4,0,18.7,3.5,22.7,9h0.3v-42.8H815.3z M790.3,742.6c0-1.3,0-3-0.3-4.2
			c-1.6-6.9-7.7-12.6-16-12.6c-12.3,0-18.7,9.4-18.7,21.4c0,12.4,7.2,20.8,18.6,20.8c8.2,0,14.6-5.8,16-13.1
			c0.5-1.7,0.5-3.6,0.5-5.5V742.6z"/>
		<path d="M853.5,699.3c-8.2,0-13.2-5.5-13.2-12.1c0-6.9,5-12.3,13.4-12.3c8.3,0,13.2,5.3,13.4,12.3c0,6.6-5,12.1-13.4,12.1H853.5z
			 M841.1,708.9h25v76.9h-25V708.9z"/>
		<rect x="891.8" y="673.2" width="25" height="112.6"/>
		<path d="M961.4,755.2c0.8,9.3,11.6,14,23.4,14c8.8,0,16-0.9,23.4-3.5l3.3,16.7c-8.8,3.6-18.9,5.3-30.2,5.3
			c-27.7,0-43.9-15.7-43.9-39.6c0-17.3,11.8-41.1,41.5-41.1c27.8,0,37.1,21.5,37.1,39.2c0,3.6-0.5,7.4-0.9,9H961.4z M992.7,738.2
			c0-4.4-2.5-14.9-14.9-14.9c-11.3,0-15.9,9-16.7,14.9H992.7z"/>
	</g>
	<g>
		<path d="M634.4,233c0-8.6,0-16.8,0-25c0-1.2-0.1-2.7-0.7-3.4c-7.3-8.2-2.1-15.7,1.4-22.9c3.8-7.7,10.4-8.8,17.5-7.5
			c7.7,1.4,11.4,5.8,11.6,14.6c0.2,12.7,0.1,25.4,0.1,38c0.7,0.2,1.4,0.3,2.1,0.5c8.6-8.3,17.1-16.7,25.9-24.7
			c12.4-11.2,24-23.7,40.7-27.4c21.2-4.7,33.4,4.1,37.5,27.6c1.9,10.9,3.5,21.8,6.4,32.4c3.1,11.4,8.6,14.3,19,10.4
			c9.8-3.7,19.3-8.5,29.1-12.4c6.3-2.5,12.7-4.9,19.3-6.1c10.1-1.9,15.8,3.4,17.2,14.4c1.2,9.8-4,16-13.2,18.8
			c-12.3,3.7-24.3,8.3-36.2,13.5c-10.7,4.6-21.4,8.2-32.9,6.1c-16.2-3-26.2-14.6-31.2-31.2c-3.1-10.4-4.7-21.5-6.8-32.3
			c-1.3-6.8-3.2-8.7-8.9-5.8c-4.8,2.4-9.2,6.3-13.2,10.1c-15,14.5-30,29.1-44.7,44.1c-3.7,3.8-6.1,9.3-9.1,14
			c-5.9,9.4-18.2,11.2-25.4,3.2c-2.2-2.5-3.5-6.5-4.2-10.1c-0.7-3.4-0.2-7.2-0.2-12.6c-15.2,5.5-29.6,10.9-44.1,15.8
			c-12,4-24,7.9-36.2,11.1c-26.2,6.8-37.1-14-40.5-33.5c-2.7-15.5-0.4-30.7,1.7-46c0.9-6.3,1.8-12.7,2-19
			c0.5-14.6,14.1-27.6,26-24.6c9.9,2.5,13.6,10.9,9.4,21.2c-7.3,17.8-11.6,36.3-9.4,56.1c1.3,11.5,5.4,15.3,15.4,11.7
			c14.8-5.2,29.4-11.6,44-17.5C613.5,230.6,623.6,226.9,634.4,233z"/>
		<path d="M349.3,98.4c-6.8-1.4-15.3-2.9-23.6-5.2c-7.6-2-15.3-4-22.3-7.5c-4.2-2.1-8.3-6.5-10.4-11.1c-4.4-9.9,2.1-19.2,11.9-20.3
			c14.2-1.5,26.4,6,39.7,8.7c32.6,6.8,65,14.2,97.5,21.6c12.8,3,24.9,8.2,35.3,17.4c19,16.9,19.7,41,1.4,58.8
			c-5.2,5-11.1,9.4-17.2,12.8c-23.7,13-47.6,25.5-71.5,38.1c-5.1,2.7-10.6,4.9-16.1,0.9c-5.3-3.8-8-9.3-8-16.4
			c0-7.1,4-10.8,9.2-13.6c22.9-12.2,45.8-24.3,68.6-36.6c3.5-1.9,7-4,9.9-6.8c4.8-4.6,4.6-10-0.8-13.8c-4.3-3-9.2-5.6-14.2-6.9
			c-23-5.8-46.1-11-69.2-16.5c-0.6-0.1-1.3,0.1-2.8,0.3c7.7,6.2,6.6,14,5.2,22.4c-7.9,46.4-11.5,93.2-8.2,140.4
			c0.6,8.6,2,17.2,3.3,25.8c1.7,10.9-1.6,17.6-10.4,19.9c-9.6,2.5-17.1-2.1-19.2-12.7c-6.4-31.9-6.7-64.3-4.3-96.5
			c2.1-29.3,6-58.4,9.8-87.5C343.4,108.8,346.9,103.9,349.3,98.4z"/>
		<path d="M902.9,162c15.8-4.4,30.8-9.8,46.3-12.5c13.6-2.4,27.6-2.3,41.4-2.1c8.9,0.2,14.1,8.4,13,17.8c-1.2,10.6-7,15.8-16.5,14.8
			c-26-2.9-50.2,5-73.8,15.8c-6,2.7-6.2,5.3-1.2,9.6c28.5,24.3,58.2,46.2,93.6,56.2c7.8,2.2,11.8,9.8,10.1,18.2
			c-2,9.9-9.5,16.2-17.5,14.1c-25.3-6.9-48.3-19.9-70.3-34.9c-11.2-7.7-21.8-16.6-33.8-25.9c0,8,0.1,15.5-0.1,23
			c-0.1,4.3-0.2,8.8-1.3,12.8c-1.8,6.7-8.5,10.6-15.1,9.7c-7.3-1-11.7-5.6-12.2-13.4c-2.3-33.9,0-67.4,6.1-100.7
			c4.6-25.4,10.9-50.1,22.2-72.9c3.8-7.8,8.5-15.1,13.4-22.1c5.7-8.1,14.7-9,22-3.3c6.4,5,7.6,13.7,2.3,22.6
			C918.3,111.3,908.9,135.7,902.9,162z"/>
		<path d="M565.1,83.2c12.4,0.1,21.8,10.3,21.6,23.5c-0.2,13.3-9.9,24.5-21.2,24.5c-13.3-0.1-22.7-10.2-22.6-24.1
			C543,93.5,552.7,83.1,565.1,83.2z"/>
	</g>
</g>
</svg>
