<svg id="banner1" width="353" height="61" viewBox="0 0 353 61" fill="none" xmlns="http://www.w3.org/2000/svg">
                            <g filter="url(#filter0_d)">
                            <mask id="path-1-outside-1" maskUnits="userSpaceOnUse" x="4.64343" y="0.479492" width="344" height="52" fill="black">
                            <rect fill="white" x="4.64343" y="0.479492" width="344" height="52"/>
                            <path d="M20.5341 3.55273C23.0731 3.55273 25.3111 4.1875 27.2479 5.45703C29.201 6.72656 30.6333 8.3623 31.5448 10.3643C31.5936 10.4619 31.618 10.584 31.618 10.7305C31.618 10.9583 31.5285 11.1618 31.3495 11.3408C31.1867 11.5036 30.9914 11.585 30.7635 11.585C30.3892 11.585 30.1288 11.4141 29.9823 11.0723C29.1848 9.33073 27.9641 7.93099 26.3202 6.87305C24.6926 5.79883 22.7639 5.26172 20.5341 5.26172C19.2971 5.26172 18.0438 5.42448 16.7743 5.75C15.521 6.07552 14.3654 6.5638 13.3075 7.21484C12.2658 7.84961 11.4195 8.65527 10.7684 9.63184C10.1337 10.6084 9.81628 11.7477 9.81628 13.0498C9.81628 14.2868 10.1499 15.3122 10.8173 16.126C11.4846 16.9235 12.2414 17.5339 13.0878 17.957C14.1783 18.4941 15.342 18.8604 16.579 19.0557C17.8322 19.251 19.118 19.3975 20.4364 19.4951C21.7548 19.5765 23.0568 19.7067 24.3427 19.8857C25.6285 20.0648 26.8492 20.3903 28.0048 20.8623C29.258 21.3669 30.3566 22.1807 31.3007 23.3037C32.2447 24.4268 32.7167 25.8753 32.7167 27.6494C32.7167 29.7979 32.1389 31.5964 30.9833 33.0449C29.8277 34.4772 28.3221 35.5596 26.4667 36.292C24.6112 37.0081 22.6337 37.3662 20.5341 37.3662C17.5393 37.3662 14.9188 36.6989 12.6727 35.3643C10.4266 34.0296 8.77462 32.1742 7.71667 29.7979C7.66785 29.7002 7.64343 29.5863 7.64343 29.4561C7.64343 29.2282 7.72481 29.0329 7.88757 28.8701C8.06661 28.6911 8.27006 28.6016 8.49792 28.6016C8.87227 28.6016 9.13269 28.7725 9.27917 29.1143C10.1906 31.2139 11.6148 32.8333 13.5516 33.9727C15.5048 35.0957 17.8322 35.6572 20.5341 35.6572C22.3244 35.6572 24.0171 35.3643 25.6122 34.7783C27.2072 34.1924 28.5012 33.3135 29.494 32.1416C30.5031 30.9535 31.0077 29.4561 31.0077 27.6494C31.0077 26.266 30.6415 25.1592 29.9091 24.3291C29.1766 23.4827 28.3221 22.8561 27.3456 22.4492C26.1737 21.9609 24.9449 21.6354 23.6591 21.4727C22.3895 21.2936 21.0956 21.1634 19.7772 21.082C18.4589 20.9844 17.1649 20.8379 15.8954 20.6426C14.6421 20.431 13.454 20.0485 12.3309 19.4951C11.2404 18.958 10.2639 18.1605 9.40125 17.1025C8.53861 16.0283 8.1073 14.6774 8.1073 13.0498C8.1073 11.471 8.46537 10.0876 9.18152 8.89941C9.91394 7.71126 10.8824 6.72656 12.0868 5.94531C13.3075 5.14779 14.6503 4.55371 16.1151 4.16309C17.58 3.75618 19.0529 3.55273 20.5341 3.55273Z"/>
                            <path d="M71.9745 12.2197C72.593 12.2197 72.9022 12.529 72.9022 13.1475L72.829 36.4141H72.8534C72.8534 36.6745 72.7639 36.8942 72.5848 37.0732C72.4058 37.2523 72.1861 37.3418 71.9257 37.3418C71.6652 37.3418 71.4455 37.2523 71.2665 37.0732C71.0874 36.8942 70.9979 36.6745 70.9979 36.4141V36.3896L71.0223 31.2871C70.0783 32.9473 68.7193 34.3633 66.9452 35.5352C65.1874 36.6908 63.2587 37.2686 61.1591 37.2686C59.5315 37.2686 58.0178 36.9349 56.618 36.2676C55.2183 35.584 53.9976 34.6562 52.9559 33.4844C51.9143 32.3125 51.1005 30.9779 50.5145 29.4805C49.9286 27.9831 49.6356 26.4206 49.6356 24.793C49.6356 23.1654 49.9205 21.6029 50.4901 20.1055C51.076 18.5918 51.8899 17.249 52.9315 16.0771C53.9895 14.889 55.2264 13.9531 56.6425 13.2695C58.0585 12.5859 59.6047 12.2441 61.2811 12.2441C62.7622 12.2441 64.1213 12.5941 65.3583 13.2939C66.6115 13.9775 67.7183 14.8483 68.6786 15.9062C69.6552 16.9642 70.4445 18.0465 71.0468 19.1533L71.0712 13.1475C71.0712 12.529 71.3723 12.2197 71.9745 12.2197ZM70.8759 24.7197C70.8759 22.848 70.4608 21.1064 69.6307 19.4951C68.8169 17.8838 67.6858 16.5817 66.2372 15.5889C64.8049 14.5798 63.161 14.0752 61.3055 14.0752C59.4338 14.0752 57.7492 14.5798 56.2518 15.5889C54.7707 16.598 53.5988 17.9245 52.7362 19.5684C51.8899 21.196 51.4667 22.9375 51.4667 24.793C51.4667 26.6484 51.8899 28.39 52.7362 30.0176C53.5826 31.6289 54.7382 32.9391 56.203 33.9482C57.6678 34.9411 59.3199 35.4375 61.1591 35.4375C63.0145 35.4375 64.6747 34.9329 66.1395 33.9238C67.6044 32.9147 68.76 31.5964 69.6063 29.9688C70.4527 28.3411 70.8759 26.5915 70.8759 24.7197Z"/>
                            <path d="M91.286 12.9766C91.286 12.7487 91.3674 12.5534 91.5302 12.3906C91.7092 12.2116 91.9126 12.1221 92.1405 12.1221C92.3684 12.1221 92.5637 12.2116 92.7264 12.3906C92.9055 12.5534 92.995 12.7487 92.995 12.9766V19.1045C93.3205 18.014 93.8658 16.9479 94.6307 15.9062C95.3957 14.8646 96.3641 14.0101 97.536 13.3428C98.7079 12.6592 100.067 12.3174 101.613 12.3174C103.876 12.3174 105.65 12.9928 106.935 14.3438C108.221 15.6947 108.848 17.4362 108.815 19.5684C109.125 18.3314 109.645 17.1595 110.378 16.0527C111.127 14.9297 112.095 14.0182 113.283 13.3184C114.488 12.6185 115.928 12.2767 117.604 12.293C118.955 12.3092 120.086 12.6429 120.998 13.2939C121.926 13.9287 122.666 14.7832 123.22 15.8574C123.773 16.9316 124.172 18.1198 124.416 19.4219C124.66 20.7077 124.782 22.0016 124.782 23.3037L124.807 36.4385C124.807 36.6663 124.717 36.8617 124.538 37.0244C124.375 37.2035 124.18 37.293 123.952 37.293C123.724 37.293 123.521 37.2035 123.342 37.0244C123.179 36.8617 123.098 36.6663 123.098 36.4385L123.073 23.3037C123.073 21.8551 122.918 20.4147 122.609 18.9824C122.316 17.5501 121.771 16.362 120.974 15.418C120.192 14.474 119.069 14.002 117.604 14.002C115.619 14.002 113.983 14.5553 112.697 15.6621C111.411 16.7689 110.459 18.2419 109.841 20.0811C109.222 21.904 108.913 23.9141 108.913 26.1113V36.3652C108.913 36.5931 108.823 36.7965 108.644 36.9756C108.482 37.1383 108.286 37.2197 108.058 37.2197C107.831 37.2197 107.627 37.1383 107.448 36.9756C107.285 36.7965 107.204 36.5931 107.204 36.3652V22.7422C107.204 21.2611 107.041 19.8613 106.716 18.543C106.406 17.2083 105.845 16.126 105.031 15.2959C104.234 14.4495 103.094 14.0264 101.613 14.0264C99.5949 14.0264 97.951 14.5635 96.6815 15.6377C95.412 16.7119 94.4843 18.1442 93.8983 19.9346C93.3124 21.7249 93.0194 23.7025 93.0194 25.8672L93.0438 36.4141C93.0438 36.6419 92.9543 36.8372 92.7753 37C92.6125 37.179 92.4172 37.2686 92.1893 37.2686C91.9615 37.2686 91.758 37.179 91.579 37C91.4162 36.8372 91.3348 36.6419 91.3348 36.4141L91.286 13.001V12.9766Z"/>
                            <path d="M182.326 4.38281C182.326 4.13867 182.416 3.92708 182.595 3.74805C182.774 3.56901 182.993 3.47949 183.254 3.47949C183.856 3.47949 184.157 3.7806 184.157 4.38281L184.426 22.4248C184.426 24.3291 184.279 26.1683 183.986 27.9424C183.693 29.7165 183.181 31.3115 182.448 32.7275C181.732 34.1273 180.739 35.2422 179.47 36.0723C178.2 36.8861 176.589 37.293 174.636 37.293C172.992 37.293 171.559 36.8942 170.339 36.0967C169.118 35.2992 168.182 34.3551 167.531 33.2646C166.799 31.9951 166.432 30.6442 166.432 29.2119C166.432 28.9515 166.522 28.7318 166.701 28.5527C166.88 28.3737 167.1 28.2842 167.36 28.2842C167.621 28.2842 167.832 28.3737 167.995 28.5527C168.174 28.7318 168.264 28.9515 168.264 29.2119C168.264 30.335 168.548 31.3766 169.118 32.3369C169.688 33.2809 170.453 34.0459 171.413 34.6318C172.373 35.2015 173.431 35.4863 174.587 35.4863C176.231 35.4863 177.573 35.1201 178.615 34.3877C179.657 33.6553 180.462 32.6706 181.032 31.4336C181.618 30.1966 182.025 28.805 182.253 27.2588C182.481 25.6963 182.595 24.0931 182.595 22.4492L182.326 4.40723V4.38281Z"/>
                            <path d="M223.537 36.292V36.3164C223.537 36.6094 223.439 36.8291 223.244 36.9756C223.049 37.1221 222.837 37.1953 222.609 37.1953C222.381 37.1953 222.17 37.1221 221.974 36.9756C221.795 36.8291 221.706 36.6094 221.706 36.3164V30.75C220.746 32.638 219.476 34.1924 217.897 35.4131C216.319 36.6338 214.52 37.2441 212.502 37.2441C210.256 37.2441 208.417 36.7152 206.984 35.6572C205.552 34.5993 204.494 33.1751 203.81 31.3848C203.143 29.5781 202.809 27.568 202.809 25.3545V13.1475C202.809 12.8545 202.899 12.6348 203.078 12.4883C203.273 12.3418 203.485 12.2686 203.713 12.2686C203.941 12.2686 204.152 12.3418 204.348 12.4883C204.543 12.6348 204.641 12.8545 204.641 13.1475V25.3545C204.641 27.2262 204.901 28.9189 205.422 30.4326C205.943 31.9463 206.765 33.1507 207.888 34.0459C209.027 34.9411 210.524 35.3887 212.38 35.3887C214.089 35.3887 215.651 34.9004 217.067 33.9238C218.483 32.931 219.606 31.6777 220.436 30.1641C221.283 28.6341 221.706 27.0472 221.706 25.4033L221.657 13.0986C221.657 12.8057 221.755 12.5859 221.95 12.4395C222.145 12.2767 222.357 12.1953 222.585 12.1953C222.813 12.1953 223.016 12.2767 223.195 12.4395C223.391 12.5859 223.488 12.8057 223.488 13.0986L223.537 36.292Z"/>
                            <path d="M252.224 12.3418C253.623 12.3418 254.95 12.651 256.203 13.2695C257.473 13.8717 258.579 14.6611 259.523 15.6377C260.467 16.6143 261.143 17.6641 261.55 18.7871V4.40723C261.55 3.80501 261.851 3.50391 262.453 3.50391C262.713 3.50391 262.933 3.59342 263.112 3.77246C263.291 3.93522 263.381 4.14681 263.381 4.40723V36.4141C263.381 36.6745 263.291 36.8861 263.112 37.0488C262.933 37.2279 262.713 37.3174 262.453 37.3174C261.851 37.3174 261.55 37.0163 261.55 36.4141V30.9697C261.061 32.0439 260.353 33.0693 259.426 34.0459C258.514 35.0225 257.424 35.82 256.154 36.4385C254.901 37.0407 253.509 37.3418 251.979 37.3418C249.782 37.3418 247.853 36.7721 246.193 35.6328C244.533 34.4772 243.239 32.9635 242.311 31.0918C241.4 29.2201 240.944 27.1937 240.944 25.0127C240.944 22.8154 241.424 20.7565 242.385 18.8359C243.345 16.8991 244.671 15.3366 246.364 14.1484C248.073 12.944 250.026 12.3418 252.224 12.3418ZM242.775 24.9883C242.775 26.8438 243.158 28.5771 243.923 30.1885C244.688 31.7835 245.762 33.0693 247.145 34.0459C248.545 35.0225 250.165 35.5107 252.004 35.5107C253.973 35.5107 255.666 35.0062 257.082 33.9971C258.514 32.9717 259.613 31.637 260.378 29.9932C261.159 28.3493 261.55 26.5996 261.55 24.7441C261.55 22.8887 261.151 21.1634 260.353 19.5684C259.556 17.957 258.457 16.6549 257.057 15.6621C255.658 14.6693 254.046 14.1729 252.224 14.1729C250.384 14.1729 248.749 14.6855 247.316 15.7109C245.9 16.7363 244.785 18.0791 243.972 19.7393C243.174 21.3831 242.775 23.1328 242.775 24.9883Z"/>
                            <path d="M292.946 12.2441C294.444 12.2441 295.884 12.5778 297.267 13.2451C298.667 13.8962 299.88 14.7425 300.905 15.7842C301.931 16.8096 302.655 17.9001 303.078 19.0557L303.127 13.0986C303.127 12.8382 303.208 12.6185 303.371 12.4395C303.55 12.2604 303.77 12.1709 304.03 12.1709C304.649 12.1709 304.958 12.4883 304.958 13.123L304.763 37.1221C304.746 38.7985 304.388 40.3773 303.688 41.8584C302.988 43.3395 302.028 44.6497 300.807 45.7891C299.603 46.9284 298.22 47.8236 296.657 48.4746C295.095 49.1257 293.434 49.4512 291.677 49.4512C289.707 49.4512 287.811 49.0117 285.988 48.1328C284.165 47.2539 282.635 46.0413 281.398 44.4951C281.252 44.3161 281.179 44.1208 281.179 43.9092C281.179 43.6488 281.268 43.429 281.447 43.25C281.626 43.0872 281.846 43.0059 282.106 43.0059C282.432 43.0059 282.676 43.1198 282.839 43.3477C283.897 44.666 285.215 45.7077 286.794 46.4727C288.373 47.2376 290 47.6201 291.677 47.6201C293.695 47.6201 295.55 47.1318 297.243 46.1553C298.952 45.1787 300.319 43.8848 301.345 42.2734C302.386 40.6784 302.915 38.9287 302.932 37.0244L302.98 31.5801C302.036 33.2565 300.653 34.6807 298.83 35.8525C297.023 37.0244 295.046 37.6104 292.897 37.6104C290.668 37.6104 288.657 37.0244 286.867 35.8525C285.093 34.6644 283.685 33.11 282.643 31.1895C281.602 29.2526 281.081 27.1693 281.081 24.9395C281.081 23.263 281.382 21.668 281.984 20.1543C282.586 18.6243 283.425 17.2653 284.499 16.0771C285.573 14.889 286.826 13.9531 288.259 13.2695C289.707 12.5859 291.27 12.2441 292.946 12.2441ZM302.883 24.915C302.883 23.0107 302.451 21.2367 301.589 19.5928C300.726 17.9489 299.546 16.6224 298.049 15.6133C296.551 14.5879 294.859 14.0752 292.971 14.0752C291.066 14.0752 289.357 14.5879 287.844 15.6133C286.33 16.6224 285.126 17.957 284.23 19.6172C283.351 21.2611 282.912 23.0352 282.912 24.9395C282.912 26.8438 283.351 28.6178 284.23 30.2617C285.109 31.9056 286.297 33.2402 287.795 34.2656C289.308 35.2747 291.009 35.7793 292.897 35.7793C294.785 35.7793 296.478 35.2747 297.975 34.2656C299.489 33.2402 300.685 31.9056 301.564 30.2617C302.443 28.6016 302.883 26.8193 302.883 24.915Z"/>
                            <path d="M334.67 37.5127C332.31 37.5127 330.169 36.9268 328.249 35.7549C326.345 34.5667 324.823 32.988 323.683 31.0186C322.56 29.0492 321.999 26.8926 321.999 24.5488C321.999 22.319 322.528 20.2601 323.586 18.3721C324.66 16.4678 326.1 14.9378 327.907 13.7822C329.73 12.6104 331.765 12.0244 334.011 12.0244C336.078 12.0244 337.974 12.5371 339.699 13.5625C341.424 14.5879 342.8 15.9632 343.825 17.6885C344.867 19.3975 345.388 21.3099 345.388 23.4258C345.388 23.8815 345.347 24.3128 345.266 24.7197C345.184 25.1266 344.907 25.3301 344.435 25.3301L323.854 25.3545C324.001 27.21 324.554 28.9189 325.515 30.4814C326.491 32.0439 327.769 33.3053 329.348 34.2656C330.926 35.2096 332.692 35.6816 334.645 35.6816C336.208 35.6816 337.722 35.3398 339.186 34.6562C340.668 33.9564 341.905 33.0042 342.897 31.7998C343.076 31.5719 343.321 31.458 343.63 31.458C343.89 31.458 344.102 31.5475 344.265 31.7266C344.444 31.9056 344.533 32.1253 344.533 32.3857C344.533 32.5973 344.46 32.7926 344.313 32.9717C343.141 34.404 341.701 35.5189 339.992 36.3164C338.283 37.1139 336.509 37.5127 334.67 37.5127ZM343.557 23.4502C343.557 21.6761 343.117 20.0648 342.238 18.6162C341.376 17.1676 340.22 16.012 338.771 15.1494C337.323 14.2868 335.728 13.8555 333.986 13.8555C332.163 13.8555 330.519 14.3031 329.055 15.1982C327.59 16.0934 326.402 17.2734 325.49 18.7383C324.579 20.2031 324.042 21.7982 323.879 23.5234L343.557 23.499V23.4502Z"/>
                            </mask>
                            <path d="M20.5341 3.55273C23.0731 3.55273 25.3111 4.1875 27.2479 5.45703C29.201 6.72656 30.6333 8.3623 31.5448 10.3643C31.5936 10.4619 31.618 10.584 31.618 10.7305C31.618 10.9583 31.5285 11.1618 31.3495 11.3408C31.1867 11.5036 30.9914 11.585 30.7635 11.585C30.3892 11.585 30.1288 11.4141 29.9823 11.0723C29.1848 9.33073 27.9641 7.93099 26.3202 6.87305C24.6926 5.79883 22.7639 5.26172 20.5341 5.26172C19.2971 5.26172 18.0438 5.42448 16.7743 5.75C15.521 6.07552 14.3654 6.5638 13.3075 7.21484C12.2658 7.84961 11.4195 8.65527 10.7684 9.63184C10.1337 10.6084 9.81628 11.7477 9.81628 13.0498C9.81628 14.2868 10.1499 15.3122 10.8173 16.126C11.4846 16.9235 12.2414 17.5339 13.0878 17.957C14.1783 18.4941 15.342 18.8604 16.579 19.0557C17.8322 19.251 19.118 19.3975 20.4364 19.4951C21.7548 19.5765 23.0568 19.7067 24.3427 19.8857C25.6285 20.0648 26.8492 20.3903 28.0048 20.8623C29.258 21.3669 30.3566 22.1807 31.3007 23.3037C32.2447 24.4268 32.7167 25.8753 32.7167 27.6494C32.7167 29.7979 32.1389 31.5964 30.9833 33.0449C29.8277 34.4772 28.3221 35.5596 26.4667 36.292C24.6112 37.0081 22.6337 37.3662 20.5341 37.3662C17.5393 37.3662 14.9188 36.6989 12.6727 35.3643C10.4266 34.0296 8.77462 32.1742 7.71667 29.7979C7.66785 29.7002 7.64343 29.5863 7.64343 29.4561C7.64343 29.2282 7.72481 29.0329 7.88757 28.8701C8.06661 28.6911 8.27006 28.6016 8.49792 28.6016C8.87227 28.6016 9.13269 28.7725 9.27917 29.1143C10.1906 31.2139 11.6148 32.8333 13.5516 33.9727C15.5048 35.0957 17.8322 35.6572 20.5341 35.6572C22.3244 35.6572 24.0171 35.3643 25.6122 34.7783C27.2072 34.1924 28.5012 33.3135 29.494 32.1416C30.5031 30.9535 31.0077 29.4561 31.0077 27.6494C31.0077 26.266 30.6415 25.1592 29.9091 24.3291C29.1766 23.4827 28.3221 22.8561 27.3456 22.4492C26.1737 21.9609 24.9449 21.6354 23.6591 21.4727C22.3895 21.2936 21.0956 21.1634 19.7772 21.082C18.4589 20.9844 17.1649 20.8379 15.8954 20.6426C14.6421 20.431 13.454 20.0485 12.3309 19.4951C11.2404 18.958 10.2639 18.1605 9.40125 17.1025C8.53861 16.0283 8.1073 14.6774 8.1073 13.0498C8.1073 11.471 8.46537 10.0876 9.18152 8.89941C9.91394 7.71126 10.8824 6.72656 12.0868 5.94531C13.3075 5.14779 14.6503 4.55371 16.1151 4.16309C17.58 3.75618 19.0529 3.55273 20.5341 3.55273Z" stroke="#E5E5E5" stroke-width="6" mask="url(#path-1-outside-1)"/>
                            <path d="M71.9745 12.2197C72.593 12.2197 72.9022 12.529 72.9022 13.1475L72.829 36.4141H72.8534C72.8534 36.6745 72.7639 36.8942 72.5848 37.0732C72.4058 37.2523 72.1861 37.3418 71.9257 37.3418C71.6652 37.3418 71.4455 37.2523 71.2665 37.0732C71.0874 36.8942 70.9979 36.6745 70.9979 36.4141V36.3896L71.0223 31.2871C70.0783 32.9473 68.7193 34.3633 66.9452 35.5352C65.1874 36.6908 63.2587 37.2686 61.1591 37.2686C59.5315 37.2686 58.0178 36.9349 56.618 36.2676C55.2183 35.584 53.9976 34.6562 52.9559 33.4844C51.9143 32.3125 51.1005 30.9779 50.5145 29.4805C49.9286 27.9831 49.6356 26.4206 49.6356 24.793C49.6356 23.1654 49.9205 21.6029 50.4901 20.1055C51.076 18.5918 51.8899 17.249 52.9315 16.0771C53.9895 14.889 55.2264 13.9531 56.6425 13.2695C58.0585 12.5859 59.6047 12.2441 61.2811 12.2441C62.7622 12.2441 64.1213 12.5941 65.3583 13.2939C66.6115 13.9775 67.7183 14.8483 68.6786 15.9062C69.6552 16.9642 70.4445 18.0465 71.0468 19.1533L71.0712 13.1475C71.0712 12.529 71.3723 12.2197 71.9745 12.2197ZM70.8759 24.7197C70.8759 22.848 70.4608 21.1064 69.6307 19.4951C68.8169 17.8838 67.6858 16.5817 66.2372 15.5889C64.8049 14.5798 63.161 14.0752 61.3055 14.0752C59.4338 14.0752 57.7492 14.5798 56.2518 15.5889C54.7707 16.598 53.5988 17.9245 52.7362 19.5684C51.8899 21.196 51.4667 22.9375 51.4667 24.793C51.4667 26.6484 51.8899 28.39 52.7362 30.0176C53.5826 31.6289 54.7382 32.9391 56.203 33.9482C57.6678 34.9411 59.3199 35.4375 61.1591 35.4375C63.0145 35.4375 64.6747 34.9329 66.1395 33.9238C67.6044 32.9147 68.76 31.5964 69.6063 29.9688C70.4527 28.3411 70.8759 26.5915 70.8759 24.7197Z" stroke="#E5E5E5" stroke-width="6" mask="url(#path-1-outside-1)"/>
                            <path d="M91.286 12.9766C91.286 12.7487 91.3674 12.5534 91.5302 12.3906C91.7092 12.2116 91.9126 12.1221 92.1405 12.1221C92.3684 12.1221 92.5637 12.2116 92.7264 12.3906C92.9055 12.5534 92.995 12.7487 92.995 12.9766V19.1045C93.3205 18.014 93.8658 16.9479 94.6307 15.9062C95.3957 14.8646 96.3641 14.0101 97.536 13.3428C98.7079 12.6592 100.067 12.3174 101.613 12.3174C103.876 12.3174 105.65 12.9928 106.935 14.3438C108.221 15.6947 108.848 17.4362 108.815 19.5684C109.125 18.3314 109.645 17.1595 110.378 16.0527C111.127 14.9297 112.095 14.0182 113.283 13.3184C114.488 12.6185 115.928 12.2767 117.604 12.293C118.955 12.3092 120.086 12.6429 120.998 13.2939C121.926 13.9287 122.666 14.7832 123.22 15.8574C123.773 16.9316 124.172 18.1198 124.416 19.4219C124.66 20.7077 124.782 22.0016 124.782 23.3037L124.807 36.4385C124.807 36.6663 124.717 36.8617 124.538 37.0244C124.375 37.2035 124.18 37.293 123.952 37.293C123.724 37.293 123.521 37.2035 123.342 37.0244C123.179 36.8617 123.098 36.6663 123.098 36.4385L123.073 23.3037C123.073 21.8551 122.918 20.4147 122.609 18.9824C122.316 17.5501 121.771 16.362 120.974 15.418C120.192 14.474 119.069 14.002 117.604 14.002C115.619 14.002 113.983 14.5553 112.697 15.6621C111.411 16.7689 110.459 18.2419 109.841 20.0811C109.222 21.904 108.913 23.9141 108.913 26.1113V36.3652C108.913 36.5931 108.823 36.7965 108.644 36.9756C108.482 37.1383 108.286 37.2197 108.058 37.2197C107.831 37.2197 107.627 37.1383 107.448 36.9756C107.285 36.7965 107.204 36.5931 107.204 36.3652V22.7422C107.204 21.2611 107.041 19.8613 106.716 18.543C106.406 17.2083 105.845 16.126 105.031 15.2959C104.234 14.4495 103.094 14.0264 101.613 14.0264C99.5949 14.0264 97.951 14.5635 96.6815 15.6377C95.412 16.7119 94.4843 18.1442 93.8983 19.9346C93.3124 21.7249 93.0194 23.7025 93.0194 25.8672L93.0438 36.4141C93.0438 36.6419 92.9543 36.8372 92.7753 37C92.6125 37.179 92.4172 37.2686 92.1893 37.2686C91.9615 37.2686 91.758 37.179 91.579 37C91.4162 36.8372 91.3348 36.6419 91.3348 36.4141L91.286 13.001V12.9766Z" stroke="#E5E5E5" stroke-width="6" mask="url(#path-1-outside-1)"/>
                            <path d="M182.326 4.38281C182.326 4.13867 182.416 3.92708 182.595 3.74805C182.774 3.56901 182.993 3.47949 183.254 3.47949C183.856 3.47949 184.157 3.7806 184.157 4.38281L184.426 22.4248C184.426 24.3291 184.279 26.1683 183.986 27.9424C183.693 29.7165 183.181 31.3115 182.448 32.7275C181.732 34.1273 180.739 35.2422 179.47 36.0723C178.2 36.8861 176.589 37.293 174.636 37.293C172.992 37.293 171.559 36.8942 170.339 36.0967C169.118 35.2992 168.182 34.3551 167.531 33.2646C166.799 31.9951 166.432 30.6442 166.432 29.2119C166.432 28.9515 166.522 28.7318 166.701 28.5527C166.88 28.3737 167.1 28.2842 167.36 28.2842C167.621 28.2842 167.832 28.3737 167.995 28.5527C168.174 28.7318 168.264 28.9515 168.264 29.2119C168.264 30.335 168.548 31.3766 169.118 32.3369C169.688 33.2809 170.453 34.0459 171.413 34.6318C172.373 35.2015 173.431 35.4863 174.587 35.4863C176.231 35.4863 177.573 35.1201 178.615 34.3877C179.657 33.6553 180.462 32.6706 181.032 31.4336C181.618 30.1966 182.025 28.805 182.253 27.2588C182.481 25.6963 182.595 24.0931 182.595 22.4492L182.326 4.40723V4.38281Z" stroke="#E5E5E5" stroke-width="6" mask="url(#path-1-outside-1)"/>
                            <path d="M223.537 36.292V36.3164C223.537 36.6094 223.439 36.8291 223.244 36.9756C223.049 37.1221 222.837 37.1953 222.609 37.1953C222.381 37.1953 222.17 37.1221 221.974 36.9756C221.795 36.8291 221.706 36.6094 221.706 36.3164V30.75C220.746 32.638 219.476 34.1924 217.897 35.4131C216.319 36.6338 214.52 37.2441 212.502 37.2441C210.256 37.2441 208.417 36.7152 206.984 35.6572C205.552 34.5993 204.494 33.1751 203.81 31.3848C203.143 29.5781 202.809 27.568 202.809 25.3545V13.1475C202.809 12.8545 202.899 12.6348 203.078 12.4883C203.273 12.3418 203.485 12.2686 203.713 12.2686C203.941 12.2686 204.152 12.3418 204.348 12.4883C204.543 12.6348 204.641 12.8545 204.641 13.1475V25.3545C204.641 27.2262 204.901 28.9189 205.422 30.4326C205.943 31.9463 206.765 33.1507 207.888 34.0459C209.027 34.9411 210.524 35.3887 212.38 35.3887C214.089 35.3887 215.651 34.9004 217.067 33.9238C218.483 32.931 219.606 31.6777 220.436 30.1641C221.283 28.6341 221.706 27.0472 221.706 25.4033L221.657 13.0986C221.657 12.8057 221.755 12.5859 221.95 12.4395C222.145 12.2767 222.357 12.1953 222.585 12.1953C222.813 12.1953 223.016 12.2767 223.195 12.4395C223.391 12.5859 223.488 12.8057 223.488 13.0986L223.537 36.292Z" stroke="#E5E5E5" stroke-width="6" mask="url(#path-1-outside-1)"/>
                            <path d="M252.224 12.3418C253.623 12.3418 254.95 12.651 256.203 13.2695C257.473 13.8717 258.579 14.6611 259.523 15.6377C260.467 16.6143 261.143 17.6641 261.55 18.7871V4.40723C261.55 3.80501 261.851 3.50391 262.453 3.50391C262.713 3.50391 262.933 3.59342 263.112 3.77246C263.291 3.93522 263.381 4.14681 263.381 4.40723V36.4141C263.381 36.6745 263.291 36.8861 263.112 37.0488C262.933 37.2279 262.713 37.3174 262.453 37.3174C261.851 37.3174 261.55 37.0163 261.55 36.4141V30.9697C261.061 32.0439 260.353 33.0693 259.426 34.0459C258.514 35.0225 257.424 35.82 256.154 36.4385C254.901 37.0407 253.509 37.3418 251.979 37.3418C249.782 37.3418 247.853 36.7721 246.193 35.6328C244.533 34.4772 243.239 32.9635 242.311 31.0918C241.4 29.2201 240.944 27.1937 240.944 25.0127C240.944 22.8154 241.424 20.7565 242.385 18.8359C243.345 16.8991 244.671 15.3366 246.364 14.1484C248.073 12.944 250.026 12.3418 252.224 12.3418ZM242.775 24.9883C242.775 26.8438 243.158 28.5771 243.923 30.1885C244.688 31.7835 245.762 33.0693 247.145 34.0459C248.545 35.0225 250.165 35.5107 252.004 35.5107C253.973 35.5107 255.666 35.0062 257.082 33.9971C258.514 32.9717 259.613 31.637 260.378 29.9932C261.159 28.3493 261.55 26.5996 261.55 24.7441C261.55 22.8887 261.151 21.1634 260.353 19.5684C259.556 17.957 258.457 16.6549 257.057 15.6621C255.658 14.6693 254.046 14.1729 252.224 14.1729C250.384 14.1729 248.749 14.6855 247.316 15.7109C245.9 16.7363 244.785 18.0791 243.972 19.7393C243.174 21.3831 242.775 23.1328 242.775 24.9883Z" stroke="#E5E5E5" stroke-width="6" mask="url(#path-1-outside-1)"/>
                            <path d="M292.946 12.2441C294.444 12.2441 295.884 12.5778 297.267 13.2451C298.667 13.8962 299.88 14.7425 300.905 15.7842C301.931 16.8096 302.655 17.9001 303.078 19.0557L303.127 13.0986C303.127 12.8382 303.208 12.6185 303.371 12.4395C303.55 12.2604 303.77 12.1709 304.03 12.1709C304.649 12.1709 304.958 12.4883 304.958 13.123L304.763 37.1221C304.746 38.7985 304.388 40.3773 303.688 41.8584C302.988 43.3395 302.028 44.6497 300.807 45.7891C299.603 46.9284 298.22 47.8236 296.657 48.4746C295.095 49.1257 293.434 49.4512 291.677 49.4512C289.707 49.4512 287.811 49.0117 285.988 48.1328C284.165 47.2539 282.635 46.0413 281.398 44.4951C281.252 44.3161 281.179 44.1208 281.179 43.9092C281.179 43.6488 281.268 43.429 281.447 43.25C281.626 43.0872 281.846 43.0059 282.106 43.0059C282.432 43.0059 282.676 43.1198 282.839 43.3477C283.897 44.666 285.215 45.7077 286.794 46.4727C288.373 47.2376 290 47.6201 291.677 47.6201C293.695 47.6201 295.55 47.1318 297.243 46.1553C298.952 45.1787 300.319 43.8848 301.345 42.2734C302.386 40.6784 302.915 38.9287 302.932 37.0244L302.98 31.5801C302.036 33.2565 300.653 34.6807 298.83 35.8525C297.023 37.0244 295.046 37.6104 292.897 37.6104C290.668 37.6104 288.657 37.0244 286.867 35.8525C285.093 34.6644 283.685 33.11 282.643 31.1895C281.602 29.2526 281.081 27.1693 281.081 24.9395C281.081 23.263 281.382 21.668 281.984 20.1543C282.586 18.6243 283.425 17.2653 284.499 16.0771C285.573 14.889 286.826 13.9531 288.259 13.2695C289.707 12.5859 291.27 12.2441 292.946 12.2441ZM302.883 24.915C302.883 23.0107 302.451 21.2367 301.589 19.5928C300.726 17.9489 299.546 16.6224 298.049 15.6133C296.551 14.5879 294.859 14.0752 292.971 14.0752C291.066 14.0752 289.357 14.5879 287.844 15.6133C286.33 16.6224 285.126 17.957 284.23 19.6172C283.351 21.2611 282.912 23.0352 282.912 24.9395C282.912 26.8438 283.351 28.6178 284.23 30.2617C285.109 31.9056 286.297 33.2402 287.795 34.2656C289.308 35.2747 291.009 35.7793 292.897 35.7793C294.785 35.7793 296.478 35.2747 297.975 34.2656C299.489 33.2402 300.685 31.9056 301.564 30.2617C302.443 28.6016 302.883 26.8193 302.883 24.915Z" stroke="#E5E5E5" stroke-width="6" mask="url(#path-1-outside-1)"/>
                            <path d="M334.67 37.5127C332.31 37.5127 330.169 36.9268 328.249 35.7549C326.345 34.5667 324.823 32.988 323.683 31.0186C322.56 29.0492 321.999 26.8926 321.999 24.5488C321.999 22.319 322.528 20.2601 323.586 18.3721C324.66 16.4678 326.1 14.9378 327.907 13.7822C329.73 12.6104 331.765 12.0244 334.011 12.0244C336.078 12.0244 337.974 12.5371 339.699 13.5625C341.424 14.5879 342.8 15.9632 343.825 17.6885C344.867 19.3975 345.388 21.3099 345.388 23.4258C345.388 23.8815 345.347 24.3128 345.266 24.7197C345.184 25.1266 344.907 25.3301 344.435 25.3301L323.854 25.3545C324.001 27.21 324.554 28.9189 325.515 30.4814C326.491 32.0439 327.769 33.3053 329.348 34.2656C330.926 35.2096 332.692 35.6816 334.645 35.6816C336.208 35.6816 337.722 35.3398 339.186 34.6562C340.668 33.9564 341.905 33.0042 342.897 31.7998C343.076 31.5719 343.321 31.458 343.63 31.458C343.89 31.458 344.102 31.5475 344.265 31.7266C344.444 31.9056 344.533 32.1253 344.533 32.3857C344.533 32.5973 344.46 32.7926 344.313 32.9717C343.141 34.404 341.701 35.5189 339.992 36.3164C338.283 37.1139 336.509 37.5127 334.67 37.5127ZM343.557 23.4502C343.557 21.6761 343.117 20.0648 342.238 18.6162C341.376 17.1676 340.22 16.012 338.771 15.1494C337.323 14.2868 335.728 13.8555 333.986 13.8555C332.163 13.8555 330.519 14.3031 329.055 15.1982C327.59 16.0934 326.402 17.2734 325.49 18.7383C324.579 20.2031 324.042 21.7982 323.879 23.5234L343.557 23.499V23.4502Z" stroke="#E5E5E5" stroke-width="6" mask="url(#path-1-outside-1)"/>
                            </g>
                            <defs>
                            <filter id="filter0_d" x="0.643433" y="0.479492" width="351.744" height="59.9717" filterUnits="userSpaceOnUse" color-interpolation-filters="sRGB">
                            <feFlood flood-opacity="0" result="BackgroundImageFix"/>
                            <feColorMatrix in="SourceAlpha" type="matrix" values="0 0 0 0 0 0 0 0 0 0 0 0 0 0 0 0 0 0 127 0"/>
                            <feOffset dy="4"/>
                            <feGaussianBlur stdDeviation="2"/>
                            <feColorMatrix type="matrix" values="0 0 0 0 0 0 0 0 0 0 0 0 0 0 0 0 0 0 0.25 0"/>
                            <feBlend mode="normal" in2="BackgroundImageFix" result="effect1_dropShadow"/>
                            <feBlend mode="normal" in="SourceGraphic" in2="effect1_dropShadow" result="shape"/>
                            </filter>
                            </defs>
                            </svg>