<svg width="485" height="95" viewBox="0 0 485 95" fill="none" xmlns="http://www.w3.org/2000/svg">
<mask id="path-1-outside-1" maskUnits="userSpaceOnUse" x="0" y="0" width="485" height="95" fill="black">
<rect fill="white" width="485" height="95"/>
<path d="M20.0835 3.54932C20.2153 3.18311 20.479 3 20.8745 3C21.2554 3 21.5117 3.18311 21.6436 3.54932L30.3008 29.9165L38.0132 3.70312C38.1157 3.30762 38.3794 3.10986 38.8042 3.10986C39.3462 3.10986 39.6172 3.38086 39.6172 3.92285C39.6172 4.04004 39.6099 4.12061 39.5952 4.16455L31.1357 32.9268C31.0332 33.3223 30.7695 33.52 30.3447 33.52C29.9492 33.52 29.6855 33.3369 29.5537 32.9707L20.8525 6.40576L11.624 32.9707C11.4922 33.3516 11.2358 33.542 10.855 33.542C10.4302 33.542 10.1665 33.3369 10.064 32.9268L2.04395 4.09863C2.01465 4.01074 2 3.93018 2 3.85693C2 3.62256 2.08057 3.43213 2.2417 3.28564C2.40283 3.12451 2.60059 3.04395 2.83496 3.04395C3.25977 3.04395 3.52344 3.24902 3.62598 3.65918L10.9429 29.9385L20.0835 3.54932Z"/>
<path d="M61.7788 33.6738C59.6548 33.6738 57.7285 33.1465 56 32.0918C54.2861 31.0225 52.9165 29.6016 51.8911 27.8291C50.8804 26.0566 50.375 24.1157 50.375 22.0063C50.375 19.9995 50.8511 18.1465 51.8032 16.4473C52.77 14.7334 54.0664 13.3564 55.6924 12.3164C57.333 11.2617 59.1641 10.7344 61.1855 10.7344C63.0459 10.7344 64.7524 11.1958 66.3052 12.1187C67.8579 13.0415 69.0957 14.2793 70.0186 15.832C70.9561 17.3701 71.4248 19.0913 71.4248 20.9956C71.4248 21.4058 71.3882 21.7939 71.3149 22.1602C71.2417 22.5264 70.9927 22.7095 70.5679 22.7095L52.0449 22.7314C52.1768 24.4014 52.6748 25.9395 53.5391 27.3457C54.418 28.752 55.5679 29.8872 56.9888 30.7515C58.4097 31.6011 59.999 32.0259 61.7568 32.0259C63.1631 32.0259 64.5254 31.7183 65.8438 31.103C67.1768 30.4731 68.29 29.6162 69.1836 28.5322C69.3447 28.3271 69.5645 28.2246 69.8428 28.2246C70.0771 28.2246 70.2676 28.3052 70.4141 28.4663C70.5752 28.6274 70.6558 28.8252 70.6558 29.0596C70.6558 29.25 70.5898 29.4258 70.458 29.5869C69.4033 30.876 68.1069 31.8794 66.5688 32.5972C65.0308 33.3149 63.4341 33.6738 61.7788 33.6738ZM69.7769 21.0176C69.7769 19.4209 69.3813 17.9707 68.5903 16.667C67.814 15.3633 66.7739 14.3232 65.4702 13.5469C64.1665 12.7705 62.731 12.3823 61.1636 12.3823C59.5229 12.3823 58.0435 12.7852 56.7251 13.5908C55.4067 14.3965 54.3374 15.4585 53.5171 16.7769C52.6968 18.0952 52.2134 19.5308 52.0669 21.0835L69.7769 21.0615V21.0176Z"/>
<path d="M94.8608 10.9761C96.853 10.9761 98.6108 11.5181 100.134 12.6021C101.658 13.6714 102.852 15.0776 103.716 16.8208C104.58 18.5493 105.012 20.4023 105.012 22.3799C105.012 24.3428 104.595 26.1665 103.76 27.8511C102.939 29.5356 101.782 30.8979 100.288 31.938C98.7939 32.9634 97.0581 33.4761 95.0806 33.4761C93.7036 33.4761 92.4512 33.2051 91.3232 32.6631C90.1953 32.1064 89.2139 31.3887 88.3789 30.5098C87.5586 29.6309 86.9214 28.708 86.4673 27.7412V32.6411C86.4673 33.1831 86.1963 33.4541 85.6543 33.4541C85.4199 33.4541 85.2222 33.3735 85.061 33.2124C84.8999 33.0659 84.8193 32.8755 84.8193 32.6411V3.83496C84.8193 3.60059 84.8999 3.41016 85.061 3.26367C85.2222 3.10254 85.4199 3.02197 85.6543 3.02197C86.1963 3.02197 86.4673 3.29297 86.4673 3.83496V16.7769C86.8481 15.7661 87.4561 14.8213 88.291 13.9424C89.1406 13.0635 90.1294 12.353 91.2573 11.811C92.3999 11.2544 93.6011 10.9761 94.8608 10.9761ZM103.364 22.3579C103.364 20.688 102.998 19.1133 102.266 17.6338C101.548 16.1396 100.552 14.9312 99.2773 14.0083C98.0029 13.0854 96.5308 12.624 94.8608 12.624C93.2202 12.624 91.77 13.0708 90.5103 13.9644C89.2505 14.8579 88.2617 16.0298 87.5439 17.48C86.8262 18.9155 86.4673 20.4683 86.4673 22.1382C86.4673 23.8081 86.8115 25.3828 87.5 26.8623C88.2031 28.3418 89.1992 29.543 90.4883 30.4658C91.7773 31.374 93.3008 31.8281 95.0586 31.8281C96.7285 31.8281 98.186 31.3887 99.4312 30.5098C100.676 29.6309 101.643 28.4736 102.332 27.0381C103.02 25.5879 103.364 24.0278 103.364 22.3579Z"/>
<path d="M146.831 3.13184C150.302 3.13184 153.378 3.68115 156.059 4.77979C158.74 5.86377 160.842 7.52637 162.365 9.76758C163.889 11.9941 164.65 14.8213 164.65 18.249C164.65 21.6035 163.903 24.4014 162.409 26.6426C160.915 28.8838 158.857 30.5684 156.235 31.6963C153.613 32.8096 150.603 33.3662 147.204 33.3662C146.091 33.3662 144.978 33.3589 143.864 33.3442C142.766 33.3296 141.66 33.3149 140.546 33.3003C140.327 33.3003 140.136 33.2197 139.975 33.0586C139.814 32.8828 139.733 32.6851 139.733 32.4653L139.887 3.98877C139.887 3.76904 139.968 3.57861 140.129 3.41748C140.29 3.2417 140.48 3.15381 140.7 3.15381L146.831 3.13184ZM141.535 4.80176L141.381 31.6523C142.333 31.667 143.286 31.6816 144.238 31.6963C145.19 31.7109 146.157 31.7183 147.138 31.7183C150.244 31.7183 152.99 31.2349 155.378 30.2681C157.766 29.3013 159.633 27.8218 160.981 25.8296C162.329 23.8374 163.002 21.3105 163.002 18.249C163.002 15.1143 162.307 12.5581 160.915 10.5806C159.538 8.60303 157.634 7.14551 155.202 6.20801C152.771 5.25586 149.965 4.77979 146.787 4.77979L141.535 4.80176Z"/>
<path d="M188.57 33.6738C186.446 33.6738 184.52 33.1465 182.791 32.0918C181.077 31.0225 179.708 29.6016 178.682 27.8291C177.671 26.0566 177.166 24.1157 177.166 22.0063C177.166 19.9995 177.642 18.1465 178.594 16.4473C179.561 14.7334 180.857 13.3564 182.483 12.3164C184.124 11.2617 185.955 10.7344 187.977 10.7344C189.837 10.7344 191.543 11.1958 193.096 12.1187C194.649 13.0415 195.887 14.2793 196.81 15.832C197.747 17.3701 198.216 19.0913 198.216 20.9956C198.216 21.4058 198.179 21.7939 198.106 22.1602C198.033 22.5264 197.784 22.7095 197.359 22.7095L178.836 22.7314C178.968 24.4014 179.466 25.9395 180.33 27.3457C181.209 28.752 182.359 29.8872 183.78 30.7515C185.201 31.6011 186.79 32.0259 188.548 32.0259C189.954 32.0259 191.316 31.7183 192.635 31.103C193.968 30.4731 195.081 29.6162 195.975 28.5322C196.136 28.3271 196.355 28.2246 196.634 28.2246C196.868 28.2246 197.059 28.3052 197.205 28.4663C197.366 28.6274 197.447 28.8252 197.447 29.0596C197.447 29.25 197.381 29.4258 197.249 29.5869C196.194 30.876 194.898 31.8794 193.36 32.5972C191.822 33.3149 190.225 33.6738 188.57 33.6738ZM196.568 21.0176C196.568 19.4209 196.172 17.9707 195.381 16.667C194.605 15.3633 193.565 14.3232 192.261 13.5469C190.958 12.7705 189.522 12.3823 187.955 12.3823C186.314 12.3823 184.834 12.7852 183.516 13.5908C182.198 14.3965 181.128 15.4585 180.308 16.7769C179.488 18.0952 179.004 19.5308 178.858 21.0835L196.568 21.0615V21.0176Z"/>
<path d="M209.787 10.8442H209.809C210.175 10.8442 210.424 11.02 210.556 11.3716L218.795 30.7075L228.485 11.3936C228.646 11.0859 228.896 10.9321 229.232 10.9321C229.467 10.9321 229.657 11.0127 229.804 11.1738C229.965 11.335 230.045 11.5327 230.045 11.7671C230.045 11.8989 230.016 12.0234 229.958 12.1406L219.477 33.0586C219.33 33.3516 219.081 33.498 218.729 33.498C218.363 33.498 218.114 33.3296 217.982 32.9927L209.04 11.9868C208.996 11.8989 208.974 11.7964 208.974 11.6792C208.974 11.4595 209.054 11.269 209.215 11.1079C209.376 10.9321 209.567 10.8442 209.787 10.8442Z"/>
<path d="M252.229 33.6738C250.105 33.6738 248.179 33.1465 246.45 32.0918C244.736 31.0225 243.367 29.6016 242.341 27.8291C241.331 26.0566 240.825 24.1157 240.825 22.0063C240.825 19.9995 241.301 18.1465 242.253 16.4473C243.22 14.7334 244.517 13.3564 246.143 12.3164C247.783 11.2617 249.614 10.7344 251.636 10.7344C253.496 10.7344 255.203 11.1958 256.755 12.1187C258.308 13.0415 259.546 14.2793 260.469 15.832C261.406 17.3701 261.875 19.0913 261.875 20.9956C261.875 21.4058 261.838 21.7939 261.765 22.1602C261.692 22.5264 261.443 22.7095 261.018 22.7095L242.495 22.7314C242.627 24.4014 243.125 25.9395 243.989 27.3457C244.868 28.752 246.018 29.8872 247.439 30.7515C248.86 31.6011 250.449 32.0259 252.207 32.0259C253.613 32.0259 254.976 31.7183 256.294 31.103C257.627 30.4731 258.74 29.6162 259.634 28.5322C259.795 28.3271 260.015 28.2246 260.293 28.2246C260.527 28.2246 260.718 28.3052 260.864 28.4663C261.025 28.6274 261.106 28.8252 261.106 29.0596C261.106 29.25 261.04 29.4258 260.908 29.5869C259.854 30.876 258.557 31.8794 257.019 32.5972C255.481 33.3149 253.884 33.6738 252.229 33.6738ZM260.227 21.0176C260.227 19.4209 259.832 17.9707 259.041 16.667C258.264 15.3633 257.224 14.3232 255.92 13.5469C254.617 12.7705 253.181 12.3823 251.614 12.3823C249.973 12.3823 248.494 12.7852 247.175 13.5908C245.857 14.3965 244.788 15.4585 243.967 16.7769C243.147 18.0952 242.664 19.5308 242.517 21.0835L260.227 21.0615V21.0176Z"/>
<path d="M276.104 3.04395C276.339 3.04395 276.529 3.12451 276.676 3.28564C276.837 3.44678 276.917 3.64453 276.917 3.87891V32.6411C276.917 32.8755 276.837 33.0732 276.676 33.2344C276.529 33.3955 276.339 33.4761 276.104 33.4761C275.87 33.4761 275.672 33.3955 275.511 33.2344C275.35 33.0732 275.27 32.8755 275.27 32.6411V3.87891C275.27 3.64453 275.35 3.44678 275.511 3.28564C275.672 3.12451 275.87 3.04395 276.104 3.04395Z"/>
<path d="M301.386 10.9761C302.91 10.9761 304.338 11.2764 305.671 11.877C307.004 12.4629 308.176 13.2832 309.187 14.3379C310.212 15.3779 311.01 16.5718 311.582 17.9194C312.153 19.2671 312.438 20.7026 312.438 22.2261C312.438 23.7495 312.146 25.1924 311.56 26.5547C310.988 27.9023 310.197 29.0962 309.187 30.1362C308.176 31.1763 307.004 31.9966 305.671 32.5972C304.338 33.1831 302.91 33.4761 301.386 33.4761C299.365 33.4761 297.512 32.9634 295.827 31.938C294.157 30.8979 292.824 29.5283 291.828 27.8291C290.832 26.1152 290.334 24.2476 290.334 22.2261C290.334 20.1899 290.832 18.3223 291.828 16.623C292.824 14.9238 294.157 13.5615 295.827 12.5361C297.512 11.4961 299.365 10.9761 301.386 10.9761ZM301.386 12.624C299.658 12.624 298.083 13.0635 296.662 13.9424C295.241 14.8213 294.106 15.9932 293.256 17.458C292.407 18.9082 291.982 20.4976 291.982 22.2261C291.982 23.9546 292.407 25.5513 293.256 27.0161C294.106 28.4663 295.241 29.6309 296.662 30.5098C298.083 31.3887 299.658 31.8281 301.386 31.8281C303.115 31.8281 304.689 31.3887 306.11 30.5098C307.531 29.6309 308.667 28.4663 309.516 27.0161C310.366 25.5513 310.791 23.9546 310.791 22.2261C310.791 20.4976 310.366 18.9082 309.516 17.458C308.667 16.0078 307.531 14.8433 306.11 13.9644C304.689 13.0708 303.115 12.624 301.386 12.624Z"/>
<path d="M335.875 33.4102C334.615 33.4102 333.414 33.1392 332.271 32.5972C331.143 32.0405 330.154 31.3228 329.305 30.4438C328.47 29.5503 327.862 28.6055 327.481 27.6094V40.5513C327.481 41.0933 327.21 41.3643 326.668 41.3643C326.434 41.3643 326.236 41.2837 326.075 41.1226C325.914 40.9761 325.833 40.7856 325.833 40.5513V11.7451C325.833 11.5107 325.914 11.3203 326.075 11.1738C326.236 11.0127 326.434 10.9321 326.668 10.9321C327.21 10.9321 327.481 11.2031 327.481 11.7451V16.645C327.935 15.6636 328.572 14.7407 329.393 13.8765C330.228 12.9976 331.209 12.2871 332.337 11.7451C333.465 11.1885 334.717 10.9102 336.094 10.9102C338.072 10.9102 339.808 11.4302 341.302 12.4702C342.796 13.4956 343.953 14.8506 344.773 16.5352C345.608 18.2197 346.026 20.0435 346.026 22.0063C346.026 23.9692 345.594 25.8223 344.729 27.5654C343.865 29.3086 342.671 30.7222 341.148 31.8062C339.625 32.8755 337.867 33.4102 335.875 33.4102ZM344.378 22.0283C344.378 20.3438 344.034 18.7837 343.345 17.3481C342.657 15.9126 341.69 14.7554 340.445 13.8765C339.2 12.9976 337.742 12.5581 336.072 12.5581C334.314 12.5581 332.791 13.0195 331.502 13.9424C330.213 14.8506 329.217 16.0444 328.514 17.5239C327.825 18.9888 327.481 20.5635 327.481 22.248C327.481 23.9033 327.84 25.4561 328.558 26.9062C329.275 28.3564 330.264 29.5283 331.524 30.4219C332.784 31.3154 334.234 31.7622 335.875 31.7622C337.544 31.7622 339.017 31.3008 340.291 30.3779C341.565 29.4404 342.562 28.2319 343.279 26.7524C344.012 25.2729 344.378 23.6982 344.378 22.0283Z"/>
<path d="M359.442 11.5913C359.442 11.3862 359.516 11.2104 359.662 11.064C359.823 10.9028 360.006 10.8223 360.211 10.8223C360.417 10.8223 360.592 10.9028 360.739 11.064C360.9 11.2104 360.98 11.3862 360.98 11.5913V17.1064C361.273 16.125 361.764 15.1655 362.453 14.228C363.141 13.2905 364.013 12.5215 365.067 11.9209C366.122 11.3057 367.345 10.998 368.737 10.998C370.773 10.998 372.37 11.606 373.527 12.8218C374.684 14.0376 375.248 15.605 375.219 17.5239C375.497 16.4106 375.966 15.356 376.625 14.3599C377.299 13.3491 378.17 12.5288 379.24 11.8989C380.324 11.269 381.62 10.9614 383.129 10.9761C384.345 10.9907 385.363 11.291 386.183 11.877C387.018 12.4482 387.685 13.2173 388.183 14.1841C388.681 15.1509 389.04 16.2202 389.259 17.3921C389.479 18.5493 389.589 19.7139 389.589 20.8857L389.611 32.707C389.611 32.9121 389.53 33.0879 389.369 33.2344C389.223 33.3955 389.047 33.4761 388.842 33.4761C388.637 33.4761 388.454 33.3955 388.292 33.2344C388.146 33.0879 388.073 32.9121 388.073 32.707L388.051 20.8857C388.051 19.582 387.912 18.2856 387.633 16.9966C387.37 15.7075 386.879 14.6382 386.161 13.7886C385.458 12.939 384.447 12.5142 383.129 12.5142C381.342 12.5142 379.87 13.0122 378.712 14.0083C377.555 15.0044 376.698 16.3301 376.142 17.9854C375.585 19.626 375.307 21.4351 375.307 23.4126V32.6411C375.307 32.8462 375.226 33.0293 375.065 33.1904C374.918 33.3369 374.743 33.4102 374.538 33.4102C374.333 33.4102 374.149 33.3369 373.988 33.1904C373.842 33.0293 373.769 32.8462 373.769 32.6411V20.3804C373.769 19.0474 373.622 17.7876 373.329 16.6011C373.051 15.3999 372.545 14.4258 371.813 13.6787C371.095 12.917 370.07 12.5361 368.737 12.5361C366.92 12.5361 365.441 13.0195 364.298 13.9863C363.156 14.9531 362.321 16.2422 361.793 17.8535C361.266 19.4648 361.002 21.2446 361.002 23.1929L361.024 32.6851C361.024 32.8901 360.944 33.0659 360.783 33.2124C360.636 33.3735 360.46 33.4541 360.255 33.4541C360.05 33.4541 359.867 33.3735 359.706 33.2124C359.56 33.0659 359.486 32.8901 359.486 32.6851L359.442 11.6133V11.5913Z"/>
<path d="M414.431 33.6738C412.307 33.6738 410.381 33.1465 408.652 32.0918C406.938 31.0225 405.569 29.6016 404.543 27.8291C403.533 26.0566 403.027 24.1157 403.027 22.0063C403.027 19.9995 403.503 18.1465 404.456 16.4473C405.422 14.7334 406.719 13.3564 408.345 12.3164C409.985 11.2617 411.816 10.7344 413.838 10.7344C415.698 10.7344 417.405 11.1958 418.958 12.1187C420.51 13.0415 421.748 14.2793 422.671 15.832C423.608 17.3701 424.077 19.0913 424.077 20.9956C424.077 21.4058 424.041 21.7939 423.967 22.1602C423.894 22.5264 423.645 22.7095 423.22 22.7095L404.697 22.7314C404.829 24.4014 405.327 25.9395 406.191 27.3457C407.07 28.752 408.22 29.8872 409.641 30.7515C411.062 31.6011 412.651 32.0259 414.409 32.0259C415.815 32.0259 417.178 31.7183 418.496 31.103C419.829 30.4731 420.942 29.6162 421.836 28.5322C421.997 28.3271 422.217 28.2246 422.495 28.2246C422.729 28.2246 422.92 28.3052 423.066 28.4663C423.228 28.6274 423.308 28.8252 423.308 29.0596C423.308 29.25 423.242 29.4258 423.11 29.5869C422.056 30.876 420.759 31.8794 419.221 32.5972C417.683 33.3149 416.086 33.6738 414.431 33.6738ZM422.429 21.0176C422.429 19.4209 422.034 17.9707 421.243 16.667C420.466 15.3633 419.426 14.3232 418.123 13.5469C416.819 12.7705 415.383 12.3823 413.816 12.3823C412.175 12.3823 410.696 12.7852 409.377 13.5908C408.059 14.3965 406.99 15.4585 406.169 16.7769C405.349 18.0952 404.866 19.5308 404.719 21.0835L422.429 21.0615V21.0176Z"/>
<path d="M437.472 11.833V11.811C437.472 11.5474 437.56 11.3496 437.735 11.2178C437.911 11.0859 438.102 11.02 438.307 11.02C438.512 11.02 438.695 11.0859 438.856 11.2178C439.032 11.3496 439.12 11.5474 439.12 11.811V16.8208C439.984 15.1216 441.126 13.7227 442.547 12.624C443.968 11.5254 445.587 10.9761 447.403 10.9761C449.425 10.9761 451.08 11.4521 452.369 12.4043C453.658 13.3564 454.603 14.6455 455.204 16.2715C455.819 17.8828 456.126 19.6846 456.126 21.6768V32.6631C456.126 32.9268 456.039 33.1245 455.863 33.2563C455.702 33.3882 455.519 33.4541 455.313 33.4541C455.108 33.4541 454.918 33.3882 454.742 33.2563C454.566 33.1245 454.479 32.9268 454.479 32.6631V21.6768C454.479 19.9922 454.244 18.4688 453.775 17.1064C453.307 15.7441 452.56 14.6602 451.534 13.8545C450.523 13.0488 449.183 12.646 447.513 12.646C445.975 12.646 444.569 13.0928 443.294 13.9863C442.02 14.8652 441.002 15.9932 440.24 17.3701C439.493 18.7324 439.12 20.1533 439.12 21.6328L439.164 32.707C439.164 32.9707 439.076 33.1685 438.9 33.3003C438.724 33.4468 438.534 33.52 438.329 33.52C438.124 33.52 437.933 33.4468 437.757 33.3003C437.596 33.1685 437.516 32.9707 437.516 32.707L437.472 11.833Z"/>
<path d="M478.771 33.4761C477.248 33.4761 476.098 32.9927 475.322 32.0259C474.545 31.0591 474.157 29.8066 474.157 28.2686V28.1147L474.201 12.624H469.719C469.484 12.624 469.287 12.5508 469.125 12.4043C468.964 12.2432 468.884 12.0454 468.884 11.811C468.884 11.5767 468.964 11.3789 469.125 11.2178C469.287 11.0566 469.484 10.9761 469.719 10.9761H474.223V5.28516C474.223 5.05078 474.304 4.85303 474.465 4.69189C474.626 4.53076 474.824 4.4502 475.058 4.4502C475.292 4.4502 475.483 4.53076 475.629 4.69189C475.791 4.85303 475.871 5.05078 475.871 5.28516V10.9761H480.485C481.027 10.9761 481.298 11.2471 481.298 11.7891C481.298 12.0234 481.218 12.2212 481.057 12.3823C480.91 12.5435 480.72 12.624 480.485 12.624H475.849L475.805 28.1147V28.1367C475.805 29.2061 476.018 30.085 476.442 30.7734C476.867 31.4619 477.592 31.8062 478.618 31.8062C479.628 31.8062 480.529 31.5059 481.32 30.9053C481.496 30.7881 481.665 30.7295 481.826 30.7295C482.06 30.7295 482.258 30.8101 482.419 30.9712C482.58 31.1323 482.661 31.3301 482.661 31.5645C482.661 31.8281 482.543 32.0479 482.309 32.2236C481.84 32.5898 481.306 32.8901 480.705 33.1245C480.104 33.3589 479.46 33.4761 478.771 33.4761Z"/>
<path d="M32.731 81.4541C31.3101 81.4541 29.9624 81.1245 28.688 80.4653C27.4282 79.7915 26.3955 78.854 25.5898 77.6528C24.7988 76.4517 24.4033 75.0601 24.4033 73.478C24.4033 71.8374 24.8062 70.4604 25.6118 69.3472C26.4175 68.2339 27.3989 67.3037 28.5562 66.5566C29.728 65.7949 30.856 65.1284 31.9399 64.5571C31.4419 63.8979 30.8853 63.2168 30.27 62.5137C29.6548 61.7959 29.1274 61.0049 28.688 60.1406C28.2485 59.2617 28.0288 58.2656 28.0288 57.1523C28.0288 56.0391 28.3071 55.021 28.8638 54.0981C29.4204 53.1606 30.1675 52.4136 31.105 51.8569C32.0425 51.3003 33.0679 51.022 34.1812 51.022C35.3091 51.022 36.3345 51.3003 37.2573 51.8569C38.1948 52.3989 38.9346 53.1313 39.4766 54.0542C40.0332 54.9771 40.3115 56.0024 40.3115 57.1304C40.3115 58.4487 39.9893 59.606 39.3447 60.6021C38.7148 61.5981 37.9312 62.4624 36.9937 63.1948C36.0708 63.9272 35.1626 64.5425 34.269 65.0405C35.4116 66.5054 36.5542 67.9775 37.6968 69.457C38.8394 70.9219 39.9819 72.394 41.1245 73.8735C41.564 72.9653 41.9229 71.9473 42.2012 70.8193C42.4795 69.6914 42.6406 68.5122 42.6846 67.2817C42.6846 67.0767 42.7578 66.9009 42.9043 66.7544C43.0654 66.6079 43.2485 66.5347 43.4536 66.5347C43.6587 66.5347 43.8345 66.6152 43.981 66.7764C44.1421 66.9229 44.2227 67.0986 44.2227 67.3037C44.2227 68.8125 44.0249 70.2407 43.6294 71.5884C43.2339 72.936 42.7432 74.1519 42.1572 75.2358C42.8164 76.0854 43.4756 76.9424 44.1348 77.8066C44.8086 78.6562 45.4751 79.5132 46.1343 80.3774C46.2515 80.5239 46.3101 80.6851 46.3101 80.8608C46.3101 81.0659 46.2295 81.2417 46.0684 81.3882C45.9219 81.5493 45.7461 81.6299 45.541 81.6299C45.292 81.6299 45.0869 81.52 44.9258 81.3003C44.3252 80.5239 43.7173 79.7476 43.1021 78.9712C42.5015 78.1802 41.9009 77.3965 41.3003 76.6201C40.4067 77.9092 39.2056 79.0371 37.6968 80.0039C36.188 80.9707 34.5327 81.4541 32.731 81.4541ZM38.7734 57.1304C38.7734 55.8853 38.3267 54.8159 37.4331 53.9224C36.5396 53.0142 35.4629 52.5601 34.2031 52.5601C32.958 52.5601 31.874 53.0068 30.9512 53.9004C30.0283 54.7939 29.5669 55.8926 29.5669 57.1963C29.5669 58.0898 29.7866 58.9321 30.2261 59.7231C30.6655 60.4995 31.1782 61.2246 31.7642 61.8984C32.3501 62.5723 32.8701 63.2095 33.3242 63.8101C34.1152 63.3706 34.9282 62.8433 35.7632 62.228C36.6128 61.6128 37.3232 60.8877 37.8945 60.0527C38.4805 59.2031 38.7734 58.229 38.7734 57.1304ZM25.9414 73.5439C25.9414 74.8037 26.2637 75.917 26.9082 76.8838C27.5674 77.8359 28.417 78.583 29.457 79.125C30.4971 79.6523 31.5884 79.916 32.731 79.916C34.3423 79.916 35.8145 79.4546 37.1475 78.5317C38.4951 77.5942 39.5498 76.5322 40.3115 75.3457C39.0811 73.749 37.8433 72.1597 36.5981 70.5776C35.3677 68.981 34.1372 67.3843 32.9067 65.7876C31.9253 66.3149 30.8926 66.9082 29.8086 67.5674C28.7246 68.2119 27.8091 69.0103 27.062 69.9624C26.3149 70.9146 25.9414 72.1084 25.9414 73.5439Z"/>
<path d="M88.5239 51.1318C91.9956 51.1318 95.0718 51.6812 97.7524 52.7798C100.433 53.8638 102.535 55.5264 104.059 57.7676C105.582 59.9941 106.344 62.8213 106.344 66.249C106.344 69.6035 105.597 72.4014 104.103 74.6426C102.608 76.8838 100.55 78.5684 97.9282 79.6963C95.3062 80.8096 92.2959 81.3662 88.8975 81.3662C87.7842 81.3662 86.6709 81.3589 85.5576 81.3442C84.459 81.3296 83.353 81.3149 82.2397 81.3003C82.02 81.3003 81.8296 81.2197 81.6685 81.0586C81.5073 80.8828 81.4268 80.6851 81.4268 80.4653L81.5806 51.9888C81.5806 51.769 81.6611 51.5786 81.8223 51.4175C81.9834 51.2417 82.1738 51.1538 82.3936 51.1538L88.5239 51.1318ZM83.2285 52.8018L83.0747 79.6523C84.0269 79.667 84.979 79.6816 85.9312 79.6963C86.8833 79.7109 87.8501 79.7183 88.8315 79.7183C91.937 79.7183 94.6836 79.2349 97.0713 78.2681C99.459 77.3013 101.327 75.8218 102.674 73.8296C104.022 71.8374 104.696 69.3105 104.696 66.249C104.696 63.1143 104 60.5581 102.608 58.5806C101.231 56.603 99.3271 55.1455 96.8955 54.208C94.4639 53.2559 91.6587 52.7798 88.48 52.7798L83.2285 52.8018Z"/>
<path d="M130.263 81.6738C128.139 81.6738 126.213 81.1465 124.484 80.0918C122.771 79.0225 121.401 77.6016 120.375 75.8291C119.365 74.0566 118.859 72.1157 118.859 70.0063C118.859 67.9995 119.335 66.1465 120.288 64.4473C121.254 62.7334 122.551 61.3564 124.177 60.3164C125.817 59.2617 127.648 58.7344 129.67 58.7344C131.53 58.7344 133.237 59.1958 134.79 60.1187C136.342 61.0415 137.58 62.2793 138.503 63.832C139.44 65.3701 139.909 67.0913 139.909 68.9956C139.909 69.4058 139.873 69.7939 139.799 70.1602C139.726 70.5264 139.477 70.7095 139.052 70.7095L120.529 70.7314C120.661 72.4014 121.159 73.9395 122.023 75.3457C122.902 76.752 124.052 77.8872 125.473 78.7515C126.894 79.6011 128.483 80.0259 130.241 80.0259C131.647 80.0259 133.01 79.7183 134.328 79.103C135.661 78.4731 136.774 77.6162 137.668 76.5322C137.829 76.3271 138.049 76.2246 138.327 76.2246C138.562 76.2246 138.752 76.3052 138.898 76.4663C139.06 76.6274 139.14 76.8252 139.14 77.0596C139.14 77.25 139.074 77.4258 138.942 77.5869C137.888 78.876 136.591 79.8794 135.053 80.5972C133.515 81.3149 131.918 81.6738 130.263 81.6738ZM138.261 69.0176C138.261 67.4209 137.866 65.9707 137.075 64.667C136.298 63.3633 135.258 62.3232 133.955 61.5469C132.651 60.7705 131.215 60.3823 129.648 60.3823C128.007 60.3823 126.528 60.7852 125.209 61.5908C123.891 62.3965 122.822 63.4585 122.001 64.7769C121.181 66.0952 120.698 67.5308 120.551 69.0835L138.261 69.0615V69.0176Z"/>
<path d="M162.906 58.9321C164.825 58.9321 166.553 59.335 168.091 60.1406C169.644 60.9316 170.801 62.0303 171.563 63.4365C171.622 63.5537 171.651 63.6782 171.651 63.8101C171.651 64.0151 171.57 64.1982 171.409 64.3594C171.263 64.5059 171.087 64.5791 170.882 64.5791C170.574 64.5791 170.347 64.4399 170.201 64.1616C169.585 62.9897 168.626 62.0815 167.322 61.437C166.019 60.7925 164.546 60.4702 162.906 60.4702C162.056 60.4702 161.155 60.5654 160.203 60.7559C159.266 60.9316 158.379 61.21 157.544 61.5908C156.724 61.9717 156.05 62.4697 155.523 63.085C155.01 63.7002 154.754 64.4473 154.754 65.3262C154.754 66.1318 155.01 66.7764 155.523 67.2598C156.05 67.7285 156.607 68.0874 157.193 68.3364C158.335 68.8052 159.566 69.0981 160.884 69.2153C162.217 69.3179 163.558 69.4131 164.905 69.501C166.268 69.5889 167.549 69.8452 168.75 70.27C169.703 70.5923 170.567 71.127 171.343 71.874C172.12 72.6211 172.508 73.6318 172.508 74.9062C172.508 76.4443 172.032 77.6968 171.08 78.6636C170.142 79.6304 168.941 80.3408 167.476 80.7949C166.026 81.2344 164.539 81.4541 163.016 81.4541C160.76 81.4541 158.731 81.0366 156.929 80.2017C155.142 79.3521 153.816 78.0996 152.952 76.4443C152.894 76.3271 152.864 76.21 152.864 76.0928C152.864 75.8877 152.938 75.7119 153.084 75.5654C153.245 75.4043 153.428 75.3237 153.633 75.3237C153.956 75.3237 154.183 75.4629 154.314 75.7412C155.047 77.1621 156.182 78.2168 157.72 78.9053C159.258 79.5791 161.023 79.916 163.016 79.916C164.261 79.916 165.491 79.7549 166.707 79.4326C167.923 79.1104 168.934 78.583 169.739 77.8506C170.56 77.1035 170.97 76.1221 170.97 74.9062C170.97 74.0127 170.684 73.3169 170.113 72.8188C169.556 72.3208 168.934 71.9546 168.245 71.7202C167.029 71.2954 165.748 71.0391 164.4 70.9512C163.052 70.8486 161.712 70.7461 160.379 70.6436C159.046 70.5264 157.786 70.2334 156.6 69.7646C155.765 69.4277 154.988 68.8931 154.271 68.1606C153.567 67.4282 153.216 66.4834 153.216 65.3262C153.216 64.1836 153.509 63.2095 154.095 62.4038C154.695 61.5981 155.472 60.939 156.424 60.4263C157.391 59.9136 158.438 59.54 159.566 59.3057C160.708 59.0566 161.822 58.9321 162.906 58.9321Z"/>
<path d="M186.452 51.8569C186.452 51.6372 186.525 51.4468 186.671 51.2856C186.833 51.1245 187.03 51.0439 187.265 51.0439C187.499 51.0439 187.697 51.1245 187.858 51.2856C188.019 51.4321 188.1 51.6226 188.1 51.8569V53.2852C188.1 53.5195 188.019 53.7173 187.858 53.8784C187.697 54.0396 187.499 54.1201 187.265 54.1201C187.03 54.1201 186.833 54.0396 186.671 53.8784C186.525 53.7173 186.452 53.5195 186.452 53.2852V51.8569ZM187.287 58.9541C187.521 58.9541 187.711 59.0347 187.858 59.1958C188.019 59.3569 188.1 59.5547 188.1 59.7891L187.99 80.6411V80.6631C187.99 81.2051 187.719 81.4761 187.177 81.4761C186.62 81.4761 186.342 81.1978 186.342 80.6411L186.452 59.7891C186.452 59.5547 186.532 59.3569 186.693 59.1958C186.854 59.0347 187.052 58.9541 187.287 58.9541Z"/>
<path d="M212.437 58.9321C213.784 58.9321 215.081 59.2324 216.326 59.833C217.585 60.4189 218.677 61.1807 219.6 62.1182C220.522 63.041 221.174 64.0225 221.555 65.0625L221.599 59.7012C221.599 59.4668 221.672 59.269 221.819 59.1079C221.98 58.9468 222.178 58.8662 222.412 58.8662C222.969 58.8662 223.247 59.1519 223.247 59.7231L223.071 81.3223C223.057 82.8311 222.734 84.252 222.104 85.585C221.475 86.918 220.61 88.0972 219.512 89.1226C218.428 90.1479 217.183 90.9536 215.776 91.5396C214.37 92.1255 212.876 92.4185 211.294 92.4185C209.521 92.4185 207.815 92.0229 206.174 91.2319C204.534 90.4409 203.157 89.3496 202.043 87.958C201.912 87.7969 201.846 87.6211 201.846 87.4307C201.846 87.1963 201.926 86.9985 202.087 86.8374C202.249 86.6909 202.446 86.6177 202.681 86.6177C202.974 86.6177 203.193 86.7202 203.34 86.9253C204.292 88.1118 205.479 89.0493 206.899 89.7378C208.32 90.4263 209.785 90.7705 211.294 90.7705C213.11 90.7705 214.78 90.3311 216.304 89.4521C217.842 88.5732 219.072 87.4087 219.995 85.9585C220.933 84.5229 221.409 82.9482 221.423 81.2344L221.467 76.3345C220.618 77.8433 219.373 79.125 217.732 80.1797C216.106 81.2344 214.326 81.7617 212.393 81.7617C210.386 81.7617 208.577 81.2344 206.965 80.1797C205.369 79.1104 204.102 77.7114 203.164 75.9829C202.227 74.2397 201.758 72.3647 201.758 70.3579C201.758 68.8491 202.029 67.4136 202.571 66.0513C203.113 64.6743 203.867 63.4512 204.834 62.3818C205.801 61.3125 206.929 60.4702 208.218 59.855C209.521 59.2397 210.928 58.9321 212.437 58.9321ZM221.379 70.3359C221.379 68.6221 220.991 67.0254 220.215 65.5459C219.438 64.0664 218.376 62.8726 217.029 61.9644C215.681 61.0415 214.158 60.5801 212.458 60.5801C210.745 60.5801 209.207 61.0415 207.844 61.9644C206.482 62.8726 205.398 64.0737 204.592 65.5679C203.801 67.0474 203.406 68.644 203.406 70.3579C203.406 72.0718 203.801 73.6685 204.592 75.1479C205.383 76.6274 206.453 77.8286 207.8 78.7515C209.163 79.6597 210.693 80.1138 212.393 80.1138C214.092 80.1138 215.615 79.6597 216.963 78.7515C218.325 77.8286 219.402 76.6274 220.193 75.1479C220.984 73.6538 221.379 72.0498 221.379 70.3359Z"/>
<path d="M237.213 59.833V59.811C237.213 59.5474 237.301 59.3496 237.477 59.2178C237.652 59.0859 237.843 59.02 238.048 59.02C238.253 59.02 238.436 59.0859 238.597 59.2178C238.773 59.3496 238.861 59.5474 238.861 59.811V64.8208C239.725 63.1216 240.868 61.7227 242.289 60.624C243.709 59.5254 245.328 58.9761 247.145 58.9761C249.166 58.9761 250.821 59.4521 252.11 60.4043C253.399 61.3564 254.344 62.6455 254.945 64.2715C255.56 65.8828 255.868 67.6846 255.868 69.6768V80.6631C255.868 80.9268 255.78 81.1245 255.604 81.2563C255.443 81.3882 255.26 81.4541 255.055 81.4541C254.85 81.4541 254.659 81.3882 254.483 81.2563C254.308 81.1245 254.22 80.9268 254.22 80.6631V69.6768C254.22 67.9922 253.985 66.4688 253.517 65.1064C253.048 63.7441 252.301 62.6602 251.275 61.8545C250.265 61.0488 248.924 60.646 247.254 60.646C245.716 60.646 244.31 61.0928 243.036 61.9863C241.761 62.8652 240.743 63.9932 239.981 65.3701C239.234 66.7324 238.861 68.1533 238.861 69.6328L238.905 80.707C238.905 80.9707 238.817 81.1685 238.641 81.3003C238.465 81.4468 238.275 81.52 238.07 81.52C237.865 81.52 237.674 81.4468 237.499 81.3003C237.337 81.1685 237.257 80.9707 237.257 80.707L237.213 59.833Z"/>
</mask>
<path d="M20.0835 3.54932C20.2153 3.18311 20.479 3 20.8745 3C21.2554 3 21.5117 3.18311 21.6436 3.54932L30.3008 29.9165L38.0132 3.70312C38.1157 3.30762 38.3794 3.10986 38.8042 3.10986C39.3462 3.10986 39.6172 3.38086 39.6172 3.92285C39.6172 4.04004 39.6099 4.12061 39.5952 4.16455L31.1357 32.9268C31.0332 33.3223 30.7695 33.52 30.3447 33.52C29.9492 33.52 29.6855 33.3369 29.5537 32.9707L20.8525 6.40576L11.624 32.9707C11.4922 33.3516 11.2358 33.542 10.855 33.542C10.4302 33.542 10.1665 33.3369 10.064 32.9268L2.04395 4.09863C2.01465 4.01074 2 3.93018 2 3.85693C2 3.62256 2.08057 3.43213 2.2417 3.28564C2.40283 3.12451 2.60059 3.04395 2.83496 3.04395C3.25977 3.04395 3.52344 3.24902 3.62598 3.65918L10.9429 29.9385L20.0835 3.54932Z" stroke="white" stroke-width="4" mask="url(#path-1-outside-1)"/>
<path d="M61.7788 33.6738C59.6548 33.6738 57.7285 33.1465 56 32.0918C54.2861 31.0225 52.9165 29.6016 51.8911 27.8291C50.8804 26.0566 50.375 24.1157 50.375 22.0063C50.375 19.9995 50.8511 18.1465 51.8032 16.4473C52.77 14.7334 54.0664 13.3564 55.6924 12.3164C57.333 11.2617 59.1641 10.7344 61.1855 10.7344C63.0459 10.7344 64.7524 11.1958 66.3052 12.1187C67.8579 13.0415 69.0957 14.2793 70.0186 15.832C70.9561 17.3701 71.4248 19.0913 71.4248 20.9956C71.4248 21.4058 71.3882 21.7939 71.3149 22.1602C71.2417 22.5264 70.9927 22.7095 70.5679 22.7095L52.0449 22.7314C52.1768 24.4014 52.6748 25.9395 53.5391 27.3457C54.418 28.752 55.5679 29.8872 56.9888 30.7515C58.4097 31.6011 59.999 32.0259 61.7568 32.0259C63.1631 32.0259 64.5254 31.7183 65.8438 31.103C67.1768 30.4731 68.29 29.6162 69.1836 28.5322C69.3447 28.3271 69.5645 28.2246 69.8428 28.2246C70.0771 28.2246 70.2676 28.3052 70.4141 28.4663C70.5752 28.6274 70.6558 28.8252 70.6558 29.0596C70.6558 29.25 70.5898 29.4258 70.458 29.5869C69.4033 30.876 68.1069 31.8794 66.5688 32.5972C65.0308 33.3149 63.4341 33.6738 61.7788 33.6738ZM69.7769 21.0176C69.7769 19.4209 69.3813 17.9707 68.5903 16.667C67.814 15.3633 66.7739 14.3232 65.4702 13.5469C64.1665 12.7705 62.731 12.3823 61.1636 12.3823C59.5229 12.3823 58.0435 12.7852 56.7251 13.5908C55.4067 14.3965 54.3374 15.4585 53.5171 16.7769C52.6968 18.0952 52.2134 19.5308 52.0669 21.0835L69.7769 21.0615V21.0176Z" stroke="white" stroke-width="4" mask="url(#path-1-outside-1)"/>
<path d="M94.8608 10.9761C96.853 10.9761 98.6108 11.5181 100.134 12.6021C101.658 13.6714 102.852 15.0776 103.716 16.8208C104.58 18.5493 105.012 20.4023 105.012 22.3799C105.012 24.3428 104.595 26.1665 103.76 27.8511C102.939 29.5356 101.782 30.8979 100.288 31.938C98.7939 32.9634 97.0581 33.4761 95.0806 33.4761C93.7036 33.4761 92.4512 33.2051 91.3232 32.6631C90.1953 32.1064 89.2139 31.3887 88.3789 30.5098C87.5586 29.6309 86.9214 28.708 86.4673 27.7412V32.6411C86.4673 33.1831 86.1963 33.4541 85.6543 33.4541C85.4199 33.4541 85.2222 33.3735 85.061 33.2124C84.8999 33.0659 84.8193 32.8755 84.8193 32.6411V3.83496C84.8193 3.60059 84.8999 3.41016 85.061 3.26367C85.2222 3.10254 85.4199 3.02197 85.6543 3.02197C86.1963 3.02197 86.4673 3.29297 86.4673 3.83496V16.7769C86.8481 15.7661 87.4561 14.8213 88.291 13.9424C89.1406 13.0635 90.1294 12.353 91.2573 11.811C92.3999 11.2544 93.6011 10.9761 94.8608 10.9761ZM103.364 22.3579C103.364 20.688 102.998 19.1133 102.266 17.6338C101.548 16.1396 100.552 14.9312 99.2773 14.0083C98.0029 13.0854 96.5308 12.624 94.8608 12.624C93.2202 12.624 91.77 13.0708 90.5103 13.9644C89.2505 14.8579 88.2617 16.0298 87.5439 17.48C86.8262 18.9155 86.4673 20.4683 86.4673 22.1382C86.4673 23.8081 86.8115 25.3828 87.5 26.8623C88.2031 28.3418 89.1992 29.543 90.4883 30.4658C91.7773 31.374 93.3008 31.8281 95.0586 31.8281C96.7285 31.8281 98.186 31.3887 99.4312 30.5098C100.676 29.6309 101.643 28.4736 102.332 27.0381C103.02 25.5879 103.364 24.0278 103.364 22.3579Z" stroke="white" stroke-width="4" mask="url(#path-1-outside-1)"/>
<path d="M146.831 3.13184C150.302 3.13184 153.378 3.68115 156.059 4.77979C158.74 5.86377 160.842 7.52637 162.365 9.76758C163.889 11.9941 164.65 14.8213 164.65 18.249C164.65 21.6035 163.903 24.4014 162.409 26.6426C160.915 28.8838 158.857 30.5684 156.235 31.6963C153.613 32.8096 150.603 33.3662 147.204 33.3662C146.091 33.3662 144.978 33.3589 143.864 33.3442C142.766 33.3296 141.66 33.3149 140.546 33.3003C140.327 33.3003 140.136 33.2197 139.975 33.0586C139.814 32.8828 139.733 32.6851 139.733 32.4653L139.887 3.98877C139.887 3.76904 139.968 3.57861 140.129 3.41748C140.29 3.2417 140.48 3.15381 140.7 3.15381L146.831 3.13184ZM141.535 4.80176L141.381 31.6523C142.333 31.667 143.286 31.6816 144.238 31.6963C145.19 31.7109 146.157 31.7183 147.138 31.7183C150.244 31.7183 152.99 31.2349 155.378 30.2681C157.766 29.3013 159.633 27.8218 160.981 25.8296C162.329 23.8374 163.002 21.3105 163.002 18.249C163.002 15.1143 162.307 12.5581 160.915 10.5806C159.538 8.60303 157.634 7.14551 155.202 6.20801C152.771 5.25586 149.965 4.77979 146.787 4.77979L141.535 4.80176Z" stroke="white" stroke-width="4" mask="url(#path-1-outside-1)"/>
<path d="M188.57 33.6738C186.446 33.6738 184.52 33.1465 182.791 32.0918C181.077 31.0225 179.708 29.6016 178.682 27.8291C177.671 26.0566 177.166 24.1157 177.166 22.0063C177.166 19.9995 177.642 18.1465 178.594 16.4473C179.561 14.7334 180.857 13.3564 182.483 12.3164C184.124 11.2617 185.955 10.7344 187.977 10.7344C189.837 10.7344 191.543 11.1958 193.096 12.1187C194.649 13.0415 195.887 14.2793 196.81 15.832C197.747 17.3701 198.216 19.0913 198.216 20.9956C198.216 21.4058 198.179 21.7939 198.106 22.1602C198.033 22.5264 197.784 22.7095 197.359 22.7095L178.836 22.7314C178.968 24.4014 179.466 25.9395 180.33 27.3457C181.209 28.752 182.359 29.8872 183.78 30.7515C185.201 31.6011 186.79 32.0259 188.548 32.0259C189.954 32.0259 191.316 31.7183 192.635 31.103C193.968 30.4731 195.081 29.6162 195.975 28.5322C196.136 28.3271 196.355 28.2246 196.634 28.2246C196.868 28.2246 197.059 28.3052 197.205 28.4663C197.366 28.6274 197.447 28.8252 197.447 29.0596C197.447 29.25 197.381 29.4258 197.249 29.5869C196.194 30.876 194.898 31.8794 193.36 32.5972C191.822 33.3149 190.225 33.6738 188.57 33.6738ZM196.568 21.0176C196.568 19.4209 196.172 17.9707 195.381 16.667C194.605 15.3633 193.565 14.3232 192.261 13.5469C190.958 12.7705 189.522 12.3823 187.955 12.3823C186.314 12.3823 184.834 12.7852 183.516 13.5908C182.198 14.3965 181.128 15.4585 180.308 16.7769C179.488 18.0952 179.004 19.5308 178.858 21.0835L196.568 21.0615V21.0176Z" stroke="white" stroke-width="4" mask="url(#path-1-outside-1)"/>
<path d="M209.787 10.8442H209.809C210.175 10.8442 210.424 11.02 210.556 11.3716L218.795 30.7075L228.485 11.3936C228.646 11.0859 228.896 10.9321 229.232 10.9321C229.467 10.9321 229.657 11.0127 229.804 11.1738C229.965 11.335 230.045 11.5327 230.045 11.7671C230.045 11.8989 230.016 12.0234 229.958 12.1406L219.477 33.0586C219.33 33.3516 219.081 33.498 218.729 33.498C218.363 33.498 218.114 33.3296 217.982 32.9927L209.04 11.9868C208.996 11.8989 208.974 11.7964 208.974 11.6792C208.974 11.4595 209.054 11.269 209.215 11.1079C209.376 10.9321 209.567 10.8442 209.787 10.8442Z" stroke="white" stroke-width="4" mask="url(#path-1-outside-1)"/>
<path d="M252.229 33.6738C250.105 33.6738 248.179 33.1465 246.45 32.0918C244.736 31.0225 243.367 29.6016 242.341 27.8291C241.331 26.0566 240.825 24.1157 240.825 22.0063C240.825 19.9995 241.301 18.1465 242.253 16.4473C243.22 14.7334 244.517 13.3564 246.143 12.3164C247.783 11.2617 249.614 10.7344 251.636 10.7344C253.496 10.7344 255.203 11.1958 256.755 12.1187C258.308 13.0415 259.546 14.2793 260.469 15.832C261.406 17.3701 261.875 19.0913 261.875 20.9956C261.875 21.4058 261.838 21.7939 261.765 22.1602C261.692 22.5264 261.443 22.7095 261.018 22.7095L242.495 22.7314C242.627 24.4014 243.125 25.9395 243.989 27.3457C244.868 28.752 246.018 29.8872 247.439 30.7515C248.86 31.6011 250.449 32.0259 252.207 32.0259C253.613 32.0259 254.976 31.7183 256.294 31.103C257.627 30.4731 258.74 29.6162 259.634 28.5322C259.795 28.3271 260.015 28.2246 260.293 28.2246C260.527 28.2246 260.718 28.3052 260.864 28.4663C261.025 28.6274 261.106 28.8252 261.106 29.0596C261.106 29.25 261.04 29.4258 260.908 29.5869C259.854 30.876 258.557 31.8794 257.019 32.5972C255.481 33.3149 253.884 33.6738 252.229 33.6738ZM260.227 21.0176C260.227 19.4209 259.832 17.9707 259.041 16.667C258.264 15.3633 257.224 14.3232 255.92 13.5469C254.617 12.7705 253.181 12.3823 251.614 12.3823C249.973 12.3823 248.494 12.7852 247.175 13.5908C245.857 14.3965 244.788 15.4585 243.967 16.7769C243.147 18.0952 242.664 19.5308 242.517 21.0835L260.227 21.0615V21.0176Z" stroke="white" stroke-width="4" mask="url(#path-1-outside-1)"/>
<path d="M276.104 3.04395C276.339 3.04395 276.529 3.12451 276.676 3.28564C276.837 3.44678 276.917 3.64453 276.917 3.87891V32.6411C276.917 32.8755 276.837 33.0732 276.676 33.2344C276.529 33.3955 276.339 33.4761 276.104 33.4761C275.87 33.4761 275.672 33.3955 275.511 33.2344C275.35 33.0732 275.27 32.8755 275.27 32.6411V3.87891C275.27 3.64453 275.35 3.44678 275.511 3.28564C275.672 3.12451 275.87 3.04395 276.104 3.04395Z" stroke="white" stroke-width="4" mask="url(#path-1-outside-1)"/>
<path d="M301.386 10.9761C302.91 10.9761 304.338 11.2764 305.671 11.877C307.004 12.4629 308.176 13.2832 309.187 14.3379C310.212 15.3779 311.01 16.5718 311.582 17.9194C312.153 19.2671 312.438 20.7026 312.438 22.2261C312.438 23.7495 312.146 25.1924 311.56 26.5547C310.988 27.9023 310.197 29.0962 309.187 30.1362C308.176 31.1763 307.004 31.9966 305.671 32.5972C304.338 33.1831 302.91 33.4761 301.386 33.4761C299.365 33.4761 297.512 32.9634 295.827 31.938C294.157 30.8979 292.824 29.5283 291.828 27.8291C290.832 26.1152 290.334 24.2476 290.334 22.2261C290.334 20.1899 290.832 18.3223 291.828 16.623C292.824 14.9238 294.157 13.5615 295.827 12.5361C297.512 11.4961 299.365 10.9761 301.386 10.9761ZM301.386 12.624C299.658 12.624 298.083 13.0635 296.662 13.9424C295.241 14.8213 294.106 15.9932 293.256 17.458C292.407 18.9082 291.982 20.4976 291.982 22.2261C291.982 23.9546 292.407 25.5513 293.256 27.0161C294.106 28.4663 295.241 29.6309 296.662 30.5098C298.083 31.3887 299.658 31.8281 301.386 31.8281C303.115 31.8281 304.689 31.3887 306.11 30.5098C307.531 29.6309 308.667 28.4663 309.516 27.0161C310.366 25.5513 310.791 23.9546 310.791 22.2261C310.791 20.4976 310.366 18.9082 309.516 17.458C308.667 16.0078 307.531 14.8433 306.11 13.9644C304.689 13.0708 303.115 12.624 301.386 12.624Z" stroke="white" stroke-width="4" mask="url(#path-1-outside-1)"/>
<path d="M335.875 33.4102C334.615 33.4102 333.414 33.1392 332.271 32.5972C331.143 32.0405 330.154 31.3228 329.305 30.4438C328.47 29.5503 327.862 28.6055 327.481 27.6094V40.5513C327.481 41.0933 327.21 41.3643 326.668 41.3643C326.434 41.3643 326.236 41.2837 326.075 41.1226C325.914 40.9761 325.833 40.7856 325.833 40.5513V11.7451C325.833 11.5107 325.914 11.3203 326.075 11.1738C326.236 11.0127 326.434 10.9321 326.668 10.9321C327.21 10.9321 327.481 11.2031 327.481 11.7451V16.645C327.935 15.6636 328.572 14.7407 329.393 13.8765C330.228 12.9976 331.209 12.2871 332.337 11.7451C333.465 11.1885 334.717 10.9102 336.094 10.9102C338.072 10.9102 339.808 11.4302 341.302 12.4702C342.796 13.4956 343.953 14.8506 344.773 16.5352C345.608 18.2197 346.026 20.0435 346.026 22.0063C346.026 23.9692 345.594 25.8223 344.729 27.5654C343.865 29.3086 342.671 30.7222 341.148 31.8062C339.625 32.8755 337.867 33.4102 335.875 33.4102ZM344.378 22.0283C344.378 20.3438 344.034 18.7837 343.345 17.3481C342.657 15.9126 341.69 14.7554 340.445 13.8765C339.2 12.9976 337.742 12.5581 336.072 12.5581C334.314 12.5581 332.791 13.0195 331.502 13.9424C330.213 14.8506 329.217 16.0444 328.514 17.5239C327.825 18.9888 327.481 20.5635 327.481 22.248C327.481 23.9033 327.84 25.4561 328.558 26.9062C329.275 28.3564 330.264 29.5283 331.524 30.4219C332.784 31.3154 334.234 31.7622 335.875 31.7622C337.544 31.7622 339.017 31.3008 340.291 30.3779C341.565 29.4404 342.562 28.2319 343.279 26.7524C344.012 25.2729 344.378 23.6982 344.378 22.0283Z" stroke="white" stroke-width="4" mask="url(#path-1-outside-1)"/>
<path d="M359.442 11.5913C359.442 11.3862 359.516 11.2104 359.662 11.064C359.823 10.9028 360.006 10.8223 360.211 10.8223C360.417 10.8223 360.592 10.9028 360.739 11.064C360.9 11.2104 360.98 11.3862 360.98 11.5913V17.1064C361.273 16.125 361.764 15.1655 362.453 14.228C363.141 13.2905 364.013 12.5215 365.067 11.9209C366.122 11.3057 367.345 10.998 368.737 10.998C370.773 10.998 372.37 11.606 373.527 12.8218C374.684 14.0376 375.248 15.605 375.219 17.5239C375.497 16.4106 375.966 15.356 376.625 14.3599C377.299 13.3491 378.17 12.5288 379.24 11.8989C380.324 11.269 381.62 10.9614 383.129 10.9761C384.345 10.9907 385.363 11.291 386.183 11.877C387.018 12.4482 387.685 13.2173 388.183 14.1841C388.681 15.1509 389.04 16.2202 389.259 17.3921C389.479 18.5493 389.589 19.7139 389.589 20.8857L389.611 32.707C389.611 32.9121 389.53 33.0879 389.369 33.2344C389.223 33.3955 389.047 33.4761 388.842 33.4761C388.637 33.4761 388.454 33.3955 388.292 33.2344C388.146 33.0879 388.073 32.9121 388.073 32.707L388.051 20.8857C388.051 19.582 387.912 18.2856 387.633 16.9966C387.37 15.7075 386.879 14.6382 386.161 13.7886C385.458 12.939 384.447 12.5142 383.129 12.5142C381.342 12.5142 379.87 13.0122 378.712 14.0083C377.555 15.0044 376.698 16.3301 376.142 17.9854C375.585 19.626 375.307 21.4351 375.307 23.4126V32.6411C375.307 32.8462 375.226 33.0293 375.065 33.1904C374.918 33.3369 374.743 33.4102 374.538 33.4102C374.333 33.4102 374.149 33.3369 373.988 33.1904C373.842 33.0293 373.769 32.8462 373.769 32.6411V20.3804C373.769 19.0474 373.622 17.7876 373.329 16.6011C373.051 15.3999 372.545 14.4258 371.813 13.6787C371.095 12.917 370.07 12.5361 368.737 12.5361C366.92 12.5361 365.441 13.0195 364.298 13.9863C363.156 14.9531 362.321 16.2422 361.793 17.8535C361.266 19.4648 361.002 21.2446 361.002 23.1929L361.024 32.6851C361.024 32.8901 360.944 33.0659 360.783 33.2124C360.636 33.3735 360.46 33.4541 360.255 33.4541C360.05 33.4541 359.867 33.3735 359.706 33.2124C359.56 33.0659 359.486 32.8901 359.486 32.6851L359.442 11.6133V11.5913Z" stroke="white" stroke-width="4" mask="url(#path-1-outside-1)"/>
<path d="M414.431 33.6738C412.307 33.6738 410.381 33.1465 408.652 32.0918C406.938 31.0225 405.569 29.6016 404.543 27.8291C403.533 26.0566 403.027 24.1157 403.027 22.0063C403.027 19.9995 403.503 18.1465 404.456 16.4473C405.422 14.7334 406.719 13.3564 408.345 12.3164C409.985 11.2617 411.816 10.7344 413.838 10.7344C415.698 10.7344 417.405 11.1958 418.958 12.1187C420.51 13.0415 421.748 14.2793 422.671 15.832C423.608 17.3701 424.077 19.0913 424.077 20.9956C424.077 21.4058 424.041 21.7939 423.967 22.1602C423.894 22.5264 423.645 22.7095 423.22 22.7095L404.697 22.7314C404.829 24.4014 405.327 25.9395 406.191 27.3457C407.07 28.752 408.22 29.8872 409.641 30.7515C411.062 31.6011 412.651 32.0259 414.409 32.0259C415.815 32.0259 417.178 31.7183 418.496 31.103C419.829 30.4731 420.942 29.6162 421.836 28.5322C421.997 28.3271 422.217 28.2246 422.495 28.2246C422.729 28.2246 422.92 28.3052 423.066 28.4663C423.228 28.6274 423.308 28.8252 423.308 29.0596C423.308 29.25 423.242 29.4258 423.11 29.5869C422.056 30.876 420.759 31.8794 419.221 32.5972C417.683 33.3149 416.086 33.6738 414.431 33.6738ZM422.429 21.0176C422.429 19.4209 422.034 17.9707 421.243 16.667C420.466 15.3633 419.426 14.3232 418.123 13.5469C416.819 12.7705 415.383 12.3823 413.816 12.3823C412.175 12.3823 410.696 12.7852 409.377 13.5908C408.059 14.3965 406.99 15.4585 406.169 16.7769C405.349 18.0952 404.866 19.5308 404.719 21.0835L422.429 21.0615V21.0176Z" stroke="white" stroke-width="4" mask="url(#path-1-outside-1)"/>
<path d="M437.472 11.833V11.811C437.472 11.5474 437.56 11.3496 437.735 11.2178C437.911 11.0859 438.102 11.02 438.307 11.02C438.512 11.02 438.695 11.0859 438.856 11.2178C439.032 11.3496 439.12 11.5474 439.12 11.811V16.8208C439.984 15.1216 441.126 13.7227 442.547 12.624C443.968 11.5254 445.587 10.9761 447.403 10.9761C449.425 10.9761 451.08 11.4521 452.369 12.4043C453.658 13.3564 454.603 14.6455 455.204 16.2715C455.819 17.8828 456.126 19.6846 456.126 21.6768V32.6631C456.126 32.9268 456.039 33.1245 455.863 33.2563C455.702 33.3882 455.519 33.4541 455.313 33.4541C455.108 33.4541 454.918 33.3882 454.742 33.2563C454.566 33.1245 454.479 32.9268 454.479 32.6631V21.6768C454.479 19.9922 454.244 18.4688 453.775 17.1064C453.307 15.7441 452.56 14.6602 451.534 13.8545C450.523 13.0488 449.183 12.646 447.513 12.646C445.975 12.646 444.569 13.0928 443.294 13.9863C442.02 14.8652 441.002 15.9932 440.24 17.3701C439.493 18.7324 439.12 20.1533 439.12 21.6328L439.164 32.707C439.164 32.9707 439.076 33.1685 438.9 33.3003C438.724 33.4468 438.534 33.52 438.329 33.52C438.124 33.52 437.933 33.4468 437.757 33.3003C437.596 33.1685 437.516 32.9707 437.516 32.707L437.472 11.833Z" stroke="white" stroke-width="4" mask="url(#path-1-outside-1)"/>
<path d="M478.771 33.4761C477.248 33.4761 476.098 32.9927 475.322 32.0259C474.545 31.0591 474.157 29.8066 474.157 28.2686V28.1147L474.201 12.624H469.719C469.484 12.624 469.287 12.5508 469.125 12.4043C468.964 12.2432 468.884 12.0454 468.884 11.811C468.884 11.5767 468.964 11.3789 469.125 11.2178C469.287 11.0566 469.484 10.9761 469.719 10.9761H474.223V5.28516C474.223 5.05078 474.304 4.85303 474.465 4.69189C474.626 4.53076 474.824 4.4502 475.058 4.4502C475.292 4.4502 475.483 4.53076 475.629 4.69189C475.791 4.85303 475.871 5.05078 475.871 5.28516V10.9761H480.485C481.027 10.9761 481.298 11.2471 481.298 11.7891C481.298 12.0234 481.218 12.2212 481.057 12.3823C480.91 12.5435 480.72 12.624 480.485 12.624H475.849L475.805 28.1147V28.1367C475.805 29.2061 476.018 30.085 476.442 30.7734C476.867 31.4619 477.592 31.8062 478.618 31.8062C479.628 31.8062 480.529 31.5059 481.32 30.9053C481.496 30.7881 481.665 30.7295 481.826 30.7295C482.06 30.7295 482.258 30.8101 482.419 30.9712C482.58 31.1323 482.661 31.3301 482.661 31.5645C482.661 31.8281 482.543 32.0479 482.309 32.2236C481.84 32.5898 481.306 32.8901 480.705 33.1245C480.104 33.3589 479.46 33.4761 478.771 33.4761Z" stroke="white" stroke-width="4" mask="url(#path-1-outside-1)"/>
<path d="M32.731 81.4541C31.3101 81.4541 29.9624 81.1245 28.688 80.4653C27.4282 79.7915 26.3955 78.854 25.5898 77.6528C24.7988 76.4517 24.4033 75.0601 24.4033 73.478C24.4033 71.8374 24.8062 70.4604 25.6118 69.3472C26.4175 68.2339 27.3989 67.3037 28.5562 66.5566C29.728 65.7949 30.856 65.1284 31.9399 64.5571C31.4419 63.8979 30.8853 63.2168 30.27 62.5137C29.6548 61.7959 29.1274 61.0049 28.688 60.1406C28.2485 59.2617 28.0288 58.2656 28.0288 57.1523C28.0288 56.0391 28.3071 55.021 28.8638 54.0981C29.4204 53.1606 30.1675 52.4136 31.105 51.8569C32.0425 51.3003 33.0679 51.022 34.1812 51.022C35.3091 51.022 36.3345 51.3003 37.2573 51.8569C38.1948 52.3989 38.9346 53.1313 39.4766 54.0542C40.0332 54.9771 40.3115 56.0024 40.3115 57.1304C40.3115 58.4487 39.9893 59.606 39.3447 60.6021C38.7148 61.5981 37.9312 62.4624 36.9937 63.1948C36.0708 63.9272 35.1626 64.5425 34.269 65.0405C35.4116 66.5054 36.5542 67.9775 37.6968 69.457C38.8394 70.9219 39.9819 72.394 41.1245 73.8735C41.564 72.9653 41.9229 71.9473 42.2012 70.8193C42.4795 69.6914 42.6406 68.5122 42.6846 67.2817C42.6846 67.0767 42.7578 66.9009 42.9043 66.7544C43.0654 66.6079 43.2485 66.5347 43.4536 66.5347C43.6587 66.5347 43.8345 66.6152 43.981 66.7764C44.1421 66.9229 44.2227 67.0986 44.2227 67.3037C44.2227 68.8125 44.0249 70.2407 43.6294 71.5884C43.2339 72.936 42.7432 74.1519 42.1572 75.2358C42.8164 76.0854 43.4756 76.9424 44.1348 77.8066C44.8086 78.6562 45.4751 79.5132 46.1343 80.3774C46.2515 80.5239 46.3101 80.6851 46.3101 80.8608C46.3101 81.0659 46.2295 81.2417 46.0684 81.3882C45.9219 81.5493 45.7461 81.6299 45.541 81.6299C45.292 81.6299 45.0869 81.52 44.9258 81.3003C44.3252 80.5239 43.7173 79.7476 43.1021 78.9712C42.5015 78.1802 41.9009 77.3965 41.3003 76.6201C40.4067 77.9092 39.2056 79.0371 37.6968 80.0039C36.188 80.9707 34.5327 81.4541 32.731 81.4541ZM38.7734 57.1304C38.7734 55.8853 38.3267 54.8159 37.4331 53.9224C36.5396 53.0142 35.4629 52.5601 34.2031 52.5601C32.958 52.5601 31.874 53.0068 30.9512 53.9004C30.0283 54.7939 29.5669 55.8926 29.5669 57.1963C29.5669 58.0898 29.7866 58.9321 30.2261 59.7231C30.6655 60.4995 31.1782 61.2246 31.7642 61.8984C32.3501 62.5723 32.8701 63.2095 33.3242 63.8101C34.1152 63.3706 34.9282 62.8433 35.7632 62.228C36.6128 61.6128 37.3232 60.8877 37.8945 60.0527C38.4805 59.2031 38.7734 58.229 38.7734 57.1304ZM25.9414 73.5439C25.9414 74.8037 26.2637 75.917 26.9082 76.8838C27.5674 77.8359 28.417 78.583 29.457 79.125C30.4971 79.6523 31.5884 79.916 32.731 79.916C34.3423 79.916 35.8145 79.4546 37.1475 78.5317C38.4951 77.5942 39.5498 76.5322 40.3115 75.3457C39.0811 73.749 37.8433 72.1597 36.5981 70.5776C35.3677 68.981 34.1372 67.3843 32.9067 65.7876C31.9253 66.3149 30.8926 66.9082 29.8086 67.5674C28.7246 68.2119 27.8091 69.0103 27.062 69.9624C26.3149 70.9146 25.9414 72.1084 25.9414 73.5439Z" stroke="white" stroke-width="4" mask="url(#path-1-outside-1)"/>
<path d="M88.5239 51.1318C91.9956 51.1318 95.0718 51.6812 97.7524 52.7798C100.433 53.8638 102.535 55.5264 104.059 57.7676C105.582 59.9941 106.344 62.8213 106.344 66.249C106.344 69.6035 105.597 72.4014 104.103 74.6426C102.608 76.8838 100.55 78.5684 97.9282 79.6963C95.3062 80.8096 92.2959 81.3662 88.8975 81.3662C87.7842 81.3662 86.6709 81.3589 85.5576 81.3442C84.459 81.3296 83.353 81.3149 82.2397 81.3003C82.02 81.3003 81.8296 81.2197 81.6685 81.0586C81.5073 80.8828 81.4268 80.6851 81.4268 80.4653L81.5806 51.9888C81.5806 51.769 81.6611 51.5786 81.8223 51.4175C81.9834 51.2417 82.1738 51.1538 82.3936 51.1538L88.5239 51.1318ZM83.2285 52.8018L83.0747 79.6523C84.0269 79.667 84.979 79.6816 85.9312 79.6963C86.8833 79.7109 87.8501 79.7183 88.8315 79.7183C91.937 79.7183 94.6836 79.2349 97.0713 78.2681C99.459 77.3013 101.327 75.8218 102.674 73.8296C104.022 71.8374 104.696 69.3105 104.696 66.249C104.696 63.1143 104 60.5581 102.608 58.5806C101.231 56.603 99.3271 55.1455 96.8955 54.208C94.4639 53.2559 91.6587 52.7798 88.48 52.7798L83.2285 52.8018Z" stroke="white" stroke-width="4" mask="url(#path-1-outside-1)"/>
<path d="M130.263 81.6738C128.139 81.6738 126.213 81.1465 124.484 80.0918C122.771 79.0225 121.401 77.6016 120.375 75.8291C119.365 74.0566 118.859 72.1157 118.859 70.0063C118.859 67.9995 119.335 66.1465 120.288 64.4473C121.254 62.7334 122.551 61.3564 124.177 60.3164C125.817 59.2617 127.648 58.7344 129.67 58.7344C131.53 58.7344 133.237 59.1958 134.79 60.1187C136.342 61.0415 137.58 62.2793 138.503 63.832C139.44 65.3701 139.909 67.0913 139.909 68.9956C139.909 69.4058 139.873 69.7939 139.799 70.1602C139.726 70.5264 139.477 70.7095 139.052 70.7095L120.529 70.7314C120.661 72.4014 121.159 73.9395 122.023 75.3457C122.902 76.752 124.052 77.8872 125.473 78.7515C126.894 79.6011 128.483 80.0259 130.241 80.0259C131.647 80.0259 133.01 79.7183 134.328 79.103C135.661 78.4731 136.774 77.6162 137.668 76.5322C137.829 76.3271 138.049 76.2246 138.327 76.2246C138.562 76.2246 138.752 76.3052 138.898 76.4663C139.06 76.6274 139.14 76.8252 139.14 77.0596C139.14 77.25 139.074 77.4258 138.942 77.5869C137.888 78.876 136.591 79.8794 135.053 80.5972C133.515 81.3149 131.918 81.6738 130.263 81.6738ZM138.261 69.0176C138.261 67.4209 137.866 65.9707 137.075 64.667C136.298 63.3633 135.258 62.3232 133.955 61.5469C132.651 60.7705 131.215 60.3823 129.648 60.3823C128.007 60.3823 126.528 60.7852 125.209 61.5908C123.891 62.3965 122.822 63.4585 122.001 64.7769C121.181 66.0952 120.698 67.5308 120.551 69.0835L138.261 69.0615V69.0176Z" stroke="white" stroke-width="4" mask="url(#path-1-outside-1)"/>
<path d="M162.906 58.9321C164.825 58.9321 166.553 59.335 168.091 60.1406C169.644 60.9316 170.801 62.0303 171.563 63.4365C171.622 63.5537 171.651 63.6782 171.651 63.8101C171.651 64.0151 171.57 64.1982 171.409 64.3594C171.263 64.5059 171.087 64.5791 170.882 64.5791C170.574 64.5791 170.347 64.4399 170.201 64.1616C169.585 62.9897 168.626 62.0815 167.322 61.437C166.019 60.7925 164.546 60.4702 162.906 60.4702C162.056 60.4702 161.155 60.5654 160.203 60.7559C159.266 60.9316 158.379 61.21 157.544 61.5908C156.724 61.9717 156.05 62.4697 155.523 63.085C155.01 63.7002 154.754 64.4473 154.754 65.3262C154.754 66.1318 155.01 66.7764 155.523 67.2598C156.05 67.7285 156.607 68.0874 157.193 68.3364C158.335 68.8052 159.566 69.0981 160.884 69.2153C162.217 69.3179 163.558 69.4131 164.905 69.501C166.268 69.5889 167.549 69.8452 168.75 70.27C169.703 70.5923 170.567 71.127 171.343 71.874C172.12 72.6211 172.508 73.6318 172.508 74.9062C172.508 76.4443 172.032 77.6968 171.08 78.6636C170.142 79.6304 168.941 80.3408 167.476 80.7949C166.026 81.2344 164.539 81.4541 163.016 81.4541C160.76 81.4541 158.731 81.0366 156.929 80.2017C155.142 79.3521 153.816 78.0996 152.952 76.4443C152.894 76.3271 152.864 76.21 152.864 76.0928C152.864 75.8877 152.938 75.7119 153.084 75.5654C153.245 75.4043 153.428 75.3237 153.633 75.3237C153.956 75.3237 154.183 75.4629 154.314 75.7412C155.047 77.1621 156.182 78.2168 157.72 78.9053C159.258 79.5791 161.023 79.916 163.016 79.916C164.261 79.916 165.491 79.7549 166.707 79.4326C167.923 79.1104 168.934 78.583 169.739 77.8506C170.56 77.1035 170.97 76.1221 170.97 74.9062C170.97 74.0127 170.684 73.3169 170.113 72.8188C169.556 72.3208 168.934 71.9546 168.245 71.7202C167.029 71.2954 165.748 71.0391 164.4 70.9512C163.052 70.8486 161.712 70.7461 160.379 70.6436C159.046 70.5264 157.786 70.2334 156.6 69.7646C155.765 69.4277 154.988 68.8931 154.271 68.1606C153.567 67.4282 153.216 66.4834 153.216 65.3262C153.216 64.1836 153.509 63.2095 154.095 62.4038C154.695 61.5981 155.472 60.939 156.424 60.4263C157.391 59.9136 158.438 59.54 159.566 59.3057C160.708 59.0566 161.822 58.9321 162.906 58.9321Z" stroke="white" stroke-width="4" mask="url(#path-1-outside-1)"/>
<path d="M186.452 51.8569C186.452 51.6372 186.525 51.4468 186.671 51.2856C186.833 51.1245 187.03 51.0439 187.265 51.0439C187.499 51.0439 187.697 51.1245 187.858 51.2856C188.019 51.4321 188.1 51.6226 188.1 51.8569V53.2852C188.1 53.5195 188.019 53.7173 187.858 53.8784C187.697 54.0396 187.499 54.1201 187.265 54.1201C187.03 54.1201 186.833 54.0396 186.671 53.8784C186.525 53.7173 186.452 53.5195 186.452 53.2852V51.8569ZM187.287 58.9541C187.521 58.9541 187.711 59.0347 187.858 59.1958C188.019 59.3569 188.1 59.5547 188.1 59.7891L187.99 80.6411V80.6631C187.99 81.2051 187.719 81.4761 187.177 81.4761C186.62 81.4761 186.342 81.1978 186.342 80.6411L186.452 59.7891C186.452 59.5547 186.532 59.3569 186.693 59.1958C186.854 59.0347 187.052 58.9541 187.287 58.9541Z" stroke="white" stroke-width="4" mask="url(#path-1-outside-1)"/>
<path d="M212.437 58.9321C213.784 58.9321 215.081 59.2324 216.326 59.833C217.585 60.4189 218.677 61.1807 219.6 62.1182C220.522 63.041 221.174 64.0225 221.555 65.0625L221.599 59.7012C221.599 59.4668 221.672 59.269 221.819 59.1079C221.98 58.9468 222.178 58.8662 222.412 58.8662C222.969 58.8662 223.247 59.1519 223.247 59.7231L223.071 81.3223C223.057 82.8311 222.734 84.252 222.104 85.585C221.475 86.918 220.61 88.0972 219.512 89.1226C218.428 90.1479 217.183 90.9536 215.776 91.5396C214.37 92.1255 212.876 92.4185 211.294 92.4185C209.521 92.4185 207.815 92.0229 206.174 91.2319C204.534 90.4409 203.157 89.3496 202.043 87.958C201.912 87.7969 201.846 87.6211 201.846 87.4307C201.846 87.1963 201.926 86.9985 202.087 86.8374C202.249 86.6909 202.446 86.6177 202.681 86.6177C202.974 86.6177 203.193 86.7202 203.34 86.9253C204.292 88.1118 205.479 89.0493 206.899 89.7378C208.32 90.4263 209.785 90.7705 211.294 90.7705C213.11 90.7705 214.78 90.3311 216.304 89.4521C217.842 88.5732 219.072 87.4087 219.995 85.9585C220.933 84.5229 221.409 82.9482 221.423 81.2344L221.467 76.3345C220.618 77.8433 219.373 79.125 217.732 80.1797C216.106 81.2344 214.326 81.7617 212.393 81.7617C210.386 81.7617 208.577 81.2344 206.965 80.1797C205.369 79.1104 204.102 77.7114 203.164 75.9829C202.227 74.2397 201.758 72.3647 201.758 70.3579C201.758 68.8491 202.029 67.4136 202.571 66.0513C203.113 64.6743 203.867 63.4512 204.834 62.3818C205.801 61.3125 206.929 60.4702 208.218 59.855C209.521 59.2397 210.928 58.9321 212.437 58.9321ZM221.379 70.3359C221.379 68.6221 220.991 67.0254 220.215 65.5459C219.438 64.0664 218.376 62.8726 217.029 61.9644C215.681 61.0415 214.158 60.5801 212.458 60.5801C210.745 60.5801 209.207 61.0415 207.844 61.9644C206.482 62.8726 205.398 64.0737 204.592 65.5679C203.801 67.0474 203.406 68.644 203.406 70.3579C203.406 72.0718 203.801 73.6685 204.592 75.1479C205.383 76.6274 206.453 77.8286 207.8 78.7515C209.163 79.6597 210.693 80.1138 212.393 80.1138C214.092 80.1138 215.615 79.6597 216.963 78.7515C218.325 77.8286 219.402 76.6274 220.193 75.1479C220.984 73.6538 221.379 72.0498 221.379 70.3359Z" stroke="white" stroke-width="4" mask="url(#path-1-outside-1)"/>
<path d="M237.213 59.833V59.811C237.213 59.5474 237.301 59.3496 237.477 59.2178C237.652 59.0859 237.843 59.02 238.048 59.02C238.253 59.02 238.436 59.0859 238.597 59.2178C238.773 59.3496 238.861 59.5474 238.861 59.811V64.8208C239.725 63.1216 240.868 61.7227 242.289 60.624C243.709 59.5254 245.328 58.9761 247.145 58.9761C249.166 58.9761 250.821 59.4521 252.11 60.4043C253.399 61.3564 254.344 62.6455 254.945 64.2715C255.56 65.8828 255.868 67.6846 255.868 69.6768V80.6631C255.868 80.9268 255.78 81.1245 255.604 81.2563C255.443 81.3882 255.26 81.4541 255.055 81.4541C254.85 81.4541 254.659 81.3882 254.483 81.2563C254.308 81.1245 254.22 80.9268 254.22 80.6631V69.6768C254.22 67.9922 253.985 66.4688 253.517 65.1064C253.048 63.7441 252.301 62.6602 251.275 61.8545C250.265 61.0488 248.924 60.646 247.254 60.646C245.716 60.646 244.31 61.0928 243.036 61.9863C241.761 62.8652 240.743 63.9932 239.981 65.3701C239.234 66.7324 238.861 68.1533 238.861 69.6328L238.905 80.707C238.905 80.9707 238.817 81.1685 238.641 81.3003C238.465 81.4468 238.275 81.52 238.07 81.52C237.865 81.52 237.674 81.4468 237.499 81.3003C237.337 81.1685 237.257 80.9707 237.257 80.707L237.213 59.833Z" stroke="white" stroke-width="4" mask="url(#path-1-outside-1)"/>
</svg>
