<?xml version="1.0" encoding="UTF-8"?>
<svg enable-background="new 0 0 1514 1670.13" version="1.1" viewBox="0 0 1514 1670.13" xmlns="http://www.w3.org/2000/svg">
 <path d="m950.8 337.23v24.944l-1.693 1.693-19.291 19.228v14.309h75.983l13.127 13.127v54.296h26.254v-41.936l1.373-1.405 33.728-33.696 1.405-1.437h19.899l1.437 1.437 33.504 33.568h205.34c-1.358-3.256-2.714-6.488-4.152-9.709h-187.67l-1.182-1.118-22.005-22.037c-4.11-0.625-7.282-4.144-7.282-8.432 0-4.73 3.83-8.528 8.56-8.528s8.56 3.798 8.56 8.528c0 2.006-0.732 3.813-1.885 5.27l18.493 18.493h180.78c-1.071-2.276-2.178-4.545-3.29-6.803l-3.545 3.545-0.543 0.575h-113.18l-0.543-0.575-12.52-12.583c-1.123 0.541-2.372 0.894-3.705 0.894-4.73 0-8.56-3.83-8.56-8.56s3.829-8.56 8.56-8.56c4.73 0 8.528 3.83 8.528 8.56 0 1.976-0.7 3.728-1.821 5.174l11.722 11.754h109.87l3.929-3.96c-1.885-3.737-3.82-7.431-5.813-11.115h-82.945c-0.933 3.713-4.234 6.452-8.24 6.452-4.73 0-8.624-3.829-8.624-8.56 0-4.73 3.894-8.528 8.624-8.528 4.093 0 7.459 2.873 8.304 6.707h80.71c-2.498-4.507-5.039-8.959-7.697-13.383h-128.52l-13.255 13.318c0.137 0.615 0.224 1.227 0.224 1.884 0 4.73-3.798 8.56-8.528 8.56s-8.56-3.829-8.56-8.56c0-4.73 3.829-8.528 8.56-8.528 2.597 0 4.885 1.149 6.452 2.97l12.935-13.031 0.607-0.511h127.73c-4.39-7.138-9-14.174-13.798-21.08l-10.668 10.7-1.757 1.693h-45.417c-1.488 2.511-4.177 4.216-7.314 4.216-4.73 0-8.624-3.829-8.624-8.56 0-4.73 3.894-8.56 8.624-8.56 1.543 0 2.936 0.47 4.184 1.182h43.661l10.38-10.38c-2.47-3.365-5.004-6.693-7.57-9.997l-9.294 9.326-0.639 0.543h-49.601l-17.949 17.949c-0.625 4.11-4.113 7.25-8.4 7.25-4.73 0-8.56-3.797-8.56-8.528 0-4.73 3.829-8.56 8.56-8.56 3.448 0 6.376 2.051 7.729 4.983l16.449-16.449 0.511-0.543h49.664l9.071-9.071c-2.157-2.729-4.325-5.458-6.547-8.145l-10.348 10.348-0.831 0.862h-45.065l-12.872 12.839-0.83 0.862h-21.399l-10.7 10.668c-0.021 0.011-0.042 0.021-0.063 0.032 0.137 0.615 0.224 1.291 0.224 1.948 0 4.731-3.798 8.592-8.528 8.592s-8.56-3.861-8.56-8.592c0-4.73 3.829-8.56 8.56-8.56 1.883 0 3.572 0.602 4.982 1.629l10.763-10.732 0.862-0.862h21.43l12.776-12.839 0.958-0.831h45.034l9.837-9.869c-1.987-2.342-4-4.655-6.036-6.963l-9.135 9.135-0.862 0.862h-77.484l-38.997 38.966c0.023 0.267 0.063 0.492 0.063 0.767 0 4.73-3.798 8.623-8.528 8.623s-8.56-3.893-8.56-8.623 3.829-8.56 8.56-8.56c2.208 0 4.138 0.899 5.653 2.268l38.519-38.455 0.83-0.862h77.517l8.528-8.528c-2.08-2.3-4.195-4.571-6.324-6.835l-10.763 10.795-0.862 0.862h-26.669l-0.894-1.501-9.007-15.714h-0.256c-0.229 4.524-3.914 8.081-8.496 8.081-4.73 0-8.528-3.829-8.528-8.56 0-4.73 3.797-8.528 8.528-8.528 2.645 0 4.981 1.25 6.547 3.13h5.557l0.83 1.437 9.135 15.778h20.824l10.029-10.029c-3.38-3.507-6.822-6.995-10.317-10.412l-2.427 2.427c1.654 1.558 2.715 3.739 2.715 6.196 0 4.731-3.861 8.56-8.592 8.56-4.73 0-8.56-3.829-8.56-8.56 0-4.688 3.822-8.462 8.496-8.528l4.152-4.152c-17.439-16.647-36.251-32.165-56.277-46.407v3.545l13.542 13.542c1.098-0.512 2.347-0.862 3.641-0.862 4.73 0 8.528 3.861 8.528 8.592s-3.798 8.56-8.528 8.56-8.592-3.829-8.592-8.56c0-1.263 0.341-2.499 0.83-3.577l-14.436-14.405-0.862-0.83v-10.093c-2.671-1.845-5.369-3.662-8.081-5.462v25.615c2.686 1.44 4.503 4.206 4.503 7.474 0 4.73-3.861 8.624-8.592 8.624-4.73 0-8.56-3.893-8.56-8.624 0-4.093 2.924-7.427 6.771-8.272v-28.681c-4.061-2.618-8.179-5.181-12.328-7.697v58.736l12.201 12.233c0.851-0.281 1.74-0.511 2.683-0.511 4.73 0 8.56 3.798 8.56 8.528s-3.829 8.56-8.56 8.56c-4.73 0-8.592-3.829-8.592-8.56 0-1.643 0.468-3.138 1.278-4.44l-12.616-12.616-0.798-0.798v-64.645c-2.397-1.413-4.793-2.806-7.218-4.184v61.356l-0.894 0.83-16.353 16.48v25.136l-0.83 0.862-47.781 47.749c0.4 0.991 0.575 2.09 0.575 3.226 0 4.73-3.766 8.56-8.496 8.56s-8.624-3.829-8.624-8.56c0-4.73 3.894-8.56 8.624-8.56 1.443 0 2.769 0.425 3.96 1.054l46.694-46.759v-25.161l0.862-0.862 16.384-16.416v-62.217c-2.233-1.233-4.452-2.437-6.707-3.641v64.069l-0.862 0.926-20.6 20.6v5.014c2.274 1.535 3.801 4.102 3.801 7.059 0 4.73-3.829 8.528-8.56 8.528s-8.528-3.797-8.528-8.528c0-4.35 3.244-7.916 7.442-8.464v-6.068l0.862-0.862 20.569-20.569v-64.357l0.255-0.287c-1.24-0.644-2.49-1.282-3.737-1.916v53.083l-0.862 0.894-9.582 9.582c0.874 1.341 1.373 2.939 1.373 4.663 0 4.73-3.765 8.496-8.496 8.496-4.73 0-8.592-3.765-8.592-8.496 0-4.73 3.861-8.591 8.592-8.591 0.831 0 1.605 0.164 2.364 0.383l9.326-9.358v-53.626c-3.672-1.814-7.358-3.564-11.083-5.302l-15.203 15.235v77.868l-0.894 0.83-11.467 11.498c1.202 1.472 1.948 3.311 1.948 5.366 0 4.73-3.797 8.528-8.528 8.528-4.73 0-8.624-3.797-8.624-8.528s3.893-8.56 8.624-8.56c0.464 0 0.866 0.025 1.309 0.096l11.754-11.689v-77.901l0.862-0.862 14.533-14.532c-3.037-1.375-6.095-2.7-9.167-4.024l-18.556 18.556v55.702c-0.018 0.162-0.051 0.322-0.096 0.479 4.048 0.678 7.122 4.189 7.122 8.432 0 4.73-3.766 8.496-8.496 8.496s-8.656-3.765-8.656-8.496c0-3.276 1.915-6.102 4.631-7.538-0.239-0.419-0.37-0.891-0.383-1.373v-58.13l0.83-0.83 17.79-17.758c-3.101-1.295-6.224-2.526-9.358-3.769l-19.228 19.195v118.9l10.668 10.668c1.115-0.523 2.396-0.831 3.705-0.831 4.73 0 8.496 3.83 8.496 8.56s-3.766 8.592-8.496 8.592-8.655-3.861-8.655-8.592c0-1.282 0.32-2.486 0.83-3.577l-11.529-11.594-0.862-0.83v-123.68l0.862-0.862 18.269-18.301c-5.443-2.087-10.943-4.109-16.481-6.036l-13.574 13.574v75.504c2.645 1.452 4.439 4.205 4.439 7.442 0 4.73-3.83 8.56-8.56 8.56s-8.528-3.829-8.528-8.56c0-4.119 2.867-7.55 6.739-8.368v-77.037l0.862-0.831 12.424-12.424c-4.819-1.614-9.679-3.14-14.564-4.631l-11.913 11.913v97.063l21.942 21.942c0.502 0.516 0.798 1.197 0.831 1.916 0.903 1.366 1.501 3.036 1.501 4.791 0 4.731-3.83 8.528-8.56 8.528s-8.528-3.797-8.528-8.528c0-3.547 2.136-6.671 5.206-7.985l-17.438-17.438-0.862-0.862v-101.79l0.862-0.862 10.572-10.572c-4.479-1.311-8.948-2.626-13.479-3.833l-2.715 2.715v118.21l10.891 11.05 0.83 0.83v27.787l12.361 7.154c0.521-0.096 1.016-0.16 1.565-0.16 4.73 0 8.56 3.83 8.56 8.56s-3.83 8.56-8.56 8.56-8.528-3.829-8.528-8.56c0-1.791 0.5-3.483 1.437-4.855l-11.243-6.484-1.437-0.83v-28.778l-10.891-10.923-0.862-0.862v-123.03l0.926-0.894 1.182-1.15c-3.127-0.794-6.303-1.556-9.454-2.3v125.52l8.528 14.756 0.383 0.639v34.59l29.671 29.671c0.105 0 0.181-0.063 0.287-0.063 4.73 0 8.56 3.861 8.56 8.592 0 4.73-3.83 8.496-8.56 8.496s-8.528-3.765-8.528-8.496c0-2.334 0.916-4.495 2.427-6.036l-28.873-28.873-0.862-0.83v-35.516l-8.432-14.596-0.447-0.671v-128.56c-0.849-0.191-1.705-0.356-2.555-0.543v167.24l-0.862 0.83-10.413 10.508c0.454 1.044 0.703 2.236 0.703 3.449 0 4.73-3.829 8.56-8.56 8.56-4.73 0-8.528-3.829-8.528-8.56 0-4.73 3.797-8.56 8.528-8.56 1.363 0 2.658 0.33 3.801 0.894l9.454-9.454v-166.17c-2.339-0.49-4.676-0.943-7.027-1.405v110.86c0 0.289-0.022 0.577-0.064 0.862 1.457 1.533 2.395 3.558 2.395 5.845 0 4.73-3.829 8.56-8.56 8.56-4.73 0-8.528-3.829-8.528-8.56 0-2.614 1.224-4.916 3.066-6.484-1e-3 -0.074-1e-3 -0.149 0-0.224v-113.03c-2.805-0.492-5.61-0.985-8.432-1.437v134.82l12.457 12.457c0.709-0.193 1.434-0.383 2.204-0.383 4.73 0 8.528 3.893 8.528 8.624 0 4.73-3.797 8.528-8.528 8.528s-8.56-3.798-8.56-8.528c0-1.05 0.199-2.101 0.543-3.034l-13.318-13.287-1.15-1.182v-139.18c-2.881-0.422-5.791-0.833-8.688-1.214l-0.029-0.019v190.26l21.432 21.4 1.702 1.661zm112.55 34.313c4.73 0 8.624 3.798 8.624 8.528s-3.894 8.56-8.624 8.56-8.56-3.829-8.56-8.56c1e-3 -4.731 3.83-8.528 8.56-8.528zm-35.164 0.223c4.73 0 8.528 3.83 8.528 8.56s-3.798 8.56-8.528 8.56-8.56-3.83-8.56-8.56 3.83-8.56 8.56-8.56zm-33.537-0.223c4.73 0 8.56 3.798 8.56 8.528s-3.83 8.56-8.56 8.56-8.624-3.829-8.624-8.56 3.894-8.528 8.624-8.528zm-35.068 0c4.73 0 8.592 3.798 8.592 8.528s-3.861 8.56-8.592 8.56-8.496-3.829-8.496-8.56 3.766-8.528 8.496-8.528z"/>
 <path d="m1276.7 804.41h-115.97l2e-3 -3e-3 -21.463 21.463v42.159l-0.319 0.447-4.567 8.017v35.996l15.586 15.586h11.561l0.575 0.543 13.511 13.51c1.943-1.361 3.893-2.704 5.813-4.088l-14.277-15.682h-16.608l-0.639-0.511-10.445-10.539-0.639-0.543v-36.059l0.639-0.575 5.749-5.813v-20.152l0.958-0.543 9.454-5.462 0.447-0.287h61.482l0.575 0.607 8.464 8.528c1.244-0.638 2.635-1.054 4.12-1.054 5.132 0 9.262 4.284 9.262 9.582s-4.131 9.55-9.262 9.55-9.326-4.252-9.326-9.55c0-2.326 0.871-4.44 2.204-6.1l-7.665-7.665h-58.768l-8.049 4.663v19.547l-0.543 0.543-5.813 5.813v32.802l9.358 9.326h16.767l0.639 0.671 15.044 16.608c4.404-3.224 8.75-6.49 13.031-9.837h-14.117l-0.543-0.607-13.542-13.446h-11.754l-0.639-0.607-8.879-8.879-0.607-0.639v-21.622l0.607-0.543 12.52-12.52c-2.177-1.754-3.609-4.431-3.609-7.506 0-5.297 4.163-9.582 9.294-9.582s9.262 4.284 9.262 9.582c0 5.297-4.131 9.55-9.262 9.55-0.69 0-1.334-0.075-1.98-0.224l-12.935 12.872v18.365l7.857 7.793h11.786l0.543 0.543 13.511 13.574h17.375c1.329-1.066 2.676-2.148 3.992-3.226h-22.549l-0.543-0.543-15.362-15.394c-0.549 0.104-1.114 0.16-1.693 0.16-5.132 0-9.294-4.284-9.294-9.582 0-4.966 3.619-9.09 8.304-9.582 0.313-0.034 0.669 0 0.99 0 5.132 0 9.262 4.285 9.262 9.582 0 3.169-1.445 5.984-3.737 7.729l13.701 13.734h25.616l0.031 0.032c1.038-0.871 2.036-1.773 3.066-2.651l-1.885-1.757h-20.952l-0.543-0.511-10.956-10.955-0.511-0.543v-0.703l-0.575-24.05v-0.99l0.798-0.639 10.444-7.953c-0.745-1.381-1.214-2.937-1.214-4.631 0-5.297 4.131-9.582 9.262-9.582s9.358 4.285 9.358 9.582-4.226 9.55-9.358 9.55c-2.092 0-4.006-0.744-5.557-1.948l-9.837 7.57 0.575 22.23 9.677 9.677h20.921l0.511 0.575 2.811 2.523c1.158-1.003 2.334-2.022 3.481-3.034l-11.274-11.274h-2.14c-0.876 4.37-4.676 7.601-9.167 7.601-5.132 0-9.262-4.284-9.262-9.582 0-4.966 3.651-9.09 8.336-9.582 0.312-0.034 0.605 0 0.926 0 4.49 0 8.29 3.263 9.167 7.633h3.801l0.511 0.543 12.041 12.041c0.839-0.752 1.658-1.511 2.491-2.268-2.844-1.638-4.759-4.768-4.759-8.368 0-4.966 3.651-9.09 8.336-9.582 0.312-0.034 0.669 0 0.99 0 3.519 0 6.506 2.007 8.081 4.982h1.118c7.663-7.52 15.036-15.267 22.133-23.22l-37.208-37.241h-19.483c-0.63 4.662-4.475 8.272-9.166 8.272-5.132 0-9.262-4.284-9.262-9.582 0-5.297 4.131-9.582 9.262-9.582 4.27 0 7.825 2.946 8.911 6.995h21.367l0.607 0.639 37.592 37.529c5.002-5.699 9.863-11.5 14.564-17.406l-9.614-9.614c-0.763 0.208-1.568 0.319-2.395 0.319-5.132 0-9.326-4.252-9.326-9.55 0-5.297 4.194-9.582 9.326-9.582s9.262 4.284 9.262 9.582c0 2.947-1.266 5.588-3.29 7.346l8.464 8.432c1.091-1.395 2.151-2.81 3.226-4.216l-4.344-4.344-0.639-0.575v-13.542l-8.4-8.368h-90.292l-10.795 10.795c1.186 1.611 1.916 3.632 1.916 5.813 0 5.297-4.194 9.582-9.326 9.582s-9.326-4.284-9.326-9.582c0-4.966 3.714-9.122 8.4-9.614 0.313-0.034 0.605 0 0.926 0 1.609 0 3.121 0.535 4.439 1.278l11.594-11.626 0.543-0.543h93.549l0.543 0.543 9.614 9.582 0.543 0.543v13.51l3.417 3.449c1.467-1.954 2.942-3.934 4.376-5.909-0.35-1.009-0.543-2.092-0.543-3.226 0-1.957 0.559-3.817 1.533-5.334l-15.902-15.969z"/>
 <path d="m1147.2 775.7h149.02l51.997-52.028c1.941-5.247 3.762-10.513 5.493-15.841l-61.577 61.545-0.511 0.543h-140.69l-0.607-0.543-5.11-5.078-0.543-0.607v-10.796l-6.707-3.896h-16.577l-6.547 6.484v22.293l-0.575 0.607-25.52 25.455v99.746l48.931 48.931h14.181l0.607 0.543 2.651 2.747c1.472-0.931 2.947-1.867 4.407-2.811l-6.196-6.196h-13.989l-0.575-0.575-46.344-46.279-0.543-0.639v-77.388l0.543-0.575 14.884-14.883c-1.282-1.644-2.044-3.664-2.044-5.941 0-5.297 4.131-9.582 9.262-9.582 5.132 0 9.326 4.284 9.326 9.582 0 5.297-4.195 9.582-9.326 9.582-1.532 0-2.911-0.44-4.184-1.118l-14.564 14.468v74.291l45.226 45.162h13.926l0.607 0.575 7.346 7.314c0.869-0.571 1.722-1.149 2.587-1.725l-11.657-11.722h-9.135l-0.575-0.511-41.234-41.265-0.543-0.543v-63.942l0.543-0.607 46.407-46.44 0.639-0.511h170.74c9.146-16.43 17.201-33.422 24.114-50.879l-46.344 46.344-0.543 0.607h-152.26l-0.607-0.607-9.071-9.071c-1.691 1.846-4.177 3.034-6.835 3.034-5.132 0-9.262-4.284-9.262-9.582 0-4.966 3.682-9.122 8.368-9.614 0.313-0.034 0.573 0 0.894 0 5.132 0 9.326 4.317 9.326 9.614 0 1.049-0.179 2.026-0.479 2.97l9.232 9.358z"/>
 <path d="m1151.4 787.42l-45.194 45.226v60.78l40.019 40.019h9.23l0.511 0.607 12.839 12.776c1.182-0.8 2.371-1.618 3.545-2.427l-12.457-12.392h-11.561l-0.543-0.575-16.768-16.736-0.543-0.575v-38.711l0.224-0.415 4.663-8.081v-42.543l0.575-0.607 22.677-22.741 0.639-0.511h119.01l0.543 0.511 16.608 16.64c1.437-0.941 3.121-1.565 4.951-1.565h0.255c4.432-6.567 8.677-13.254 12.744-20.026h-155.89l-34.398 34.398v18.971c4.233 0.905 7.41 4.883 7.41 9.518 0 5.297-4.163 9.582-9.294 9.582s-9.262-4.284-9.262-9.582c0-4.585 3.086-8.494 7.25-9.454v-20.696l0.607-0.543 35.579-35.548 0.511-0.543h159.82c0.925-1.577 1.81-3.172 2.715-4.759h-167.01l6e-3 2e-3z"/>
 <path d="m1422.7 894.7c172.16-430.18-38.201-804.69-513.98-854.38-420.11-43.882-653.79 194.67-686.64 441.13-3.481 26.388 0 52.776 12.442 80.161-57.715 90.119-190.57 223.06-202.01 286.79-6.968 38.337 38.311 51.78 60.206 65.224 20.899 6.971 43.785 1.99 57.715 18.92 9.951 12.448-3.481 33.359-6.47 48.794-0.498 25.392-30.346 37.84-27.363 61.24 2.989 19.916 19.903 27.883 35.328 40.33 16.421 12.944-41.798 37.839-22.892 60.743 19.404 22.404 47.77 48.295 37.813 80.16-14.429 49.291-42.296 100.57-19.405 138.91 22.892 37.84 54.732 60.244 103.99 70.2 77.12 0 154.74 1.504 232.36 1.504 26.865 23.401 45.771 99.079 60.705 200.65h781.67c-32.843-154.35-72.15-408.27-55.23-470.51 27.866-105.55 117.92-185.22 151.76-269.86zm-573.24 154.62c-292.09 0-528.85-209.24-528.85-467.39 0-258.14 236.76-467.42 528.85-467.42 292.08 0 528.88 209.28 528.88 467.42s-236.79 467.39-528.88 467.39z"/>
 <path d="m1337.5 577.78l-60.875 59.886c-0.156 0.19-0.335 0.36-0.533 0.505-1.307 0.957-3.141 0.674-4.098-0.633h-17.471l-0.639-0.543-8.975-9.039h-26.67l-11.785 11.85-0.639 0.543h-25.966l-9.614 9.614c0.503 1.18 0.766 2.428 0.766 3.801 0 5.297-4.131 9.614-9.262 9.614-5.132 0-9.294-4.316-9.294-9.614 0-5.297 4.163-9.582 9.294-9.582 2.398 0 4.582 0.953 6.228 2.491l9.614-9.646 0.543-0.607h26.125l11.85-11.85 0.543-0.543h29.831l0.575 0.543 9.103 9.039h16.161c0.063-0.045 0.126-0.088 0.192-0.128l61.675-60.78 0.894-0.767h38.774c-0.037-1.819-0.066-3.648-0.128-5.462h-47.845l-50.688 50.719c0.398 1.069 0.703 2.204 0.703 3.418 0 5.297-4.162 9.614-9.294 9.614s-9.262-4.316-9.262-9.614c0-5.297 4.131-9.582 9.262-9.582 1.829 0 3.514 0.592 4.951 1.533l51.039-51.071 0.83-0.862h50.049c-0.091-1.884-0.203-3.743-0.319-5.621h-51.421l-39.796 39.828-0.862 0.862h-14.212l-19.419 19.387-0.862 0.894h-39.86c0.128 0.642 0.128 1.329 0.128 2.012 0 5.297-4.131 9.582-9.262 9.582s-9.326-4.285-9.326-9.582c0-4.966 3.683-9.122 8.368-9.614 0.312-0.034 0.638 0 0.958 0 1.955 0 3.775 0.661 5.27 1.725h41.265l19.45-19.419 0.862-0.894h14.212l39.797-39.7 0.862-0.958h53.466c-0.115-1.51-0.251-3.029-0.383-4.535h-56.851l-37.273 37.241-0.575 0.543h-16.608l-22.326 22.293-0.543 0.607h-21.463l-0.575-0.607-7.825-7.825h-36.633l-0.575-0.543-4.823-4.759c-1.679 1.735-4.014 2.811-6.579 2.811-5.132 0-9.294-4.316-9.294-9.614 0-5.297 4.163-9.582 9.294-9.582 5.132 0 9.262 4.285 9.262 9.582 0 1.166-0.239 2.289-0.607 3.322l4.887 4.855h36.697l0.543 0.639 7.889 7.825h18.141l22.293-22.293 0.607-0.607h16.673l37.208-37.209 0.543-0.607h58.129c-0.166-1.706-0.324-3.409-0.511-5.11h-60.684l-38.869 38.966-0.639 0.511h-29.415l-4.983 4.951c2.358 1.794 3.897 4.626 3.897 7.825 0 5.44-4.366 9.869-9.805 9.869s-9.837-4.429-9.837-9.869c0-5.439 4.398-9.837 9.837-9.837 0.766 0 1.521 0.091 2.236 0.255l6.452-6.452 0.575-0.639h29.48l38.966-38.966 0.511-0.543h61.834c-0.195-1.627-0.393-3.265-0.607-4.887h-65.028l-38.71 38.71-0.894 0.862h-36.346l-18.844 18.876-0.894 0.926h-21.686l-0.831-0.926-24.433-24.37c-3.806-0.866-6.643-4.231-6.643-8.304 0-4.73 3.83-8.56 8.56-8.56s8.592 3.83 8.592 8.56c0 2.864-1.405 5.38-3.577 6.931l20.824 20.793h16.767l18.876-18.94 0.862-0.862h36.316l38.71-38.71 0.862-0.83h66.689c-0.282-1.926-0.553-3.863-0.862-5.781h-69.819l-37.273 37.305-0.575 0.607h-37.368l-18.11 18.045-0.575 0.543h-17.406l-0.511-0.543-9.198-9.071-0.543-0.639v-33.823l-4.919-4.95c-1.388 2.89-4.344 4.887-7.761 4.887-4.73 0-8.56-3.798-8.56-8.528s3.83-8.592 8.56-8.592c4.35 0 7.908 3.276 8.464 7.474l7.538 7.506 0.575 0.639v33.792l7.953 7.953h14.245l17.982-18.078 0.639-0.575h37.368l37.305-37.273 0.607-0.575h70.712c-0.368-2.152-0.717-4.341-1.118-6.484h-70.075l-36.953 36.986-1.086 1.086h-45.353l-5.877 5.845c0.512 1.098 0.862 2.316 0.862 3.609 0 4.731-3.861 8.56-8.592 8.56-4.73 0-8.496-3.829-8.496-8.56 0-4.73 3.766-8.528 8.496-8.528 0.487 0 0.973 0.083 1.437 0.16l7.793-7.729 1.118-1.15h45.385l36.89-36.921 1.15-1.15h71.734c-0.222-1.069-0.473-2.128-0.703-3.194h-75.057l-35.005 35.037-1.182 1.15h-52.763c-1.215-2e-3 -2.359-0.568-3.098-1.533-3.591-1.028-6.196-4.352-6.196-8.272 0-4.73 3.766-8.528 8.496-8.528s8.592 3.797 8.592 8.528c0 0.678-0.075 1.346-0.224 1.98h42l34.942-35.005 1.15-1.182h76.59c-0.494-2.089-1.007-4.15-1.533-6.228h-76.845l-37.049 37.018-0.543 0.575h-31.045l-0.543-0.575-22.485-22.453h-45.64l-6.643 6.707-0.607 0.575h-22.293l-0.543-0.575-6.547-6.516-0.607-0.639v-25.295l0.607-0.575 12.424-12.424c-1.618-1.555-2.651-3.737-2.651-6.164 0-4.73 3.861-8.528 8.592-8.528 4.73 0 8.496 3.797 8.496 8.528 0 4.73-3.765 8.56-8.496 8.56-0.831 0-1.669-0.164-2.427-0.383l-12.616 12.648v22.006l5.334 5.43h19.163l6.707-6.707 0.607-0.543h48.739l0.511 0.543 22.517 22.485h27.819l37.018-37.049 0.575-0.607h77.452c-0.195-0.741-0.408-1.464-0.607-2.204h-81.827l-34.974 35.037-0.607 0.543h-22.324l-0.543-0.543-23.635-23.635h-59.598c-1.127 3.404-4.261 5.845-8.049 5.845-4.73 0-8.56-3.83-8.56-8.56s3.83-8.56 8.56-8.56c4.308 0 7.8 3.207 8.4 7.346h60.908l0.575 0.543 23.571 23.635h19.132l34.974-34.909 0.543-0.639h82.434c-0.445-1.589-0.91-3.177-1.373-4.759h-80.997l-36.986 36.89-0.543 0.607h-15.075l-0.511-0.607-10.413-10.38-0.607-0.543v-16.544l-6.771-6.771h-25.009l-0.511-0.575-11.562-11.53c-1.435 1.089-3.165 1.789-5.11 1.789-4.73 0-8.56-3.829-8.56-8.56 0-4.73 3.829-8.592 8.56-8.592 4.73 0 8.528 3.862 8.528 8.592 0 1.344-0.377 2.575-0.926 3.705l11.243 11.243h24.944l0.607 0.543 7.921 7.985 0.575 0.575v16.512l9.262 9.262h11.785l36.89-36.89 0.639-0.639h81.445c-0.669-2.203-1.339-4.39-2.044-6.579h-89.11l-24.944 25.04c0.304 0.879 0.479 1.827 0.479 2.811 0 4.73-3.797 8.56-8.528 8.56s-8.624-3.83-8.624-8.56 3.894-8.56 8.624-8.56c2.287 0 4.344 0.907 5.877 2.363l24.944-24.944 0.607-0.607h89.365c-0.385-1.157-0.755-2.328-1.15-3.481h-88.279l-20.441 20.473-0.607 0.543h-17.981l-0.607-0.543-16.864-16.864h-1.757c-0.796 3.9-4.197 6.835-8.336 6.835-4.73 0-8.56-3.829-8.56-8.56 0-4.73 3.829-8.528 8.56-8.528 3.966 0 7.237 2.668 8.208 6.324h3.545l0.607 0.639 16.768 16.768h14.851l20.441-20.441 0.607-0.543h88.503c-0.275-0.779-0.55-1.555-0.83-2.332h-105.59l-4.759 4.759c0.856 1.332 1.405 2.895 1.405 4.599 0 4.73-3.797 8.496-8.528 8.496-4.73 0-8.624-3.766-8.624-8.496s3.894-8.592 8.624-8.592c1.594 0 3.036 0.49 4.312 1.246l5.302-5.302 0.639-0.639h105.78c-0.715-1.925-1.461-3.803-2.204-5.717h-213.26l-1.469-1.469-33.568-33.535h-11.753l-30.758 30.821v37.879h12.968v37.592h-12.968v44.235h0.351c1.565-1.784 3.853-2.906 6.42-2.906 4.73 0 8.528 3.798 8.528 8.528 0 4.731-3.797 8.56-8.528 8.56-3.217 0-6.014-1.789-7.474-4.408h-9.103v-54.008h-26.254v62.824l15.299 15.299h63.495l9.518 9.486v70.01h-9.358v13.031l16.928 11.626c1.66-1.608 3.897-2.651 6.356-2.651 5.132 0 9.294 4.284 9.294 9.582 0 5.297-4.163 9.614-9.294 9.614s-9.262-4.317-9.262-9.614c0-1.324 0.266-2.558 0.735-3.705l-17.758-12.201-0.862-0.639v-15.044h-9.837v-33.185l-14.916-3.96-14.596 14.596v84.638l-20.441 20.473v18.173h-12.712v-23.699l12.712-12.744h-11.785v-34.59l-9.198-2.491-18.717 18.844v42.671l-8.464 8.432h-268.52v-66.465l-14.596-14.596h-97.765v-71.512h3.673v-12.872c-0.803-1.568-1.246-3.323-1.246-5.206 0-6.342 5.124-11.498 11.467-11.498 6.342 0 11.498 5.156 11.498 11.498 0 0.439-0.017 0.851-0.063 1.278h0.894v16.8h5.877l1.054 48.547 25.966-25.903v-121.17l21.112-21.08v-12.488h-38.647v-12.392h-25.583v-0.096c-0.691 0.179-1.36 0.224-2.108 0.224-4.73 0-8.592-3.83-8.592-8.56s3.861-8.528 8.592-8.528c1.328 0 2.552 0.291 3.673 0.83h18.812l8.144-8.113h151.04l1.501-5.749-10.956-6.356c-0.348 0.044-0.631 0.128-0.99 0.128-4.73 0-8.655-3.861-8.655-8.591s3.925-8.56 8.655-8.56c0.401 0 0.763 0.076 1.15 0.128h15.139l13.829 13.829v14.596h7.282v39.03h-37.719l2.747 4.791h43.469v-49.377l11.978 12.041h95.402l16.225-9.39h-46.696v-8.719h-23.348v-16.449h17.917l9.837-9.837h0.575v-19.132l1.757-1.725 19.195-19.26v-15.171l-21.4-21.431-1.693-1.693v-196.49c-4.499-0.5-9.008-0.974-13.542-1.373v84.926l8.113 14.149 0.543 0.894v78.218l-1.15 1.15-11.083 11.019c0.53 1.115 0.894 2.332 0.894 3.641 0 4.73-3.893 8.591-8.624 8.591s-8.56-3.861-8.56-8.591 3.829-8.592 8.56-8.592c0.529 0 1.03 0.098 1.533 0.192l10.635-10.7v-72.821l-8.113-14.117-0.575-0.894v-87.705c-2.926-0.219-5.843-0.398-8.783-0.575v103.62l5.366 9.262 0.255 0.511v6.164c4.585 0.167 8.304 3.872 8.304 8.496 0 4.73-3.893 8.56-8.624 8.56-4.73 0-8.56-3.83-8.56-8.56 0-3.448 2.05-6.407 4.983-7.761v-5.973l-5.398-9.262-0.224-0.447v-104.82c-2.28-0.122-4.579-0.255-6.867-0.351v135.07l18.556 18.589c0.303 0.291 0.504 0.672 0.575 1.086 3.605 1.014 6.324 4.289 6.324 8.208 0 4.73-3.925 8.528-8.655 8.528s-8.528-3.798-8.528-8.528c0-3.813 2.468-7.039 5.909-8.144l-17.534-17.503-0.543-0.607v-136.82c-2.681-0.095-5.357-0.196-8.049-0.255v106.46l-0.575 0.543-5.302 5.366 2.012 7.569c3.098 1.283 5.238 4.321 5.238 7.889 0 4.73-3.797 8.496-8.528 8.496-4.73 0-8.56-3.765-8.56-8.496 0-4.413 3.315-7.997 7.601-8.464l-1.853-7.09-0.319-1.086 0.799-0.767 5.589-5.589v-104.88c-2.487-0.04-4.978-0.086-7.474-0.096v108.17l-0.958 0.607-10.987 6.324v17.311l9.198 9.198h17.95l0.543 0.639 8.304 8.272 0.607 0.543v28.586l-0.607 0.607-11.818 11.85c0.332 0.913 0.511 1.94 0.511 2.97 0 4.73-3.797 8.56-8.528 8.56-4.73 0-8.56-3.83-8.56-8.56s3.83-8.56 8.56-8.56c2.256 0 4.223 0.91 5.749 2.331l10.795-10.763v-25.392l-7.218-7.186h-17.887l-0.543-0.511-10.444-10.476-0.543-0.543v-21.113l0.958-0.639 10.987-6.324v-105.9l1e-3 -0.031c-3.827 0.012-7.66 0.076-11.467 0.16v98.34l-0.543 0.607-6.931 6.867v30.119l21.015 21.08c1.56-2.055 4.018-3.449 6.803-3.449 4.73 0 8.528 3.798 8.528 8.528s-3.797 8.56-8.528 8.56c-4.73 0-8.56-3.829-8.56-8.56 0-0.443 0.031-0.853 0.096-1.278l-22.709-22.709-0.543-0.543v-33.376l0.543-0.511 6.931-6.931v-96.647c-1.633 0.046-3.257 0.1-4.887 0.16v85.661l-0.575 0.543-5.43 5.398v46.663l17.375 17.375 0.543 0.575v57.586l12.201 7.027c1.259-0.729 2.717-1.118 4.28-1.118 4.73 0 8.528 3.797 8.528 8.528 0 4.73-3.797 8.56-8.528 8.56s-8.56-3.829-8.56-8.56c0-1.694 0.528-3.273 1.374-4.599l-12.233-7.027-0.99-0.543v-58.321l-17.311-17.247-0.575-0.607v-49.92l0.575-0.575 5.398-5.366v-83.873c-3.794 0.163-7.567 0.373-11.339 0.607 0.111 14.882 0.259 34.768 0.351 54.839 0.095 20.071 0.133 40.287 0.063 55.861-0.033 7.787-0.06 14.434-0.16 19.291-0.049 2.429-0.152 4.39-0.224 5.877-0.07 1.487-0.038 2.264-0.287 3.194-0.076 0.282 0.176 1.484 1.437 3.034 1.262 1.55 3.227 3.294 5.238 4.887 4.023 3.184 8.304 5.717 8.304 5.717 0.357 0.237 0.626 0.585 0.766 0.99 2.355 1.524 3.897 4.15 3.897 7.154 0 4.731-3.861 8.56-8.592 8.56-4.73 0-8.56-3.829-8.56-8.56 0-3.68 2.335-6.777 5.589-7.985-1.201-0.844-2.526-1.776-3.833-2.811-2.136-1.691-4.237-3.59-5.813-5.526-1.576-1.935-2.891-4.069-2.236-6.516-0.069 0.247 0.091-0.907 0.16-2.332 0.069-1.424 0.175-3.372 0.224-5.781 0.098-4.817 0.126-11.42 0.16-19.195 0.07-15.552 0.027-35.765-0.063-55.829-0.093-20.38-0.238-39.867-0.351-54.616-3.117 0.214-6.225 0.441-9.326 0.703v70.745l6.643 11.626 0.287 0.447v82.914l18.844 18.748c3.562 1.047 6.132 4.341 6.132 8.24 0 4.73-3.797 8.592-8.528 8.592-4.73 0-8.624-3.862-8.624-8.592 0-3.68 2.351-6.824 5.621-8.049l-16.767-16.799-0.575-0.575v-83.36l-6.707-11.626-0.224-0.415v-71.543c-4.023 0.366-8.013 0.768-12.009 1.214v80.103c1.203-0.645 2.593-1.086 4.056-1.086 4.73 0 8.528 3.861 8.528 8.592s-3.797 8.56-8.528 8.56c-4.73 0-8.56-3.829-8.56-8.56 0-1.163 0.253-2.28 0.671-3.29-0.049-0.187-0.071-0.381-0.063-0.575v-83.297c-14.597 1.725-28.992 3.979-43.182 6.739l14.117 14.085 1.15 1.15v49.665l47.173 47.142 1.118 1.15v48.292l6.42 11.083 0.575 0.926v24.594l11.85 11.913c1.194-0.622 2.526-1.054 3.96-1.054 4.73 0 8.56 3.829 8.56 8.56 0 4.73-3.829 8.623-8.56 8.623-4.73 0-8.624-3.893-8.624-8.623 0-0.36 0.084-0.674 0.128-1.022l-14.022-13.99-1.118-1.15v-25.742l-6.452-11.146-0.543-0.958v-47.046l-47.111-47.142-1.182-1.15v-49.697l-16.608-16.608c-3.962 0.837-7.889 1.703-11.817 2.619l20.154 20.154 1.15 1.15v47.302l47.014 47.046 1.15 1.15v47.94l7.506 7.506c0.245 0.227 0.46 0.485 0.639 0.766 2.379 1.535 3.96 4.214 3.96 7.25 0 4.73-3.797 8.528-8.528 8.528-4.73 0-8.592-3.798-8.592-8.528 0-2.584 1.197-4.901 3.002-6.484l-4.695-4.695-1.118-1.118v-47.909l-47.014-47.046-1.15-1.15v-47.334l-22.357-22.389c-5.346 1.336-10.664 2.767-15.938 4.248l34.526 34.494 0.543 0.575v32.578l21.367 21.399 0.575 0.575v9.134c0.827-0.266 1.702-0.415 2.619-0.415 4.73 0 8.528 3.766 8.528 8.496 0 4.731-3.797 8.592-8.528 8.592-4.73 0-8.56-3.861-8.56-8.592 0-2.085 0.777-3.884 2.012-5.366v-10.157l-21.367-21.367-0.575-0.639v-32.609l-35.452-35.453c-1.649 0.477-3.308 0.946-4.95 1.437l36.442 36.442 0.639 0.543v29.767l20.026 20.089 0.575 0.543v25.934l8.592 4.919h14.022l0.543 0.511 10.923 11.019 0.639 0.575v82.626l7.697 7.602h125.32l10.956-10.987c-0.873-1.341-1.405-2.876-1.405-4.599 0-4.73 3.83-8.592 8.56-8.592s8.56 3.862 8.56 8.592-3.829 8.496-8.56 8.496c-1.594 0-3.1-0.458-4.376-1.214l-11.626 11.689-0.543 0.543h-128.51l-0.575-0.543-8.879-8.879-0.543-0.543v-82.562l-9.773-9.837h-13.542l-0.447-0.255-9.965-5.717-0.958-0.607v-26.574l-20.089-20.089-0.543-0.543v-29.734l-37.368-37.336c-0.906 0.279-1.811 0.547-2.715 0.831l34.59 34.59 0.511 0.543v34.398l19.643 19.611 0.575 0.575v20.377l20.537 19.515c1.326-0.846 2.906-1.309 4.599-1.309 4.73 0 8.56 3.797 8.56 8.528 0 4.73-3.83 8.528-8.56 8.528s-8.56-3.797-8.56-8.528c0-1.613 0.441-3.122 1.214-4.408l-21.08-20.154-0.607-0.543v-20.408l-19.578-19.578-0.639-0.575v-34.431l-35.42-35.388c-1.304 0.419-2.598 0.818-3.897 1.246l36.411 36.41 0.543 0.607v33.504l19.993 19.993 0.511 0.607v20.505l16.256 16.257 0.575 0.543v55.031l9.198 9.23c1.423-1.058 3.164-1.693 5.078-1.693 4.73 0 8.56 3.797 8.56 8.528 0 4.73-3.83 8.56-8.56 8.56s-8.56-3.83-8.56-8.56c0-1.394 0.402-2.672 0.99-3.833l-10.029-9.997-0.607-0.607v-55.033l-16.193-16.225-0.607-0.607v-20.536l-19.898-19.898-0.639-0.607v-33.6l-37.177-37.177c-2.748 0.929-5.483 1.906-8.208 2.875l36.059 36.059 0.607 0.575v36.57l20.793 20.728 0.575 0.639v32.706h1.182c1.07-3.525 4.271-6.1 8.144-6.1 4.73 0 8.592 3.798 8.592 8.528s-3.862 8.56-8.592 8.56c-4.222 0-7.687-3.072-8.4-7.091h-4.791v-34.972l-20.856-20.856-0.543-0.511v-36.54l-36.825-36.825c-1.23 0.448-2.48 0.854-3.705 1.309l38.199 38.199 0.543 0.543v44.587c0.267-0.025 0.524-0.063 0.798-0.063 4.73 0 8.592 3.829 8.592 8.56 0 4.73-3.861 8.624-8.592 8.624-4.73 0-8.528-3.893-8.528-8.624 0-2.987 1.519-5.594 3.833-7.122v-44.331l-38.838-38.838c-1.734 0.66-3.482 1.304-5.206 1.98l32.13 32.13 0.543 0.511v59.279l9.486 9.454h28.01v36.761l9.709 9.709c1.303-0.796 2.811-1.278 4.439-1.278 4.73 0 8.592 3.862 8.592 8.592s-3.862 8.592-8.592 8.592-8.592-3.862-8.592-8.592c0-1.677 0.501-3.207 1.341-4.535l-10.221-10.285-0.575-0.639v-34.398h-25.775l-0.607-0.639-10.507-10.476-0.639-0.639v-59.279l-32.674-32.706c-1.281 0.514-2.589 1.043-3.865 1.565l31.939 31.939 0.607 0.511v59.342l25.232 25.168 0.511 0.575v59.63c4.139 0.6 7.346 4.092 7.346 8.4 0 4.73-3.83 8.623-8.56 8.623s-8.528-3.893-8.528-8.623c0-3.787 2.441-6.89 5.845-8.017v-58.384l-25.199-25.264-0.543-0.543v-59.215l-32.546-32.513c-2.029 0.849-4.054 1.716-6.068 2.587l31.683 31.684 0.607 0.639v59.918l14.851 14.851 0.607 0.639v83.776l12.361 7.154h24.274l11.435-11.37c-1.456-1.544-2.332-3.668-2.332-5.941 0-4.73 3.861-8.56 8.592-8.56 4.73 0 8.592 3.829 8.592 8.56 0 4.73-3.862 8.623-8.592 8.623-1.03 0-1.957-0.238-2.875-0.575l-12.583 12.616-0.575 0.575h-27.051l-0.447-0.287-13.734-7.921-0.958-0.543v-84.478l-14.883-14.916-0.575-0.575v-59.982l-32.226-32.226c-0.577 0.255-1.149 0.51-1.725 0.767l31.076 31.076 0.639 0.543v61.163l11.754 11.722c0.713 0.721 0.769 1.864 0.128 2.651 2.073 1.559 3.385 4.067 3.385 6.867 0 4.73-3.765 8.528-8.496 8.528-4.73 0-8.592-3.798-8.592-8.528 0-4.731 3.861-8.56 8.592-8.56 0.148 0 0.27 0.032 0.415 0.032l-10.572-10.604-0.543-0.543v-61.099l-31.587-31.556c-2.557 1.162-5.102 2.379-7.634 3.577l32.354 32.322 0.575 0.575v90.132l11.37 11.37c1.504-1.333 3.458-2.172 5.621-2.172 4.73 0 8.496 3.925 8.496 8.656 0 4.73-3.766 8.528-8.496 8.528s-8.592-3.798-8.592-8.528c0-1.116 0.252-2.212 0.639-3.194l-12.424-12.392-0.511-0.639v-90.1l-32.769-32.769c-1.221 0.589-2.426 1.159-3.641 1.757l25.168 25.2 0.607 0.575v36.187c2.89 1.37 4.855 4.312 4.855 7.729 0 4.73-3.797 8.496-8.528 8.496s-8.592-3.765-8.592-8.496c0-4.646 3.72-8.46 8.336-8.592v-33.696l-25.551-25.551c-2.231 1.117-4.433 2.24-6.643 3.385l17.567 17.567 0.511 0.575v53.946l20.856 20.856c0.235 0.251 0.4 0.559 0.479 0.894 0.98 1.391 1.565 3.052 1.565 4.887 0 4.73-3.797 8.56-8.528 8.56-4.73 0-8.592-3.829-8.592-8.56 0-4.139 2.955-7.572 6.867-8.368l-15.905-16.034-0.607-0.575v-54.008l-17.854-17.854c-0.863 0.455-1.728 0.914-2.587 1.373l7.058 7.058 0.543 0.543v45.194c3.497 1.072 6.037 4.259 6.037 8.112 0 4.731-3.83 8.624-8.56 8.624s-8.528-3.893-8.528-8.624c0-4.245 3.072-7.757 7.122-8.432v-43.278l-7.25-7.25c-2.092 1.139-4.219 2.285-6.292 3.449v65.539l4.472 4.535h21.943l0.511 0.926 6.484 11.211 0.255 0.447v22.581l10.859 10.891c1.205-0.637 2.571-1.054 4.024-1.054 4.73 0 8.528 3.83 8.528 8.56s-3.797 8.56-8.528 8.56c-4.73 0-8.592-3.829-8.592-8.56 0-1.852 0.557-3.552 1.565-4.951l-11.146-11.211-0.639-0.575v-23.157l-5.621-9.773h-21.207l-0.607-0.575-5.653-5.653-0.543-0.639v-64.868c-1.329 0.762-2.639 1.528-3.96 2.3l0.255 0.255 0.83 0.83v73.78l8.815 8.847h4.567c0.75-3.959 4.156-6.963 8.336-6.963 4.73 0 8.56 3.83 8.56 8.56s-3.83 8.56-8.56 8.56c-3.167 0-5.9-1.728-7.378-4.28h-7.985l-0.862-0.862-10.508-10.539-0.83-0.862v-73.811l-0.447-0.447c-4.332 2.597-8.635 5.245-12.872 7.953l8.656 8.655 0.83 0.894v64.867l26.446 26.51c1.404-1.022 3.084-1.693 4.951-1.693 4.73 0 8.56 3.925 8.56 8.656 0 4.73-3.83 8.528-8.56 8.528s-8.528-3.798-8.528-8.528c0-0.704 0.161-1.356 0.319-2.012l-28.171-28.171-0.862-0.83v-64.964l-8.656-8.624c-2.136 1.399-4.277 2.789-6.388 4.216l4.248 4.248 0.862 0.862v76.685l10.157 10.252c0.657-0.163 1.34-0.319 2.044-0.319 4.73 0 8.56 3.925 8.56 8.656 0 4.73-3.829 8.528-8.56 8.528-4.73 0-8.624-3.798-8.624-8.528 0-1.866 0.639-3.599 1.661-5.014l-10.285-10.284-0.862-0.862v-76.686l-4.12-4.12c-12.434 8.615-24.44 17.66-35.931 27.212 0.168 0.664 0.255 1.39 0.255 2.108 0 4.73-3.797 8.496-8.528 8.496-1.172 0-2.303-0.249-3.322-0.671-3.044 2.69-6.038 5.421-9.007 8.176l10.093 10.125c0.709-0.19 1.466-0.383 2.236-0.383 4.73 0 8.528 3.798 8.528 8.528 0 4.731-3.797 8.56-8.528 8.56-4.73 0-8.56-3.829-8.56-8.56 0-1.774 0.548-3.395 1.469-4.759l-9.486-9.518c-3.773 3.587-7.502 7.233-11.146 10.924l13.479 13.478h27.243l1.693 1.757 40.115 40.084h26.286c1.411-1.027 3.131-1.629 5.015-1.629 4.73 0 8.592 3.83 8.592 8.56s-3.861 8.528-8.592 8.528c-2.926 0-5.518-1.471-7.059-3.705h-29.128l-1.693-1.693-40.115-40.147h-27.212l-1.725-1.693-15.075-15.075c-12.812 13.621-24.747 27.925-35.74 42.798h52.06l0.639 0.543 13.094 13.127c1.523-1.406 3.603-2.268 5.845-2.268 4.73 0 8.528 3.83 8.528 8.56s-3.797 8.56-8.528 8.56c-4.73 0-8.56-3.829-8.56-8.56 0-1.03 0.211-2.025 0.543-2.938l-13.127-13.127h-53.306c-3.387 4.684-6.703 9.416-9.901 14.213h42.384c0.761-3.959 4.251-6.963 8.432-6.963 4.73 0 8.528 3.862 8.528 8.592 0 4.731-3.798 8.496-8.528 8.496-3.92 0-7.244-2.574-8.272-6.164h-45.123c-2.904 4.456-5.757 8.929-8.496 13.478h145.61l0.543 0.543 11.722 11.722c1.564-1.747 3.802-2.874 6.324-2.874 4.73 0 8.528 3.861 8.528 8.592 0 4.73-3.797 8.56-8.528 8.56-4.73 0-8.592-3.829-8.592-8.56 0-0.764 0.133-1.464 0.319-2.172l-11.911-11.886h-146.32c-2.177 3.7-4.29 7.389-6.356 11.146h62.408c1.131-3.407 4.357-5.877 8.144-5.877 4.73 0 8.528 3.83 8.528 8.56 0 4.731-3.798 8.528-8.528 8.528-3.596 0-6.747-2.193-8.017-5.334h-65.73c-1.87 3.529-3.659 7.092-5.43 10.668h96.265l9.135-9.135c-0.806-1.306-1.246-2.856-1.246-4.503 0-4.73 3.83-8.592 8.56-8.592s8.528 3.861 8.528 8.592-3.797 8.56-8.528 8.56c-0.917 0-1.823-0.181-2.651-0.447l-10.604 10.539-0.798 0.862h-101.5c-1.205 2.529-2.422 5.081-3.577 7.633h124.43l22.709-22.709c-0.878-1.344-1.405-2.938-1.405-4.663 0-4.73 3.829-8.56 8.56-8.56s8.624 3.83 8.624 8.56c0 4.731-3.893 8.56-8.624 8.56-1.599 0-3.063-0.483-4.344-1.246l-23.315 23.411-0.639 0.543h-127.72c-1.348 3.06-2.684 6.107-3.96 9.198h137.15l18.588-18.652 0.639-0.543h14.5v37.944l-0.575 0.543-4.727 4.727c0.998 1.401 1.629 3.1 1.629 4.951 0 4.73-3.925 8.56-8.656 8.56s-8.496-3.83-8.496-8.56 3.766-8.528 8.496-8.528c1.473 0 2.909 0.367 4.12 1.022l4.312-4.28v-32.482h-8.975l-18.652 18.621-0.639 0.607h-140.28c-0.818 2.04-1.608 4.079-2.395 6.132h79.72l0.543 0.543 10.859 10.859c1.09-0.503 2.361-0.767 3.641-0.767 4.73 0 8.496 3.766 8.496 8.496s-3.766 8.592-8.496 8.592-8.56-3.861-8.56-8.592c0-2.023 0.711-3.836 1.884-5.302l-9.933-9.933h-79.624c-2.497 6.715-4.843 13.532-6.995 20.378 0.652 1.202 1.022 2.562 1.022 4.024 0 3.236-1.811 6.023-4.471 7.474-0.707 2.501-1.383 5.021-2.044 7.538h63.398l10.285-10.317 0.862-0.83h50.017l11.018-11.019c-0.155-0.649-0.256-1.314-0.256-2.012 0-4.73 3.83-8.496 8.56-8.496s8.528 3.766 8.528 8.496-3.797 8.592-8.528 8.592c-1.852 0-3.549-0.629-4.951-1.629l-11.083 11.083-0.862 0.83h-50.016l-10.317 10.317-0.894 0.862h-67.263c-0.378 1.533-0.725 3.06-1.086 4.599h71.351l5.973-6.005 1.15-1.15h26.732c1.547-1.546 3.735-2.491 6.1-2.491 4.73 0 8.496 3.798 8.496 8.528s-3.766 8.623-8.496 8.623c-4.119 0-7.582-2.919-8.4-6.803h-21.11l-6.036 6.005-1.182 1.118h-76.302c-0.605 2.823-1.242 5.622-1.789 8.464h126.83l14.979-14.979c-0.226-0.766-0.383-1.588-0.383-2.427 0-4.73 3.83-8.528 8.56-8.528s8.528 3.797 8.528 8.528c0 4.73-3.797 8.623-8.528 8.623-1.744 0-3.374-0.542-4.727-1.437l-15.107 15.235-0.894 0.862h-130.31c-0.502 2.829-0.995 5.651-1.437 8.496l0.639-0.607h143.67c1.256-3.169 4.305-5.462 7.921-5.462 4.73 0 8.624 3.83 8.624 8.56s-3.894 8.624-8.624 8.624c-3.774 0-6.908-2.487-8.049-5.877h-141.17l-4.376 4.376c-0.806 6.132-1.482 12.322-2.012 18.525l3.737-3.641c-0.08-0.465-0.224-0.918-0.224-1.405 0-4.73 3.862-8.655 8.592-8.655s8.528 3.925 8.528 8.655c0 4.731-3.798 8.528-8.528 8.528-2.013 0-3.872-0.721-5.334-1.884l-4.631 4.567-0.862 0.894h-1.789c-0.027 0.391-0.071 0.759-0.096 1.15h21.846l27.692-27.659 0.83-0.958h87.161l0.862 0.958 8.049 7.985h13.925l8.304-8.304v-52.476l0.862-0.83 6.26-6.26 0.83-0.83h27.659l12.296-12.265c-0.039-0.328-0.128-0.683-0.128-1.022 0-4.73 3.797-8.496 8.528-8.496 4.73 0 8.56 3.766 8.56 8.496s-3.83 8.592-8.56 8.592c-2.147 0-4.055-0.867-5.557-2.172l-11.881 11.881-0.799 0.83h-27.692l-4.503 4.503v52.475l-0.894 0.831-9.965 10.061-0.862 0.862h-18.812l-0.862-0.862-8.081-8.081h-82.273l-27.627 27.66-0.862 0.926h-24.657c-0.357 6.99-0.543 14.012-0.543 21.08 0 3.341 0.048 6.672 0.128 9.997h6.579l46.759-46.759 0.862-0.83h115.17l15.203-15.235v-2.395c-1.842-1.567-3.066-3.837-3.066-6.452 0-4.73 3.829-8.56 8.56-8.56 4.73 0 8.56 3.83 8.56 8.56 0 4.603-3.624 8.267-8.176 8.464v2.811l-0.862 0.862-16.927 16.928-0.862 0.83h-115.18l-46.759 46.79-0.83 0.862h-8.847c0.071 1.85 0.159 3.681 0.255 5.526h10.157l44.396-44.396 1.15-1.118h121.17l5.142-3.034c0.101-4.645 3.956-8.4 8.624-8.4 4.73 0 8.528 3.893 8.528 8.623s-3.797 8.528-8.528 8.528c-1.914 0-3.739-0.667-5.174-1.725l-5.557 3.258-0.862 0.575h-120.15l-44.396 44.396-1.15 1.15h-12.872c0.167 2.351 0.336 4.686 0.543 7.027h16.577l47.94-47.973 0.862-0.862h74.257l0.862 0.862 10.923 10.955c1.17-0.6 2.523-0.958 3.928-0.958 4.73 0 8.496 3.766 8.496 8.496 0 4.731-3.765 8.592-8.496 8.592-4.73 0-8.624-3.861-8.624-8.592 0-1.162 0.252-2.247 0.671-3.258l-10.221-10.22h-69.372l-47.94 47.94-0.83 0.894h-18.46c0.2 1.947 0.411 3.872 0.639 5.813h20.983l43.5-43.469 0.894-0.83h46.439c0.98-3.65 4.248-6.388 8.208-6.388 4.73 0 8.624 3.925 8.624 8.655 0 4.731-3.893 8.496-8.624 8.496-3.421 0-6.293-2.018-7.665-4.919h-44.618l-43.469 43.469-0.862 0.862h-22.677c0.344 2.613 0.692 5.225 1.086 7.825h24.562l40.339-40.371 0.862-0.831h89.749l11.785-11.722v-13.958l0.83-0.862 6.42-6.42 0.83-0.83h18.397l6.579-6.548v-57.714l-10.445-10.444c-1.321 0.833-2.922 1.341-4.599 1.341-4.73 0-8.496-3.797-8.496-8.528 0-4.73 3.766-8.624 8.496-8.624s8.656 3.893 8.656 8.624c0 0.887-0.198 1.687-0.447 2.491l11.85 11.85 0.83 0.83v62.569l-0.83 0.862-8.304 8.304-0.83 0.83h-18.428l-4.663 4.695v13.958l-0.894 0.83-13.414 13.446-0.926 0.831h-89.717l-40.275 40.403-0.926 0.83h-26.031c0.398 2.39 0.775 4.777 1.214 7.154h30.278l40.307-40.306 0.639-0.575h84.158l22.709-22.677c-1.121-1.446-1.821-3.199-1.821-5.174 0-4.73 3.798-8.655 8.528-8.655s8.56 3.925 8.56 8.655c0 4.731-3.829 8.496-8.56 8.496-1.332 0-2.582-0.289-3.705-0.83l-23.507 23.539-0.575 0.575h-84.191l-40.308 40.307-0.543 0.575h-31.204c0.157 0.807 0.317 1.621 0.479 2.427h34.557l39.03-38.966 0.511-0.607h82.434l19.355-19.356 0.511-0.575h25.135l0.543 0.575 10.604 10.572c1.386-0.967 3.065-1.533 4.887-1.533 4.73 0 8.656 3.797 8.656 8.528 0 4.73-3.925 8.56-8.656 8.56s-8.528-3.83-8.528-8.56c0-1.463 0.377-2.79 1.022-3.992l-10.125-10.221h-21.943l-19.26 19.356-0.639 0.575h-82.306l-39.03 38.934-0.575 0.607h-35.356c0.363 1.718 0.734 3.431 1.118 5.142h36.921l17.055-17.023 0.639-0.575h51.582c1.124-3.419 4.253-5.909 8.049-5.909 4.73 0 8.655 3.798 8.655 8.528s-3.925 8.592-8.655 8.592c-4.287 0-7.773-3.17-8.4-7.282h-49.666l-16.992 16.96-0.607 0.639h-37.688c0.436 1.856 0.88 3.677 1.341 5.525h39.508l6.611-6.579 0.639-0.607h69.407l10.029-10.093v-27.276l0.543-0.543 5.078-5.078 0.575-0.575h24.816l8.879-8.815 0.543-0.543h4.376c0.704-4.02 4.146-7.091 8.368-7.091 4.73 0 8.56 3.766 8.56 8.496s-3.829 8.592-8.56 8.592c-3.873 0-7.054-2.603-8.113-6.132h-3.066l-8.751 8.815-0.575 0.607h-24.912l-3.833 3.833v27.371l-0.639 0.543-11.146 11.242-0.639 0.543h-69.372l-6.611 6.643-0.575 0.575h-40.147c0.281 1.082 0.54 2.146 0.83 3.226h39.413l7.027-7.027 0.543-0.543h83.425l11.913-11.913v-4.535c-3.679-0.96-6.388-4.228-6.388-8.208 0-4.73 3.797-8.656 8.528-8.656 4.73 0 8.624 3.925 8.624 8.656 0 4.139-2.964 7.537-6.867 8.336v6.068l-0.575 0.511-13.031 13.031-0.575 0.639h-83.456l-6.995 6.931-0.511 0.639h-39.988c0.398 1.427 0.832 2.826 1.246 4.248l0.383-0.351h41.904l6.388-6.324 0.575-0.639h82.052l24.912-24.977v-18.556l0.575-0.639 7.25-7.186 0.575-0.543h29.256l0.575 0.543 10.22 10.188c0.926-0.343 1.893-0.575 2.938-0.575 4.73 0 8.624 3.925 8.624 8.656 0 4.73-3.894 8.528-8.624 8.528s-8.528-3.797-8.528-8.528c0-2.256 0.874-4.347 2.3-5.877l-9.039-9.007h-26.126l-6.068 6.068v18.588l-0.543 0.511-26.126 26.19-0.575 0.511h-81.988l-6.356 6.42-0.639 0.543h-41.873l-0.767 0.767c0.454 1.502 0.902 3.007 1.373 4.503h40.052l8.975-8.304 0.543-0.543h81.316l34.622-35.325c-0.94-1.374-1.469-3.095-1.469-4.887 0-4.73 3.798-8.528 8.528-8.528s8.56 3.798 8.56 8.528-3.829 8.624-8.56 8.624c-1.521 0-2.914-0.422-4.152-1.118l-35.325 36.059-0.639 0.511h-81.348l-8.975 8.4-0.607 0.511h-40.275c0.571 1.754 1.162 3.492 1.757 5.238l0.543-0.543 0.543-0.639h41.265l7.027-7.09 0.639-0.543h82.371l34.047-34.015 0.575-0.575h45.385l9.741-9.614v-14.436c-3.807-0.871-6.675-4.265-6.675-8.336 0-4.73 3.893-8.56 8.624-8.56s8.496 3.83 8.496 8.56c0 4.051-2.801 7.445-6.579 8.336v15.969l-0.543 0.575-10.796 10.859-0.639 0.575h-45.481l-33.952 33.951-0.543 0.639h-82.499l-7.027 7.09-0.639 0.511h-41.165l-1.31 1.341c0.519 1.474 1.062 2.94 1.597 4.408l0.096-0.128h90.132c0.779-4.997 5.101-8.783 10.317-8.783 5.768 0 10.445 4.646 10.445 10.413s-4.678 10.476-10.445 10.476c-4.977 0-9.109-3.547-10.157-8.208h-88.663l-0.255 0.255c1.557 4.138 3.169 8.242 4.855 12.328h97.287l15.49-15.458 0.575-0.575h2.875c0.591-5.207 4.983-9.23 10.348-9.23 5.767 1e-3 10.476 4.646 10.476 10.413s-4.709 10.476-10.476 10.476c-4.822 0-8.86-3.319-10.061-7.761h-1.565l-15.458 15.555-0.607 0.543h-97.222c1.824 4.3 3.688 8.537 5.653 12.776h76.974c1.322-4.251 5.247-7.314 9.933-7.314 5.768 0 10.445 4.677 10.445 10.444s-4.678 10.476-10.445 10.476c-5.49 0-9.961-4.294-10.38-9.677h-74.641c2.238 4.703 4.555 9.366 6.963 13.989h81.221l10.029-10.029v-16.673l0.607-0.543 6.707-6.707 0.639-0.639h26.605l7.889-7.857c-1.694-1.856-2.747-4.348-2.747-7.058 0-5.768 4.709-10.413 10.476-10.413 5.768 1e-3 10.413 4.646 10.413 10.413s-4.646 10.476-10.413 10.476c-1.631 0-3.256-0.355-4.631-1.022l-8.751 8.847-0.639 0.543h-26.573l-5.621 5.589v16.64l-0.575 0.543-11.211 11.179-0.511 0.607h-80.87c2.268 4.249 4.617 8.471 7.027 12.648h22.868c0.951-4.788 5.122-8.432 10.189-8.432 5.767 0 10.476 4.677 10.476 10.444s-4.709 10.444-10.476 10.444c-5.109 0-9.284-3.713-10.189-8.56h-20.633c2.494 4.224 5.061 8.374 7.697 12.52h30.63l24.337-24.305 0.639-0.575h11.21l16.449-16.449c-1.391-1.774-2.268-3.991-2.268-6.42 0-5.767 4.646-10.444 10.413-10.444s10.476 4.677 10.476 10.444-4.709 10.476-10.476 10.476c-1.913 0-3.696-0.603-5.238-1.501l-17.216 17.247-0.543 0.543h-11.178l-24.37 24.37-0.575 0.543h-29.767c0.946 1.455 1.911 2.899 2.875 4.344h37.177l40.819-40.786 0.511-0.639h24.433l6.963-6.931c-2.056-1.907-3.354-4.641-3.354-7.665 0-5.767 4.709-10.444 10.476-10.444 5.768 0 10.413 4.677 10.413 10.444s-4.646 10.476-10.413 10.476c-1.305 0-2.616-0.265-3.769-0.703l-8.113 8.208-0.607 0.543h-24.337l-40.913 40.882-0.543 0.511h-36.092c1.072 1.571 2.134 3.168 3.226 4.727h47.781l25.903-25.935c-1.033-1.62-1.629-3.527-1.629-5.589 0-5.767 4.646-10.444 10.413-10.444s10.476 4.677 10.476 10.444-4.709 10.444-10.476 10.444c-2.287 0-4.348-0.797-6.068-2.044l-26.381 26.445-0.639 0.575h-46.599c0.891 1.243 1.779 2.47 2.683 3.705h63.463l2.459-1.373c-1.202-1.701-1.916-3.859-1.916-6.1 0-5.768 4.678-10.413 10.445-10.413 5.768 0 10.445 4.646 10.445 10.413s-4.678 10.476-10.445 10.476c-2.033 0-3.921-0.56-5.525-1.565l-3.928 2.172-0.479 0.319h-61.61c1.135 1.518 2.263 3.03 3.417 4.535h74.385l9.741-9.837v-20.6l0.575-0.607 9.454-9.39c-1.507-1.81-2.459-4.169-2.459-6.707 0-5.766 4.678-10.412 10.445-10.412 5.768 0 10.445 4.645 10.445 10.412s-4.678 10.476-10.445 10.476c-1.783 0-3.482-0.457-4.951-1.246h-0.063l-9.103 9.135v20.569l-0.543 0.607-10.924 10.891-0.543 0.575h-73.013c3.899 4.971 7.929 9.865 12.04 14.692h13.925l8.144-8.112 0.83-0.862h38.455l37.368-37.401v-104.38l0.83-0.83 21.399-21.4 0.862-0.862h141.49l0.83 0.862 9.614 9.614 0.862 0.83v68.446l3.417 5.941h269.88l0.83 0.862 7.569 7.57h60.843l20.472-20.409v-22.07l0.83-0.862 22.102-22.133 0.862-0.862h57.905l0.862 0.862 12.009 11.977h25.327l0.958 0.894 8.879 8.879h19.547l0.862 0.862 10.157 10.157c0.87-0.278 1.788-0.447 2.747-0.447 5.132 0 9.262 4.284 9.262 9.582 0 5.297-4.131 9.582-9.262 9.582s-9.326-4.284-9.326-9.582c0-2.1 0.714-4.042 1.821-5.621l-8.624-8.656h-19.643l-0.798-0.862-8.975-8.911h-25.359l-0.862-0.862-11.978-11.977h-53.178l-20.282 20.345v22.102l-0.926 0.894-22.102 22.102-0.862 0.894h-65.698l-0.83-0.894-7.601-7.57h-270.81l-0.83-1.405-4.727-8.144-0.319-0.703v-67.551l-7.889-7.889h-136.64l-19.674 19.674v104.38l-0.83 0.894-39.093 39.093-0.862 0.862h-38.391l-8.208 8.081-0.862 0.862h-11.274c3.275 3.72 6.597 7.39 9.997 11.019h3.258l12.679-12.648 0.862-0.862h34.877l46.887-46.918v-63.207l0.862-0.831 45.066-45.098 0.83-0.862h89.269l0.894 0.862 5.941 5.941 0.83 0.83v59.088l18.589 18.556h267.4l0.703 0.351 9.326 5.366h70.904l29.864-29.863v-21.655l0.894-0.83 18.045-18.045 0.894-0.862h45.64l0.862 0.862 11.083 11.083h21.272l0.894 0.926 9.997 10.029c0.997-0.377 2.07-0.607 3.194-0.607 5.132 0 9.262 4.253 9.262 9.55s-4.131 9.614-9.262 9.614c-5.132 0-9.326-4.316-9.326-9.614 0-1.938 0.577-3.73 1.533-5.238l-8.751-8.783h-21.176l-0.862-0.862-11.146-11.083h-40.786l-16.384 16.289v21.686l-0.862 0.862-31.556 31.556-0.862 0.862h-74.993l-0.703-0.351-9.198-5.366h-268.33l-0.862-0.894-20.313-20.249-0.83-0.862v-59.088l-4.248-4.184h-84.382l-43.341 43.341v63.239l-0.862 0.862-48.611 48.611-0.862 0.83h-34.877l-12.712 12.712-0.83 0.862h-0.064c1.403 1.448 2.825 2.88 4.248 4.312l10.284-10.252 0.575-0.575h61.227l11.85-11.881c-0.903-1.55-1.405-3.373-1.405-5.302 0-5.767 4.646-10.444 10.413-10.444s10.413 4.677 10.413 10.444-4.646 10.444-10.413 10.444c-2.428 0-4.626-0.877-6.388-2.268l-12.265 12.328-0.607 0.575h-61.195l-9.709 9.709c3.838 3.802 7.746 7.523 11.722 11.211l1.469-1.437c-0.542-1.262-0.798-2.723-0.798-4.184 1e-3 -5.767 4.646-10.444 10.413-10.444s10.476 4.677 10.476 10.444-4.709 10.444-10.476 10.444c-2.853 0-5.429-1.116-7.314-2.97l-0.83 0.83c2.369 2.163 4.738 4.33 7.154 6.452h7.314l15.618-15.618 0.543-0.543h5.845c1.063-4.64 5.227-8.113 10.189-8.113 5.767 0 10.413 4.678 10.413 10.444 0 5.767-4.646 10.444-10.413 10.444-5.216 0-9.538-3.849-10.317-8.847h-4.088l-15.523 15.555-0.639 0.543h-4.471c1.78 1.526 3.561 3.031 5.366 4.535l0.479-0.479 5.717-5.749h29.288l37.688-37.624v-28.01c-0.077-6.031 2.634-11.759 7.346-15.523l-0.479-8.592 10.252-10.22h13.861l12.041-12.009v-9.901h68.19l20.122 20.058h258.67l13.701 7.953h65.124v50.782h-110.19l-7.729-4.439v-29.832h-75.472v34.27h-50.368l-25.52-25.488h-146.69l-13.798 13.798v33.409l-5.749 5.653-49.058 49.122-5.685 5.685h-7.729c2.72 1.815 5.447 3.565 8.208 5.334 1.157-4.02 4.665-7.039 8.943-7.474 0.351-0.036 0.726 0 1.086 0 5.767 0 10.476 4.646 10.476 10.413 0 3.017-1.302 5.721-3.354 7.633 1.62 0.953 3.254 1.905 4.887 2.843l4.855-4.855v-13.35c-3.776-1.573-6.388-5.331-6.388-9.677 0-5.767 4.678-10.38 10.445-10.38s10.444 4.613 10.444 10.38c0 5.129-3.747 9.404-8.624 10.284v15.235l-0.862 0.862-4.535 4.535c2.665 1.491 5.352 2.959 8.049 4.408l18.045-18.078v-32.098c-4.396-1.231-7.633-5.176-7.633-9.965 0-5.767 4.678-10.444 10.445-10.444 5.768 0 10.444 4.677 10.444 10.444 0 4.705-3.099 8.627-7.378 9.933v34.557l-0.862 0.862-17.662 17.662c9.352 4.89 18.903 9.512 28.617 13.894 1.453-4.005 5.287-6.835 9.805-6.835 5.767 0 10.444 4.613 10.444 10.38 0 1.677-0.38 3.292-1.086 4.695 1.661 0.675 3.345 1.32 5.015 1.98v-23.57l-10.38-10.348c-1.394 0.69-3.003 1.086-4.663 1.086-5.767 0-10.476-4.678-10.476-10.444 0-5.767 4.709-10.444 10.476-10.444s10.444 4.677 10.444 10.444c0 2.68-1.023 5.114-2.683 6.963l10.539 10.539 0.639 0.543v26.765c1.739 0.672 3.489 1.324 5.238 1.98v-51.263l-18.301-18.333c-1.615 1.022-3.601 1.565-5.653 1.565-5.767 0-10.413-4.646-10.413-10.413 0-5.768 4.646-10.413 10.413-10.413 5.767 1e-3 10.476 4.645 10.476 10.413 0 2.287-0.797 4.412-2.044 6.132l18.876 18.812 0.543 0.639v54.328c1.301 0.477 2.623 0.937 3.928 1.405v-32.034l0.543-0.607 18.078-18.014 0.543-0.575h8.24c1.503-3.477 4.832-5.963 8.783-6.26 0.263-0.028 0.593 0 0.862 0 5.768 0 10.413 4.646 10.413 10.413s-4.646 10.444-10.413 10.444-10.476-4.677-10.476-10.444v-0.224h-5.813l-16.83 16.928v31.78c1.66 0.581 3.314 1.158 4.983 1.725v-20.089l0.575-0.639 14.756-14.692 0.575-0.511h26.892l9.198-9.23v-0.096c-0.788-1.469-1.309-3.167-1.309-4.951 0-5.768 4.678-10.413 10.445-10.413s10.476 4.646 10.476 10.413-4.709 10.444-10.476 10.444c-2.539 0-4.833-0.921-6.643-2.427l-9.518 9.518-0.607 0.639h-26.86l-13.605 13.574v19.771c0.929 0.308 1.879 0.591 2.811 0.894v-1.916l0.639-0.575 11.402-11.402c-0.704-1.406-1.086-3.048-1.086-4.727 0-5.767 4.709-10.444 10.476-10.444 5.768 0 10.413 4.677 10.413 10.444s-4.646 10.444-10.413 10.444c-2.663 0-5.118-1.042-6.963-2.683l-10.54 10.572v1.533c4.013 1.275 8.048 2.546 12.105 3.737 1.445-0.762 3.103-1.214 4.855-1.214 3.802 0 7.11 2.044 8.943 5.078 2.232 0.595 4.463 1.188 6.707 1.757v-15.586l0.607-0.575 8.081-8.112c-0.781-1.463-1.246-3.177-1.246-4.951 0-5.767 4.678-10.444 10.445-10.444s10.476 4.678 10.476 10.444c0 5.767-4.709 10.444-10.476 10.444-2.556 0-4.892-0.903-6.707-2.427l-7.25 7.25v14.916c2.104 0.518 4.208 1.006 6.324 1.501v-4.216l0.607-0.607 21.559-21.559v-25.04l0.543-0.543 9.262-9.198c-0.582-1.301-0.958-2.794-0.958-4.312 0-5.768 4.709-10.413 10.476-10.413 5.768 0 10.445 4.646 10.445 10.413s-4.678 10.444-10.445 10.444c-2.822 0-5.403-1.087-7.282-2.906l-8.144 8.112v25.104l-0.575 0.543-21.591 21.655v3.449c2.24 0.508 4.488 1.019 6.739 1.501v-0.639l0.543-0.639 24.305-24.21c-2.716-1.886-4.472-5.067-4.472-8.624 0-5.767 4.709-10.444 10.476-10.444s10.445 4.677 10.445 10.444-4.678 10.444-10.445 10.444c-0.721 0-1.396-0.052-2.076-0.192h-0.096l-24.593 24.689c5.783 1.196 11.616 2.327 17.471 3.354-0.735-1.428-1.182-3.05-1.182-4.759 0-5.767 4.709-10.444 10.476-10.444 5.768 0 10.445 4.677 10.445 10.444 0 2.916-1.205 5.541-3.13 7.442 3.644 0.531 7.288 1.004 10.956 1.469v-138.68l1.437-1.405 20.282-20.281 1.405-1.405h53.593l1.469 1.405 6.643 6.547h170.4l21.239-21.144c-0.22-0.845-0.383-1.737-0.383-2.651 0-5.767 4.709-10.444 10.476-10.444s10.413 4.677 10.413 10.444-4.646 10.476-10.413 10.476c-1.217 0-2.427-0.255-3.513-0.639l-22.293 22.389-1.437 1.373h-178.64l-1.373-1.373-6.579-6.611h-45.578l-17.343 17.343v135.84c1.463 0.161 2.941 0.297 4.408 0.447v-130.31l0.607-0.543 15.842-15.873 0.575-0.543h42.637l0.639 0.543 14.755 14.788 0.543 0.575v8.272c4.527 0.903 7.953 4.926 7.953 9.709 0 5.443-4.458 9.837-9.901 9.837s-9.837-4.394-9.837-9.837c0-4.782 3.375-8.805 7.889-9.709v-6.675l-13.638-13.606h-39.445l-14.723 14.692v129.06c2.487 0.238 4.976 0.464 7.474 0.671v-128.94l1.405-1.437 5.302-5.206 1.405-1.469h32.098c0.577-5e-3 1.15 0.092 1.693 0.287h0.096c5.384 0.068 9.741 4.437 9.741 9.837 0 5.443-4.394 9.837-9.837 9.837s-9.837-4.394-9.837-9.837c0-0.123 0.031-0.228 0.031-0.351h-19.898l-2.427 2.459v125.55c6.678 0.443 13.409 0.737 20.154 0.958l-1.533-1.501-0.607-0.607v-2.587c-0.889 0.262-1.837 0.447-2.811 0.447-5.443 0-9.837-4.394-9.837-9.837 0-5.103 3.878-9.333 8.847-9.837 0.332-0.034 0.65 0 0.99 0 5.443 0 9.901 4.394 9.901 9.837 0 2.83-1.274 5.331-3.194 7.122v3.29l3.865 3.833c2.051 0.047 4.14 0.1 6.196 0.128l-2.427-2.427-0.543-0.607v-25.999l-9.646-9.646c-1.333 0.672-2.82 1.086-4.408 1.086-5.443 0-9.805-4.426-9.805-9.869s4.362-9.805 9.805-9.805 9.869 4.362 9.869 9.805c0 2.443-0.947 4.593-2.427 6.324l9.901 9.933 0.607 0.543v26.062l4.663 4.663h2.396c4.969 0 9.915-0.071 14.851-0.192l-4.887-4.919c-0.812 0.22-1.673 0.319-2.555 0.319-5.443 0-9.901-4.426-9.901-9.869s4.458-9.837 9.901-9.837 9.805 4.394 9.805 9.837c0 3.092-1.419 5.784-3.641 7.601l6.643 6.707h0.031c2.157-0.073 4.301-0.161 6.452-0.256l-3.066-3.098-0.575-0.543v-28.362l-8.624-8.656c-1.798 2.014-4.342 3.385-7.25 3.385-5.443 0-9.901-4.458-9.901-9.901s4.458-9.837 9.901-9.837 9.805 4.395 9.805 9.837c0 1.068-0.23 2.133-0.543 3.098l9.901 9.837 0.607 0.607v28.425l4.599 4.599 0.351 0.351c2.445-0.129 4.878-0.256 7.314-0.415v-3.641c-3.283-1.59-5.526-4.881-5.526-8.783 0-5.443 4.394-9.901 9.837-9.901s9.869 4.458 9.869 9.901-4.426 9.837-9.869 9.837h-0.383v2.331c4.62-0.331 9.212-0.714 13.798-1.15v-16.895l-44.235-44.267h-22.996l-0.639-0.575-8.592-8.656c-1.609 1.148-3.552 1.821-5.685 1.821-5.443 0-9.901-4.363-9.901-9.805 0-5.443 4.458-9.901 9.901-9.901s9.837 4.458 9.837 9.901c0 1.911-0.564 3.667-1.501 5.174l8.208 8.112h22.996l0.511 0.607 45.45 45.322 0.543 0.639v18.141c1.544-0.157 3.123-0.31 4.663-0.479v-20.92l-47.653-47.621h-7.73c-1.014 0.354-2.057 0.639-3.194 0.639-5.443 0-9.837-4.394-9.837-9.837 0-5.103 3.878-9.333 8.847-9.837 0.331-0.034 0.65 0 0.99 0 5.443 0 9.837 4.394 9.837 9.837 0 1.961-0.581 3.739-1.565 5.27h4.216l0.639 0.575 48.803 48.834 0.575 0.575v22.037c1.435-0.167 2.849-0.365 4.28-0.543v-24.305l-50.56-50.623-0.607-0.575v-7.985l-8.113-8.112h-28.745l-0.543-0.543-7.41-7.41c-1.13 0.456-2.379 0.735-3.673 0.735-5.443 0-9.837-4.458-9.837-9.901s4.394-9.837 9.837-9.837 9.837 4.395 9.837 9.837c0 2.722-1.097 5.202-2.875 6.995l6.26 6.164h28.776l0.575 0.639 9.262 9.198 0.575 0.639v7.953l50.56 50.623 0.607 0.575v25.423c1.304-0.17 2.597-0.332 3.897-0.511v-25.87l-38.773-38.774-0.351-0.415-0.128-0.511-0.383-1.437c-4.57-0.849-7.953-4.824-7.953-9.646 0-5.443 4.362-9.933 9.805-9.933s9.901 4.49 9.901 9.933c0 4.715-3.33 8.616-7.761 9.582l38.997 38.934 0.543 0.639v26.988c1.254-0.181 2.518-0.386 3.769-0.575v-26.477l-30.247-30.31-0.607-0.543v-34.366l-9.741-9.709c-1.668 1.317-3.715 2.14-6.004 2.14-5.443 0-9.837-4.426-9.837-9.869s4.394-9.837 9.837-9.837 9.837 4.394 9.837 9.837c0 1.721-0.537 3.25-1.31 4.663l10.572 10.572 0.543 0.607v34.334l30.278 30.278 0.543 0.607v27.468c2.715-0.428 5.444-0.876 8.144-1.341-0.833-1.467-1.341-3.151-1.341-4.951 0-5.443 4.394-9.805 9.837-9.805s9.837 4.363 9.837 9.805c0 0.521-0.05 1-0.128 1.501 1.745-0.358 3.5-0.712 5.238-1.086v-8.943l-8.017-8.017h-9.614l-0.543-0.575-31.97-31.907-0.543-0.543v-9.997c-4.145-0.959-7.186-4.654-7.186-9.103 0-5.184 4.175-9.422 9.358-9.422s9.358 4.238 9.358 9.422c0 4.577-3.294 8.313-7.633 9.135v8.4l30.821 30.693h9.582l0.575 0.543 9.135 9.166 0.607 0.575v9.709c1.411-0.313 2.81-0.635 4.216-0.958v-10.539l-38.934-38.934-0.543-0.575v-30.374l-12.392-12.392c-1.688 1.006-3.618 1.597-5.717 1.597-6.221 0-11.242-5.118-11.242-11.339s5.022-11.211 11.242-11.211 11.306 4.99 11.306 11.211c0 2.704-0.992 5.237-2.587 7.186v0.096l12.712 12.616 0.575 0.607v30.406l38.934 38.838 0.543 0.607v11.306c1.631-0.387 3.262-0.781 4.887-1.182v-19.482c-4.607-1.417-7.953-5.688-7.953-10.763 0-6.221 5.054-11.243 11.274-11.243s11.274 5.022 11.274 11.243c-1e-3 6.016-4.73 10.891-10.668 11.211v18.078c4.317-1.096 8.602-2.259 12.872-3.449v-33.313l-9.23-9.23h-18.205l-0.575-0.607-21.367-21.367-0.639-0.607v-19.131c-5.251-0.947-9.198-5.52-9.198-11.05 0-6.221 4.991-11.274 11.211-11.274 6.221 0 11.274 5.053 11.274 11.274 0 5.572-4.069 10.152-9.39 11.05v17.534l20.376 20.281h18.078l0.575 0.543 10.445 10.476 0.575 0.511v33.792c6.694-1.917 13.294-3.955 19.867-6.1l-13.318-13.318-0.543-0.543v-13.35l-18.045-18.078c-1.749 1.131-3.832 1.789-6.068 1.789-6.221 1e-3 -11.307-5.085-11.307-11.306s5.086-11.242 11.307-11.242 11.211 5.022 11.211 11.242c0 2.571-0.823 4.964-2.268 6.867l18.525 18.556 0.607 0.543v13.318l14.116 14.149c0.928-0.311 1.853-0.611 2.779-0.926l-12.105-12.105-0.543-0.639v-27.434c-5.116-0.674-9.07-4.984-9.07-10.284 0-5.767 4.645-10.476 10.412-10.476s10.444 4.709 10.444 10.476c0 4.878-3.367 8.946-7.889 10.093v26.094l12.872 12.807c2.538-0.887 5.084-1.762 7.601-2.683l-7.09-7.09-0.607-0.575v-45.097l-10.157-10.061h-23.699l-0.575-0.543-7.889-7.953c-1.79 1.192-3.925 1.884-6.228 1.884-6.221 0-11.211-5.022-11.211-11.242 0-6.221 4.99-11.274 11.211-11.274s11.307 5.054 11.307 11.274c0 2.518-0.865 4.825-2.268 6.707l7.314 7.25h23.666l0.575 0.543 11.306 11.306 0.543 0.575v44.938l7.825 7.857c2.185-0.818 4.346-1.648 6.516-2.491v-0.063c-4.998-0.779-8.847-5.101-8.847-10.317 0-5.407 4.156-9.909 9.422-10.444 0.351-0.037 0.662 0 1.022 0 5.767 0 10.445 4.677 10.445 10.444 0 2.456-0.872 4.699-2.3 6.484 2.177-0.893 4.356-1.796 6.516-2.715v-7.346l-16.001-15.97-0.543-0.543v-3.322h-0.16c-5.767 0-10.476-4.678-10.476-10.444 0-5.767 4.709-10.444 10.476-10.444s10.413 4.677 10.413 10.444c0 4.325-2.608 8.06-6.356 9.646v2.523l16.001 15.938 0.543 0.543v7.314c1.917-0.833 3.845-1.67 5.749-2.523 1.273-4.307 5.233-7.442 9.965-7.442 1.467 0 2.854 0.288 4.12 0.83 1.662-0.802 3.331-1.578 4.983-2.395l-3.833-3.833h-19.482l-0.543-0.639-4.407-4.408-0.607-0.543v-27.819l-10.763-10.7c-1.578 0.979-3.467 1.565-5.461 1.565-5.702 0-10.284-4.582-10.284-10.284s4.582-10.348 10.284-10.348 10.348 4.646 10.348 10.348c0 2.25-0.728 4.309-1.948 6.005l11.146 11.274 0.575 0.511v27.819l3.29 3.322h19.419l0.575 0.511 5.366 5.398c1.664-0.839 3.33-1.701 4.982-2.555l-12.105-12.072c-1.88 1.819-4.429 2.938-7.25 2.938-5.767 0-10.445-4.677-10.445-10.444 0-5.768 4.678-10.413 10.445-10.413 5.768 0 10.445 4.646 10.445 10.413 0 1.508-0.287 2.985-0.862 4.28l12.424 12.392h2.875c2.78-1.478 5.559-2.982 8.304-4.503h-1.565l-0.511-0.607-61.004-61.004h-21.75l-8.496 8.464c1.54 1.82 2.491 4.137 2.491 6.707 0 5.767-4.709 10.476-10.476 10.476-5.766 0-10.38-4.709-10.38-10.476 0-5.768 4.613-10.413 10.38-10.413 1.755 0 3.467 0.449 4.919 1.214l9.358-9.294 0.607-0.607h24.976l0.575 0.607 61.004 61.036h6.803c2.266-1.3 4.53-2.63 6.771-3.96l-9.326-0.192h-0.799l-0.543-0.543-54.393-54.935-0.575-0.511-0.063-0.799-1.565-105.78-0.064-0.862 0.607-0.639 26.19-26.126v-23.667l0.607-0.543 12.392-12.488 0.543-0.543h33.952l0.575 0.543 10.029 9.997c1.175-0.556 2.454-0.83 3.833-0.83 5.132 0 9.326 4.284 9.326 9.582 0 5.297-4.195 9.582-9.326 9.582-5.132 0-9.294-4.284-9.294-9.582 0-2.422 0.899-4.573 2.332-6.26l-9.103-9.103h-30.693l-11.274 11.274v23.636l-0.575 0.543-26.158 26.222 1.565 104.19 53.274 53.754 10.413 0.224 0.862 0.032 0.543 0.575 0.798 0.83c1.815-1.099 3.6-2.235 5.398-3.354l-1.437-1.501h-14.244l-0.575-0.607-50.016-50.049-0.607-0.511v-103.03l0.607-0.543 25.487-25.551v-22.198l0.575-0.575 7.602-7.633 0.607-0.607h19.228l0.511 0.287 8.113 4.631 0.99 0.543v11.498l3.896 3.992h137.53l61.482-61.578c-0.423-1.098-0.639-2.258-0.639-3.513 0-4.783 3.392-8.758 7.825-9.486 2.223-7.936 4.19-15.958 5.941-24.05l-62.313 62.345-0.575 0.575h-94.412l-0.543-0.575-10.635-10.635h-29.288l-0.575-0.639-22.804-22.804-0.639-0.543v-13.607l-15.523-15.555-0.607-0.575v-70.233c-3.591-1.324-6.164-4.873-6.164-9.039 0-5.297 4.131-9.582 9.262-9.582 5.132 0 9.294 4.284 9.294 9.582 0 5.028-3.695 9.112-8.464 9.518v68.158l15.555 15.523 0.543 0.607v13.574l21.75 21.719h29.256l0.639 0.543 10.539 10.604h91.218l65.953-65.954c0.463-2.338 0.886-4.677 1.309-7.027l-66.752 66.72-0.862 0.83h-87.512l-0.83-0.83-11.594-11.498h-22.166l-0.831-0.831-10.156-10.156c-1.451 0.969-3.125 1.565-4.983 1.565-5.132 0-9.294-4.284-9.294-9.582 0-5.297 4.163-9.582 9.294-9.582s9.262 4.285 9.262 9.582c0 1.187-0.226 2.337-0.607 3.385l9.741 9.773h22.197l0.862 0.83 11.498 11.53h82.658l67.359-67.327 0.862-0.862h2.97c0.368-2.252 0.723-4.509 1.054-6.771h-8.56l-65.187 65.219-0.862 0.83h-74.736l-0.862-0.83-13.255-13.287c-1.419 3.415-4.729 5.845-8.56 5.845-5.132 0-9.326-4.284-9.326-9.582 0-5.297 4.194-9.677 9.326-9.677 3.707 0 6.912 2.299 8.4 5.557l0.319-0.287 16.384 16.416h69.851l65.22-65.219 0.862-0.862h11.817c0.251-1.902 0.479-3.808 0.703-5.717h-14.372l-62.856 62.856-0.862 0.831h-53.882c-1.453 3.334-4.627 5.685-8.4 5.685-5.132 0-9.326-4.284-9.326-9.582 0-5.297 4.195-9.677 9.326-9.677 4.49 0 8.238 3.348 9.103 7.729h50.719l62.856-62.856 0.862-0.83h17.471c0.197-1.916 0.372-3.858 0.543-5.781h-22.516l-59.247 59.183-0.862 0.862h-41.041v-0.862l-2.875-1.629h-91.122l-0.862-0.799-9.933-9.677-0.926-0.894v-125.56l-10.38-10.413c-0.463 0.08-0.921 0.128-1.405 0.128-4.73 0-8.56-3.861-8.56-8.592 0-4.73 3.829-8.56 8.56-8.56 4.73 0 8.528 3.83 8.528 8.56 0 2.037-0.764 3.886-1.948 5.366l10.22 10.189 0.83 0.862v125.56l8.208 7.953h90.387l0.639 0.447 3.705 2.044h35.579l59.151-59.183 0.894-0.83h25.488c0.169-2.275 0.316-4.583 0.447-6.867h-27.148l-59.088 59.055-0.83 0.958h-44.715l-0.83-0.958-2.906-2.811c-1.667 2.551-4.458 4.248-7.665 4.248-5.132 0-9.294-4.284-9.294-9.582 0-5.297 4.163-9.645 9.294-9.645 4.651 0 8.455 3.54 9.135 8.144l4.695 4.727h39.86l58.992-59.119 0.862-0.862h29.926c0.111-2.569 0.192-5.15 0.256-7.729h-29.799l-60.748 60.78-0.894 0.894h-31.428l-0.83-0.894-12.583-12.552h-13.287l-20.6 20.696-0.639-0.639c-1.567 3.002-4.575 5.078-8.113 5.078-5.132 0-9.294-4.285-9.294-9.582s4.163-9.55 9.294-9.55c4.049 0 7.481 2.659 8.751 6.388l17.406-17.407 0.83-0.831h18.047l0.83 0.831 12.583 12.583h26.605l60.78-60.844 0.862-0.862h32.322c0.015-1.42 0.031-2.825 0.031-4.248 0-0.907 0.01-1.81 0-2.715h-36.444zm-241.4-16.934c-4.73 0-8.56-3.829-8.56-8.56 0-4.73 3.829-8.528 8.56-8.528s8.56 3.798 8.56 8.528c0 4.731-3.83 8.56-8.56 8.56zm5e-3 -70.042c-4.73 0-8.56-3.83-8.56-8.56s3.829-8.56 8.56-8.56 8.56 3.829 8.56 8.56-3.83 8.56-8.56 8.56zm0.706-32.865c-4.73 0-8.56-3.829-8.56-8.56 0-4.73 3.829-8.528 8.56-8.528s8.592 3.797 8.592 8.528c-1e-3 4.73-3.862 8.56-8.592 8.56zm-309.4-102.11c-4.73 0-8.496-3.893-8.496-8.623s3.766-8.56 8.496-8.56 8.592 3.829 8.592 8.56c0 4.73-3.861 8.623-8.592 8.623zm103.77 0c-4.73 0-8.56-3.893-8.56-8.623s3.829-8.56 8.56-8.56 8.624 3.829 8.624 8.56c-1e-3 4.73-3.894 8.623-8.624 8.623zm-137.88 51.422c4.73 0 8.528 3.893 8.528 8.623 0 4.731-3.797 8.528-8.528 8.528-4.73 0-8.56-3.797-8.56-8.528 0-4.73 3.829-8.623 8.56-8.623zm-35.165 0.223c4.73 0 8.496 3.829 8.496 8.56 0 4.73-3.765 8.592-8.496 8.592-4.73 0-8.623-3.861-8.623-8.592 0-4.73 3.893-8.56 8.623-8.56zm-33.632-0.223c4.73 0 8.56 3.893 8.56 8.623 0 4.731-3.829 8.528-8.56 8.528-4.73 0-8.528-3.797-8.528-8.528 1e-3 -4.73 3.798-8.623 8.528-8.623zm-34.973 0c4.73 0 8.56 3.893 8.56 8.623 0 4.731-3.829 8.528-8.56 8.528-4.73 0-8.624-3.797-8.624-8.528 0-4.73 3.894-8.623 8.624-8.623zm-30.381 67.806c4.73 0 8.592 3.829 8.592 8.56 0 4.73-3.861 8.592-8.592 8.592-4.73 0-8.592-3.861-8.592-8.592 1e-3 -4.73 3.862-8.56 8.592-8.56zm0 36.507c4.73 0 8.592 3.83 8.592 8.56 0 4.731-3.861 8.56-8.592 8.56-4.73 0-8.592-3.829-8.592-8.56 1e-3 -4.731 3.862-8.56 8.592-8.56zm-68.093 84.351c-4.73 0-8.528-3.861-8.528-8.592 0-4.73 3.798-8.496 8.528-8.496s8.656 3.766 8.656 8.496c-1e-3 4.731-3.926 8.592-8.656 8.592zm25.491-179.15c0-4.73 3.797-8.623 8.528-8.623 4.73 0 8.656 3.893 8.656 8.623 0 4.731-3.926 8.56-8.656 8.56-4.731 0-8.528-3.829-8.528-8.56zm10.024 112.11c-4.73 0-8.624-3.765-8.624-8.496 0-4.73 3.894-8.592 8.624-8.592s8.528 3.861 8.528 8.592c0 4.73-3.798 8.496-8.528 8.496zm0-36.443c-4.73 0-8.624-3.797-8.624-8.528 0-4.73 3.894-8.624 8.624-8.624s8.528 3.893 8.528 8.624-3.798 8.528-8.528 8.528zm6e-3 -31.907c-4.73 0-8.624-3.861-8.624-8.592 0-4.73 3.894-8.496 8.624-8.496s8.528 3.766 8.528 8.496c0 4.731-3.798 8.592-8.528 8.592zm-37.013 270.78c-5.767 0-10.476-4.709-10.476-10.476 0-5.766 4.708-10.412 10.476-10.412s10.444 4.645 10.444 10.412-4.678 10.476-10.444 10.476zm35.486 71.225c-5.767 0-10.445-4.709-10.445-10.476s4.678-10.444 10.445-10.444c5.768 0 10.413 4.677 10.413 10.444-1e-3 5.767-4.646 10.476-10.413 10.476zm0.958-34.015c-5.768 0-10.445-4.709-10.445-10.476s4.677-10.444 10.445-10.444c5.767 0 10.476 4.677 10.476 10.444-1e-3 5.767-4.71 10.476-10.476 10.476zm32.385-55.606c5.768 0 10.445 4.646 10.445 10.413s-4.677 10.476-10.445 10.476c-5.767 0-10.445-4.709-10.445-10.476 0-5.768 4.678-10.413 10.445-10.413zm1e-3 55.606c-5.767 0-10.445-4.709-10.445-10.476s4.678-10.444 10.445-10.444 10.444 4.677 10.444 10.444c1e-3 5.767-4.677 10.476-10.444 10.476zm44.171-55.606c5.768 0 10.413 4.646 10.413 10.413s-4.646 10.476-10.413 10.476-10.476-4.709-10.476-10.476c0-5.768 4.709-10.413 10.476-10.413zm1e-3 55.606c-5.767 0-10.476-4.709-10.476-10.476s4.709-10.444 10.476-10.444 10.413 4.677 10.413 10.444-4.646 10.476-10.413 10.476zm-43.53 79.815c5.768 0 10.445 4.646 10.445 10.413 0 5.768-4.677 10.444-10.445 10.444-5.767 0-10.413-4.677-10.413-10.444 0-5.768 4.646-10.413 10.413-10.413zm1e-3 55.319c-5.767 0-10.413-4.709-10.413-10.476s4.646-10.413 10.413-10.413c5.768 0 10.445 4.646 10.445 10.413-1e-3 5.767-4.678 10.476-10.445 10.476zm35.963-55.319c5.766 0 10.38 4.646 10.38 10.413 0 5.768-4.613 10.444-10.38 10.444s-10.476-4.677-10.476-10.444c0-5.768 4.709-10.413 10.476-10.413zm1e-3 55.319c-5.767 0-10.476-4.709-10.476-10.476s4.709-10.413 10.476-10.413c5.766 0 10.38 4.646 10.38 10.413-1e-3 5.767-4.613 10.476-10.38 10.476zm32.768-55.319c5.767 0 10.444 4.646 10.444 10.413 0 5.768-4.677 10.444-10.444 10.444s-10.413-4.677-10.413-10.444c0-5.768 4.646-10.413 10.413-10.413zm1e-3 55.319c-5.767 0-10.413-4.709-10.413-10.476s4.646-10.413 10.413-10.413 10.444 4.646 10.444 10.413-4.677 10.476-10.444 10.476zm34.269-55.319c5.767 0 10.445 4.646 10.445 10.413 0 5.768-4.678 10.444-10.445 10.444s-10.476-4.677-10.476-10.444c0-5.768 4.708-10.413 10.476-10.413zm1e-3 55.319c-5.767 0-10.476-4.709-10.476-10.476s4.708-10.413 10.476-10.413c5.767 0 10.445 4.646 10.445 10.413-1e-3 5.767-4.678 10.476-10.445 10.476zm31.906-55.319c5.767 0 10.476 4.646 10.476 10.413 0 5.768-4.709 10.444-10.476 10.444-5.768 0-10.445-4.677-10.445-10.444 1e-3 -5.768 4.678-10.413 10.445-10.413zm1.662 88.888c-5.768 0-10.445-4.677-10.445-10.444s4.677-10.444 10.445-10.444c5.767 0 10.445 4.677 10.445 10.444 0 5.766-4.678 10.444-10.445 10.444zm99.552-68.031c-5.767 0-10.444-4.677-10.444-10.444s4.678-10.413 10.444-10.413c5.768 0 10.445 4.646 10.445 10.413s-4.678 10.444-10.445 10.444zm36.507-1.469c-5.767 0-10.445-4.646-10.445-10.413s4.678-10.444 10.445-10.444 10.476 4.678 10.476 10.444c0 5.768-4.709 10.413-10.476 10.413zm170.17-31.876c-5.767 0-10.476-4.677-10.476-10.444s4.709-10.444 10.476-10.444 10.413 4.677 10.413 10.444-4.646 10.444-10.413 10.444zm69.291-292.08c4.73 0 8.528 3.798 8.528 8.528s-3.797 8.56-8.528 8.56c-4.73 0-8.56-3.829-8.56-8.56 1e-3 -4.731 3.83-8.528 8.56-8.528z"/>
 <ellipse transform="matrix(.9998 -.02 .02 .9998 -32.586 11.215)" cx="544.49" cy="1635.1" rx=".003" ry=".003"/>
</svg>
