<svg width="48" height="44" viewBox="0 0 48 44" fill="none" xmlns="http://www.w3.org/2000/svg">
    <path d="M47.8172 22C47.8172 34.0423 37.4673 43.822 24.678 43.822C11.8887 43.822 1.53886 34.0423 1.53886 22C1.53886 9.95762 11.8887 0.177963 24.678 0.177963C37.4673 0.177963 47.8172 9.95762 47.8172 22Z" fill="black" fill-opacity="0.6" stroke="#8FF4FD" stroke-width="0.355987" stroke-linecap="round" stroke-linejoin="round"/>
    <g filter="url(#filter0_f)">
    <line x1="43.9703" y1="9.66388" x2="6.10258" y2="35.2717" stroke="black" stroke-width="0.0925567"/>
    <line x1="43.9703" y1="9.66388" x2="6.10258" y2="35.2717" stroke="url(#paint0_linear)" stroke-width="0.0925567"/>
    </g>
    <g filter="url(#filter1_i)">
    <path d="M24.128 20.9648C24.8147 18.6833 25.6421 17.0249 26.6099 15.9893C27.5869 14.9631 28.78 14.4588 30.189 14.4764C31.7834 14.4963 33.0917 15.1477 34.1141 16.4307C35.1456 17.723 35.6486 19.3888 35.6232 21.4282C35.6058 22.8186 35.3215 24.0528 34.7703 25.1306C34.219 26.2178 33.4669 27.052 32.514 27.6335C31.561 28.2242 30.5236 28.5126 29.402 28.4986L29.4355 25.815C30.6591 25.8303 31.6234 25.4529 32.3283 24.6829C33.0426 23.9131 33.4085 22.819 33.4262 21.4007C33.4427 20.0844 33.1635 19.0518 32.5888 18.303C32.0232 17.5635 31.2259 17.1873 30.197 17.1744C29.372 17.1641 28.6678 17.503 28.0844 18.1911C27.5101 18.8885 26.9761 20.0732 26.4824 21.7451C25.9886 23.4263 25.4484 24.7361 24.8619 25.6744C24.2845 26.6222 23.6129 27.3184 22.8471 27.7631C22.0812 28.2171 21.1838 28.4377 20.1548 28.4248C18.5141 28.4044 17.2058 27.7483 16.2299 26.4567C15.2633 25.1652 14.7933 23.4488 14.82 21.3075C14.8374 19.917 15.1178 18.6225 15.6612 17.4241C16.2139 16.2257 16.9579 15.3032 17.8931 14.6566C18.8281 14.0193 19.8843 13.708 21.0616 13.7227L21.0281 16.4063C19.8045 16.3911 18.8302 16.8285 18.1052 17.7188C17.3893 18.6184 17.0219 19.8237 17.0031 21.3347C16.9855 22.7437 17.2594 23.8272 17.8247 24.5853C18.3901 25.3433 19.1687 25.7285 20.1605 25.7409C21.1524 25.7533 21.9215 25.4152 22.4678 24.7267C23.0234 24.0383 23.5768 22.7843 24.128 20.9648Z" fill="#DC041C"/>
    </g>
    <g filter="url(#filter2_i)">
    <path d="M25.9207 20.5491C28.2105 21.2073 29.8792 22.0138 30.9267 22.9687C31.965 23.9328 32.4842 25.1195 32.4842 26.5286C32.4842 28.1231 31.8491 29.4395 30.5791 30.4778C29.2998 31.5254 27.6403 32.0492 25.6008 32.0492C24.2102 32.0492 22.9726 31.7803 21.888 31.2426C20.7941 30.7049 19.9505 29.9633 19.3571 29.0177C18.7546 28.0721 18.4533 27.0384 18.4533 25.9167H21.1371C21.1371 27.1404 21.5264 28.0999 22.3052 28.7952C23.0839 29.4998 24.1824 29.852 25.6008 29.852C26.9172 29.852 27.9463 29.56 28.6879 28.976C29.4203 28.4012 29.7865 27.5993 29.7865 26.5703C29.7865 25.7452 29.4388 25.0453 28.7435 24.4705C28.039 23.905 26.8477 23.3859 25.1697 22.9131C23.4825 22.4403 22.1661 21.9165 21.2205 21.3417C20.2656 20.7762 19.5611 20.1134 19.1068 19.3532C18.6433 18.593 18.4115 17.6984 18.4115 16.6694C18.4115 15.0285 19.0512 13.7121 20.3305 12.7202C21.6099 11.7375 23.3203 11.2461 25.4618 11.2461C26.8523 11.2461 28.1502 11.5104 29.3554 12.0388C30.5605 12.5765 31.4922 13.3088 32.1504 14.2359C32.7994 15.1629 33.1238 16.2151 33.1238 17.3925H30.44C30.44 16.1688 29.9904 15.2 29.0912 14.4862C28.1827 13.7816 26.9729 13.4293 25.4618 13.4293C24.0526 13.4293 22.9726 13.7167 22.2217 14.2915C21.4708 14.8663 21.0954 15.6496 21.0954 16.6416C21.0954 17.6335 21.443 18.3983 22.1383 18.936C22.8336 19.483 24.0944 20.0207 25.9207 20.5491Z" fill="#FD7A04"/>
    </g>
    <path d="M25.9207 20.5491L25.9009 20.6175L25.901 20.6175L25.9207 20.5491ZM30.9267 22.9687L30.9752 22.9165L30.9747 22.9161L30.9267 22.9687ZM30.5791 30.4778L30.534 30.4227L30.534 30.4227L30.5791 30.4778ZM21.888 31.2426L21.9196 31.1788L21.9194 31.1787L21.888 31.2426ZM19.3571 29.0177L19.4174 28.9799L19.4172 28.9794L19.3571 29.0177ZM18.4533 25.9167V25.8455H18.3821V25.9167H18.4533ZM21.1371 25.9167H21.2083V25.8455H21.1371V25.9167ZM22.3052 28.7952L22.3529 28.7424L22.3526 28.7421L22.3052 28.7952ZM28.6879 28.976L28.6439 28.92L28.6439 28.92L28.6879 28.976ZM28.7435 24.4705L28.7889 24.4156L28.7881 24.415L28.7435 24.4705ZM25.1697 22.9131L25.1891 22.8445L25.189 22.8445L25.1697 22.9131ZM21.2205 21.3417L21.2575 21.2809L21.2568 21.2805L21.2205 21.3417ZM19.1068 19.3532L19.168 19.3167L19.1676 19.3161L19.1068 19.3532ZM20.3305 12.7202L20.2872 12.6637L20.2869 12.6639L20.3305 12.7202ZM29.3554 12.0388L29.3844 11.9738L29.384 11.9736L29.3554 12.0388ZM32.1504 14.2359L32.2088 14.1951L32.2085 14.1947L32.1504 14.2359ZM33.1238 17.3925V17.4637H33.195V17.3925H33.1238ZM30.44 17.3925H30.3688V17.4637H30.44V17.3925ZM29.0912 14.4862L29.1354 14.4304L29.1348 14.4299L29.0912 14.4862ZM22.1383 18.936L22.1823 18.8801L22.1818 18.8797L22.1383 18.936ZM25.901 20.6175C28.1865 21.2745 29.843 22.0772 30.8788 23.0213L30.9747 22.9161C29.9153 21.9504 28.2344 21.1401 25.9403 20.4807L25.901 20.6175ZM30.8783 23.0209C31.9022 23.9716 32.413 25.1394 32.413 26.5286H32.5554C32.5554 25.0995 32.0279 23.894 30.9752 22.9165L30.8783 23.0209ZM32.413 26.5286C32.413 28.101 31.7881 29.3975 30.534 30.4227L30.6241 30.5329C31.9102 29.4816 32.5554 28.1452 32.5554 26.5286H32.413ZM30.534 30.4227C29.2701 31.4576 27.6278 31.978 25.6008 31.978V32.1204C27.6528 32.1204 29.3294 31.5931 30.6242 30.5329L30.534 30.4227ZM25.6008 31.978C24.2196 31.978 22.9931 31.711 21.9196 31.1788L21.8564 31.3064C22.9522 31.8496 24.2009 32.1204 25.6008 32.1204V31.978ZM21.9194 31.1787C20.8362 30.6463 20.0031 29.9132 19.4174 28.9799L19.2968 29.0555C19.8978 30.0134 20.7519 30.7635 21.8566 31.3065L21.9194 31.1787ZM19.4172 28.9794C18.8219 28.0453 18.5245 27.0249 18.5245 25.9167H18.3821C18.3821 27.052 18.6872 28.0989 19.2971 29.056L19.4172 28.9794ZM18.4533 25.9879H21.1371V25.8455H18.4533V25.9879ZM21.0659 25.9167C21.0659 27.1569 21.4612 28.1372 22.2577 28.8483L22.3526 28.7421C21.5916 28.0627 21.2083 27.124 21.2083 25.9167H21.0659ZM22.2574 28.848C23.0532 29.568 24.1711 29.9232 25.6008 29.9232V29.7808C24.1938 29.7808 23.1146 29.4315 22.3529 28.7424L22.2574 28.848ZM25.6008 29.9232C26.927 29.9232 27.9736 29.6291 28.7319 29.0319L28.6439 28.92C27.9189 29.491 26.9075 29.7808 25.6008 29.7808V29.9232ZM28.7319 29.032C29.4834 28.4422 29.8577 27.6185 29.8577 26.5703H29.7153C29.7153 27.5801 29.3571 28.3602 28.6439 28.92L28.7319 29.032ZM29.8577 26.5703C29.8577 25.7218 29.4988 25.0025 28.7889 24.4156L28.6982 24.5254C29.3788 25.0881 29.7153 25.7686 29.7153 26.5703H29.8577ZM28.7881 24.415C28.072 23.8402 26.8693 23.318 25.1891 22.8445L25.1504 22.9816C26.8262 23.4538 28.006 23.9698 28.699 24.526L28.7881 24.415ZM25.189 22.8445C23.5048 22.3726 22.1953 21.8509 21.2575 21.2809L21.1835 21.4026C22.1369 21.9821 23.4602 22.508 25.1505 22.9816L25.189 22.8445ZM21.2568 21.2805C20.3096 20.7195 19.6148 20.0644 19.168 19.3167L19.0457 19.3897C19.5074 20.1624 20.2217 20.8329 21.1842 21.403L21.2568 21.2805ZM19.1676 19.3161C18.7119 18.5688 18.4827 17.6874 18.4827 16.6694H18.3403C18.3403 17.7094 18.5747 18.6173 19.046 19.3903L19.1676 19.3161ZM18.4827 16.6694C18.4827 15.0502 19.1125 13.7547 20.3742 12.7764L20.2869 12.6639C18.9899 13.6695 18.3403 15.0069 18.3403 16.6694H18.4827ZM20.3739 12.7766C21.6373 11.8062 23.3308 11.3173 25.4618 11.3173V11.1749C23.3097 11.1749 21.5825 11.6688 20.2872 12.6637L20.3739 12.7766ZM25.4618 11.3173C26.8431 11.3173 28.1311 11.5797 29.3268 12.104L29.384 11.9736C28.1693 11.441 26.8616 11.1749 25.4618 11.1749V11.3173ZM29.3264 12.1038C30.5218 12.6371 31.4427 13.362 32.0924 14.2771L32.2085 14.1947C31.5418 13.2557 30.5993 12.5158 29.3844 11.9738L29.3264 12.1038ZM32.0921 14.2767C32.7323 15.1913 33.0526 16.2291 33.0526 17.3925H33.195C33.195 16.2012 32.8664 15.1346 32.2088 14.1951L32.0921 14.2767ZM33.1238 17.3213H30.44V17.4637H33.1238V17.3213ZM30.5112 17.3925C30.5112 16.1487 30.0529 15.1588 29.1354 14.4304L29.0469 14.542C29.9279 15.2413 30.3688 16.1889 30.3688 17.3925H30.5112ZM29.1348 14.4299C28.2104 13.713 26.9837 13.3582 25.4618 13.3582V13.5005C26.962 13.5005 28.1549 13.8502 29.0475 14.5424L29.1348 14.4299ZM25.4618 13.3582C24.0443 13.3582 22.9466 13.647 22.1784 14.235L22.265 14.348C22.9987 13.7864 24.061 13.5005 25.4618 13.5005V13.3582ZM22.1784 14.235C21.409 14.824 21.0242 15.6287 21.0242 16.6416H21.1666C21.1666 15.6705 21.5327 14.9086 22.265 14.348L22.1784 14.235ZM21.0242 16.6416C21.0242 17.6523 21.3796 18.4393 22.0947 18.9923L22.1818 18.8797C21.5064 18.3574 21.1666 17.6147 21.1666 16.6416H21.0242ZM22.0943 18.992C22.8012 19.5481 24.0736 20.0888 25.9009 20.6175L25.9404 20.4807C24.1152 19.9526 22.866 19.4179 22.1823 18.8801L22.0943 18.992Z" fill="#FD7A04"/>
    <rect x="30.3382" y="17.1585" width="1.13916" height="0.213592" fill="#DC041C"/>
    <path d="M18.2703 25.7022H21.225L21.9725 28.2297L21.4386 28.3365L20.869 28.3721L20.2994 28.4077L19.7654 28.3721L19.089 28.2653L18.4483 28.0518L18.2703 25.7022Z" fill="#DC041C"/>
    <path d="M30.5896 17.1586L30.5896 17.1584L30.5862 17.1586L29.5517 17.193L29.3089 14.6255L29.7358 14.5598H30.1944L31.081 14.6308L32.0009 14.8077L32.7329 15.1214L33.7447 17.145L33.0715 17.5489L31.6637 17.3729L31.169 17.1962L31.1695 17.1948L31.1592 17.1942L30.5896 17.1586Z" fill="#DC041C" stroke="#DC041C" stroke-width="0.0711975"/>
    <g filter="url(#filter3_f)">
    <line x1="35.4243" y1="2.18366" x2="1.10709" y2="24.4685" stroke="black" stroke-width="0.113916"/>
    <line x1="35.4243" y1="2.18366" x2="1.10709" y2="24.4685" stroke="url(#paint1_linear)" stroke-width="0.113916"/>
    </g>
    <g filter="url(#filter4_f)">
    <line x1="47.5404" y1="17.6204" x2="15.1762" y2="42.1046" stroke="#B6FCEC" stroke-width="0.113916"/>
    <line x1="47.5404" y1="17.6204" x2="15.1762" y2="42.1046" stroke="url(#paint2_linear)" stroke-width="0.113916"/>
    </g>
    <defs>
    <filter id="filter0_f" x="5.79187" y="9.34076" width="38.4891" height="26.2541" filterUnits="userSpaceOnUse" color-interpolation-filters="sRGB">
    <feFlood flood-opacity="0" result="BackgroundImageFix"/>
    <feBlend mode="normal" in="SourceGraphic" in2="BackgroundImageFix" result="shape"/>
    <feGaussianBlur stdDeviation="0.142395" result="effect1_foregroundBlur"/>
    </filter>
    <filter id="filter1_i" x="14.819" y="13.7222" width="20.8051" height="15.0616" filterUnits="userSpaceOnUse" color-interpolation-filters="sRGB">
    <feFlood flood-opacity="0" result="BackgroundImageFix"/>
    <feBlend mode="normal" in="SourceGraphic" in2="BackgroundImageFix" result="shape"/>
    <feColorMatrix in="SourceAlpha" type="matrix" values="0 0 0 0 0 0 0 0 0 0 0 0 0 0 0 0 0 0 127 0" result="hardAlpha"/>
    <feOffset dy="0.28479"/>
    <feGaussianBlur stdDeviation="0.142395"/>
    <feComposite in2="hardAlpha" operator="arithmetic" k2="-1" k3="1"/>
    <feColorMatrix type="matrix" values="0 0 0 0 0 0 0 0 0 0 0 0 0 0 0 0 0 0 0.25 0"/>
    <feBlend mode="normal" in2="shape" result="effect1_innerShadow"/>
    </filter>
    <filter id="filter2_i" x="18.3404" y="11.175" width="14.8547" height="21.2302" filterUnits="userSpaceOnUse" color-interpolation-filters="sRGB">
    <feFlood flood-opacity="0" result="BackgroundImageFix"/>
    <feBlend mode="normal" in="SourceGraphic" in2="BackgroundImageFix" result="shape"/>
    <feColorMatrix in="SourceAlpha" type="matrix" values="0 0 0 0 0 0 0 0 0 0 0 0 0 0 0 0 0 0 127 0" result="hardAlpha"/>
    <feOffset dy="0.28479"/>
    <feGaussianBlur stdDeviation="0.142395"/>
    <feComposite in2="hardAlpha" operator="arithmetic" k2="-1" k3="1"/>
    <feColorMatrix type="matrix" values="0 0 0 0 0 0 0 0 0 0 0 0 0 0 0 0 0 0 0.25 0"/>
    <feBlend mode="normal" in2="shape" result="effect1_innerShadow"/>
    </filter>
    <filter id="filter3_f" x="0.79129" y="1.8511" width="34.9488" height="22.9499" filterUnits="userSpaceOnUse" color-interpolation-filters="sRGB">
    <feFlood flood-opacity="0" result="BackgroundImageFix"/>
    <feBlend mode="normal" in="SourceGraphic" in2="BackgroundImageFix" result="shape"/>
    <feGaussianBlur stdDeviation="0.142395" result="effect1_foregroundBlur"/>
    </filter>
    <filter id="filter4_f" x="14.8571" y="17.2902" width="33.0025" height="25.1446" filterUnits="userSpaceOnUse" color-interpolation-filters="sRGB">
    <feFlood flood-opacity="0" result="BackgroundImageFix"/>
    <feBlend mode="normal" in="SourceGraphic" in2="BackgroundImageFix" result="shape"/>
    <feGaussianBlur stdDeviation="0.142395" result="effect1_foregroundBlur"/>
    </filter>
    <linearGradient id="paint0_linear" x1="25.0105" y1="22.4295" x2="24.4503" y2="21.6011" gradientUnits="userSpaceOnUse">
    <stop stop-color="white"/>
    <stop offset="1" stop-color="white" stop-opacity="0"/>
    </linearGradient>
    <linearGradient id="paint1_linear" x1="18.2347" y1="13.2783" x2="17.69" y2="12.4396" gradientUnits="userSpaceOnUse">
    <stop stop-color="white"/>
    <stop offset="1" stop-color="white" stop-opacity="0"/>
    </linearGradient>
    <linearGradient id="paint2_linear" x1="31.3239" y1="29.8171" x2="30.7206" y2="29.0196" gradientUnits="userSpaceOnUse">
    <stop stop-color="white"/>
    <stop offset="1" stop-color="white" stop-opacity="0"/>
    </linearGradient>
    </defs>
</svg>